<svg width="12" height="12" viewBox="0 0 12 12" fill="none"
    xmlns="http://www.w3.org/2000/svg">
    <path d="M5 6.50001C5.43448 7.08086 6.09981 7.44436 6.82332 7.49618C7.54684 7.548 8.25718 7.28302 8.77 6.77001L10.27 5.27001C11.2174 4.28907 11.2039 2.7298 10.2395 1.76547C9.27521 0.801133 7.71595 0.787583 6.735 1.73501L5.875 2.59001" stroke="#DFDCDC" stroke-linecap="round" stroke-linejoin="round" />
    <path d="M7.0001 5.5C6.56562 4.91915 5.90029 4.55565 5.17678 4.50383C4.45326 4.45201 3.74292 4.71699 3.2301 5.23L1.7301 6.73C0.78267 7.71095 0.796219 9.27021 1.76055 10.2345C2.72489 11.1989 4.28415 11.2124 5.2651 10.265L6.1201 9.41" stroke="#DFDCDC" stroke-linecap="round" stroke-linejoin="round" />
</svg>