<svg width="102" height="20" viewBox="0 0 102 20" fill="none" xmlns="http://www.w3.org/2000/svg">
    <path d="M40.2852 19H37.0859V9.63672H35.5273V6.44922H37.0859V5.85156C37.0859 5.07812 37.2305 4.35156 37.5195 3.67188C37.8164 2.99219 38.2188 2.40234 38.7266 1.90234C39.2422 1.39453 39.8398 0.996094 40.5195 0.707031C41.1992 0.410156 41.9258 0.261719 42.6992 0.261719H45.1016V3.44922H42.6992C42.3555 3.44922 42.0352 3.51172 41.7383 3.63672C41.4492 3.75391 41.1953 3.92187 40.9766 4.14062C40.7656 4.35156 40.5977 4.60547 40.4727 4.90234C40.3477 5.19141 40.2852 5.50781 40.2852 5.85156V6.44922H44.2109V9.63672H40.2852V19ZM57.6523 19H56.8789L55.6367 17.2773C55.332 17.5508 55.0078 17.8086 54.6641 18.0508C54.3281 18.2852 53.9727 18.4922 53.5977 18.6719C53.2227 18.8438 52.8359 18.9805 52.4375 19.082C52.0469 19.1836 51.6484 19.2344 51.2422 19.2344C50.3594 19.2344 49.5273 19.0859 48.7461 18.7891C47.9727 18.4922 47.293 18.0625 46.707 17.5C46.1289 16.9297 45.6719 16.2344 45.3359 15.4141C45 14.5938 44.832 13.6602 44.832 12.6133C44.832 11.6367 45 10.7422 45.3359 9.92969C45.6719 9.10938 46.1289 8.40625 46.707 7.82031C47.293 7.23438 47.9727 6.78125 48.7461 6.46094C49.5273 6.13281 50.3594 5.96875 51.2422 5.96875C51.6484 5.96875 52.0508 6.01953 52.4492 6.12109C52.8477 6.22266 53.2344 6.36328 53.6094 6.54297C53.9844 6.72266 54.3398 6.93359 54.6758 7.17578C55.0195 7.41797 55.3398 7.67969 55.6367 7.96094L56.8789 6.47266H57.6523V19ZM54.4297 12.6133C54.4297 12.1758 54.3438 11.7539 54.1719 11.3477C54.0078 10.9336 53.7812 10.5703 53.4922 10.2578C53.2031 9.9375 52.8633 9.68359 52.4727 9.49609C52.0898 9.30078 51.6797 9.20312 51.2422 9.20312C50.8047 9.20312 50.3906 9.27734 50 9.42578C49.6172 9.57422 49.2812 9.79297 48.9922 10.082C48.7109 10.3711 48.4883 10.7305 48.3242 11.1602C48.1602 11.582 48.0781 12.0664 48.0781 12.6133C48.0781 13.1602 48.1602 13.6484 48.3242 14.0781C48.4883 14.5 48.7109 14.8555 48.9922 15.1445C49.2812 15.4336 49.6172 15.6523 50 15.8008C50.3906 15.9492 50.8047 16.0234 51.2422 16.0234C51.6797 16.0234 52.0898 15.9297 52.4727 15.7422C52.8633 15.5469 53.2031 15.293 53.4922 14.9805C53.7812 14.6602 54.0078 14.2969 54.1719 13.8906C54.3438 13.4766 54.4297 13.0508 54.4297 12.6133ZM72.6641 12.6133C72.6641 13.5977 72.4961 14.4961 72.1602 15.3086C71.8242 16.1211 71.3672 16.8203 70.7891 17.4062C70.2109 17.9844 69.5312 18.4336 68.75 18.7539C67.9766 19.0742 67.1445 19.2344 66.2539 19.2344C65.3711 19.2344 64.5391 19.0703 63.7578 18.7422C62.9844 18.4141 62.3047 17.957 61.7188 17.3711C61.1406 16.7852 60.6836 16.0898 60.3477 15.2852C60.0117 14.4727 59.8438 13.582 59.8438 12.6133V1.45703H63.0547V7.31641C63.2266 7.09766 63.4336 6.90234 63.6758 6.73047C63.9258 6.55859 64.1914 6.41797 64.4727 6.30859C64.7617 6.19922 65.0586 6.11719 65.3633 6.0625C65.668 6 65.9648 5.96875 66.2539 5.96875C67.1445 5.96875 67.9766 6.13672 68.75 6.47266C69.5312 6.80078 70.2109 7.26172 70.7891 7.85547C71.3672 8.44922 71.8242 9.15234 72.1602 9.96484C72.4961 10.7695 72.6641 11.6523 72.6641 12.6133ZM69.4414 12.6133C69.4414 12.1289 69.3555 11.6797 69.1836 11.2656C69.0195 10.8438 68.793 10.4805 68.5039 10.1758C68.2148 9.87109 67.875 9.63281 67.4844 9.46094C67.1016 9.28906 66.6914 9.20312 66.2539 9.20312C65.8164 9.20312 65.4023 9.30078 65.0117 9.49609C64.6289 9.68359 64.293 9.9375 64.0039 10.2578C63.7148 10.5703 63.4883 10.9336 63.3242 11.3477C63.1602 11.7539 63.0781 12.1758 63.0781 12.6133C63.0781 13.0977 63.1602 13.5469 63.3242 13.9609C63.4883 14.375 63.7148 14.7344 64.0039 15.0391C64.293 15.3438 64.6289 15.5859 65.0117 15.7656C65.4023 15.9375 65.8164 16.0234 66.2539 16.0234C66.6914 16.0234 67.1016 15.9375 67.4844 15.7656C67.875 15.5859 68.2148 15.3438 68.5039 15.0391C68.793 14.7344 69.0195 14.375 69.1836 13.9609C69.3555 13.5469 69.4414 13.0977 69.4414 12.6133ZM77.6445 19H74.4453V6.44922H75.2188L76.2734 7.9375C76.7891 7.46875 77.375 7.10938 78.0312 6.85938C78.6875 6.60156 79.3672 6.47266 80.0703 6.47266H82.8945V9.66016H80.0703C79.7344 9.66016 79.418 9.72266 79.1211 9.84766C78.8242 9.97266 78.5664 10.1445 78.3477 10.3633C78.1289 10.582 77.957 10.8398 77.832 11.1367C77.707 11.4336 77.6445 11.75 77.6445 12.0859V19ZM88.1562 3.03906C88.1562 3.33594 88.0977 3.61328 87.9805 3.87109C87.8711 4.12891 87.7188 4.35547 87.5234 4.55078C87.3281 4.73828 87.0977 4.89062 86.832 5.00781C86.5742 5.11719 86.2969 5.17188 86 5.17188C85.7031 5.17188 85.4219 5.11719 85.1562 5.00781C84.8984 4.89062 84.6719 4.73828 84.4766 4.55078C84.2891 4.35547 84.1367 4.12891 84.0195 3.87109C83.9102 3.61328 83.8555 3.33594 83.8555 3.03906C83.8555 2.75 83.9102 2.47656 84.0195 2.21875C84.1367 1.95312 84.2891 1.72656 84.4766 1.53906C84.6719 1.34375 84.8984 1.19141 85.1562 1.08203C85.4219 0.964844 85.7031 0.90625 86 0.90625C86.2969 0.90625 86.5742 0.964844 86.832 1.08203C87.0977 1.19141 87.3281 1.34375 87.5234 1.53906C87.7188 1.72656 87.8711 1.95312 87.9805 2.21875C88.0977 2.47656 88.1562 2.75 88.1562 3.03906ZM87.6055 19H84.3828V6.44922H87.6055V19ZM101.023 8.94531L98.6797 11.3008C98.5625 10.9727 98.4023 10.6797 98.1992 10.4219C97.9961 10.1562 97.7656 9.93359 97.5078 9.75391C97.2578 9.57422 96.9844 9.4375 96.6875 9.34375C96.3906 9.25 96.0859 9.20312 95.7734 9.20312C95.3359 9.20312 94.9219 9.29297 94.5312 9.47266C94.1484 9.65234 93.8125 9.90625 93.5234 10.2344C93.2422 10.5547 93.0195 10.9375 92.8555 11.3828C92.6914 11.8281 92.6094 12.3203 92.6094 12.8594C92.6094 13.2969 92.6914 13.707 92.8555 14.0898C93.0195 14.4727 93.2422 14.8086 93.5234 15.0977C93.8125 15.3867 94.1484 15.6133 94.5312 15.7773C94.9219 15.9414 95.3359 16.0234 95.7734 16.0234C96.0859 16.0234 96.3867 15.9805 96.6758 15.8945C96.9648 15.8086 97.2344 15.6875 97.4844 15.5312C97.7422 15.3672 97.9688 15.1719 98.1641 14.9453C98.3672 14.7109 98.5312 14.4531 98.6562 14.1719L101 16.5273C100.703 16.9492 100.359 17.3281 99.9688 17.6641C99.5859 18 99.168 18.2852 98.7148 18.5195C98.2695 18.7539 97.7969 18.9297 97.2969 19.0469C96.8047 19.1719 96.2969 19.2344 95.7734 19.2344C94.8906 19.2344 94.0586 19.0703 93.2773 18.7422C92.5039 18.4062 91.8242 17.9492 91.2383 17.3711C90.6602 16.793 90.2031 16.1172 89.8672 15.3438C89.5312 14.5703 89.3633 13.7422 89.3633 12.8594C89.3633 11.8984 89.5312 11 89.8672 10.1641C90.2031 9.32812 90.6602 8.60156 91.2383 7.98438C91.8242 7.35938 92.5039 6.86719 93.2773 6.50781C94.0586 6.14844 94.8906 5.96875 95.7734 5.96875C96.2969 5.96875 96.8086 6.03516 97.3086 6.16797C97.8164 6.30078 98.2969 6.49609 98.75 6.75391C99.2109 7.00391 99.6328 7.3125 100.016 7.67969C100.406 8.04688 100.742 8.46875 101.023 8.94531Z" fill="#32AAFF" />
    <path d="M0.0388386 17.6078C-0.177785 18.6909 0.524648 19.7445 1.60777 19.9612C2.69089 20.1778 3.74454 19.4754 3.96116 18.3922L0.0388386 17.6078ZM3.96116 18.3922C4.31727 16.6117 5.27034 13.9023 6.90768 11.6897C8.52755 9.50068 10.6461 8 13.4 8V4C8.95388 4 5.77245 6.49932 3.69232 9.31031C1.62966 12.0977 0.482725 15.3883 0.0388386 17.6078L3.96116 18.3922ZM13.4 8C14.9091 8 16.1406 8.44279 17.1745 9.15045L19.4337 5.84955C17.7723 4.71241 15.7602 4 13.4 4V8Z" fill="#FB7BBB" />
    <path d="M0.0388386 2.39223C-0.177785 1.30911 0.524648 0.255463 1.60777 0.0388384C2.69089 -0.177785 3.74454 0.524648 3.96116 1.60777L0.0388386 2.39223ZM22.0175 1.73567C22.1635 0.640792 23.1694 -0.12844 24.2643 0.0175438C25.3592 0.163528 26.1284 1.16945 25.9825 2.26433L22.0175 1.73567ZM3.96116 1.60777C4.31727 3.38833 5.27034 6.09769 6.90768 8.31031C8.52755 10.4993 10.6461 12 13.4 12V16C8.95388 16 5.77245 13.5007 3.69232 10.6897C1.62966 7.90231 0.482725 4.61167 0.0388386 2.39223L3.96116 1.60777ZM13.4 12C16.129 12 18.0976 10.5266 19.541 8.38295C21.012 6.19834 21.7808 3.51094 22.0175 1.73567L25.9825 2.26433C25.6858 4.48906 24.7547 7.80166 22.859 10.617C20.9357 13.4734 17.871 16 13.4 16V12Z" fill="#FFCE00" />
    <path d="M17.1746 9.15045C17.6893 9.50274 18.1666 9.92892 18.6071 10.4161L21.5741 7.73343C20.9489 7.04199 20.2383 6.40013 19.4338 5.84955L17.1746 9.15045Z" fill="#FB7BBB" />
    <path d="M21.9054 11.6595L20.1526 12.6226L20.1526 12.6226L21.9054 11.6595ZM22.0175 18.2644C22.1635 19.3593 23.1694 20.1285 24.2643 19.9826C25.3592 19.8366 26.1284 18.8307 25.9824 17.7358L22.0175 18.2644ZM18.6071 10.4161C19.195 11.0663 19.7098 11.8168 20.1526 12.6226L23.6582 10.6964C23.0936 9.66874 22.4056 8.65305 21.5741 7.73336L18.6071 10.4161ZM20.1526 12.6226C21.2367 14.5956 21.8184 16.7714 22.0175 18.2644L25.9824 17.7358C25.7285 15.8318 25.0162 13.1678 23.6582 10.6964L20.1526 12.6226Z" fill="#FB7BBB" />
</svg>