<svg width="175" height="48" viewBox="0 0 175 48" fill="none"
    xmlns="http://www.w3.org/2000/svg">
    <path d="M0.0771751 39.218C-0.354684 41.3846 1.05153 43.491 3.21805 43.9228C5.38457 44.3547 7.49097 42.9485 7.92282 40.7819L0.0771751 39.218ZM7.92282 40.7819C8.63299 37.2192 10.5333 31.7996 13.7972 27.3742C17.0271 22.9949 21.2462 20 26.724 20V12C17.8498 12 11.5043 17.0051 7.35884 22.6258C3.24738 28.2004 0.961676 34.7808 0.0771751 39.218L7.92282 40.7819ZM26.724 20C29.7262 20 32.1765 20.8836 34.2352 22.2974L38.7639 15.7026C35.4498 13.4268 31.4346 12 26.724 12V20Z" fill="#FB7BBB"/>
    <path d="M0.0771751 8.78195C-0.354684 6.61543 1.05153 4.50903 3.21805 4.07717C5.38457 3.64531 7.49097 5.05153 7.92282 7.21805L0.0771751 8.78195ZM43.8882 7.47307C44.1792 5.28319 46.1904 3.74384 48.3803 4.03485C50.5701 4.32587 52.1095 6.33703 51.8185 8.52692L43.8882 7.47307ZM7.92282 7.21805C8.63299 10.7808 10.5333 16.2004 13.7972 20.6258C17.0271 25.0051 21.2462 28 26.724 28V36C17.8498 36 11.5043 30.9949 7.35884 25.3742C3.24738 19.7996 0.961676 13.2192 0.0771751 8.78195L7.92282 7.21805ZM26.724 28C32.1518 28 36.0722 25.0601 38.9506 20.771C41.883 16.4014 43.4161 11.0253 43.8882 7.47307L51.8185 8.52692C51.2274 12.9747 49.3718 19.5986 45.5934 25.229C41.7609 30.9399 35.6482 36 26.724 36V28Z" fill="#FFCE00"/>
    <path d="M34.2354 22.2974C35.2604 23.0013 36.2112 23.8531 37.0891 24.8273L43.032 19.4718C41.7856 18.0887 40.3685 16.8044 38.764 15.7026L34.2354 22.2974Z" fill="#FB7BBB"/>
    <path d="M43.6784 27.319L40.17 29.2403H40.17L43.6784 27.319ZM43.8884 40.5271C44.1794 42.717 46.1906 44.2564 48.3805 43.9654C50.5703 43.6743 52.1097 41.6632 51.8187 39.4733L43.8884 40.5271ZM37.0894 24.8272C38.2612 26.1275 39.2873 27.6285 40.17 29.2403L47.1868 25.3977C46.0614 23.3427 44.6901 21.3113 43.0323 19.4717L37.0894 24.8272ZM40.17 29.2403C42.3313 33.187 43.4914 37.5397 43.8884 40.5271L51.8187 39.4733C51.3128 35.6667 49.8932 30.3399 47.1868 25.3977L40.17 29.2403Z" fill="#FB7BBB"/>
    <path d="M80.2641 46.399H72V1.4124H80.2641V29.7807L92.4949 14.2743H101.931L91.2628 27.6771L101.931 46.399H92.4949L85.9738 34.7091L80.2641 42.282V46.399Z" fill="#32AAFF"/>
    <path d="M114.853 5.46931C114.853 6.23061 114.703 6.94182 114.402 7.60294C114.122 8.26407 113.731 8.84506 113.23 9.34591C112.729 9.82673 112.138 10.2174 111.457 10.5179C110.796 10.7984 110.085 10.9386 109.324 10.9386C108.562 10.9386 107.841 10.7984 107.16 10.5179C106.499 10.2174 105.918 9.82673 105.417 9.34591C104.936 8.84506 104.545 8.26407 104.245 7.60294C103.964 6.94182 103.824 6.23061 103.824 5.46931C103.824 4.72805 103.964 4.02685 104.245 3.36573C104.545 2.68457 104.936 2.10358 105.417 1.62276C105.918 1.12191 106.499 0.731245 107.16 0.450767C107.841 0.150256 108.562 0 109.324 0C110.085 0 110.796 0.150256 111.457 0.450767C112.138 0.731245 112.729 1.12191 113.23 1.62276C113.731 2.10358 114.122 2.68457 114.402 3.36573C114.703 4.02685 114.853 4.72805 114.853 5.46931ZM113.441 46.399H105.176V14.2142H113.441V46.399Z" fill="#32AAFF"/>
    <path d="M135.859 46.399C133.875 46.399 132.012 46.0283 130.269 45.2871C128.526 44.5258 126.994 43.494 125.671 42.1918C124.369 40.8696 123.337 39.337 122.576 37.594C121.835 35.851 121.464 33.9879 121.464 32.0045V22.4482H117.467V14.2743H121.464V1.4124H129.638V14.2743H142.079V22.4482H129.638V32.0045C129.638 32.8659 129.798 33.6773 130.119 34.4386C130.439 35.1799 130.88 35.831 131.441 36.3919C132.002 36.9529 132.663 37.4037 133.425 37.7442C134.186 38.0648 134.997 38.2251 135.859 38.2251H142.079V46.399H135.859Z" fill="#32AAFF"/>
    <path d="M159.509 38.5256C159.829 38.6257 160.15 38.6959 160.471 38.7359C160.791 38.756 161.112 38.766 161.432 38.766C162.234 38.766 163.005 38.6558 163.746 38.4354C164.487 38.215 165.179 37.9045 165.82 37.5038C166.481 37.0831 167.062 36.5823 167.563 36.0013C168.084 35.4003 168.504 34.7391 168.825 34.0179L174.835 40.0582C174.074 41.14 173.192 42.1117 172.191 42.9731C171.209 43.8346 170.137 44.5659 168.975 45.1669C167.833 45.7679 166.621 46.2187 165.339 46.5192C164.077 46.8397 162.775 47 161.432 47C159.168 47 157.035 46.5793 155.031 45.7379C153.048 44.8964 151.305 43.7244 149.802 42.2219C148.32 40.7193 147.148 38.9363 146.286 36.8728C145.425 34.7892 144.994 32.5053 144.994 30.0211C144.994 27.4768 145.425 25.1528 146.286 23.0492C147.148 20.9457 148.32 19.1526 149.802 17.6701C151.305 16.1876 153.048 15.0356 155.031 14.2142C157.035 13.3928 159.168 12.9821 161.432 12.9821C162.775 12.9821 164.087 13.1424 165.369 13.4629C166.651 13.7835 167.863 14.2442 169.005 14.8453C170.167 15.4463 171.249 16.1876 172.251 17.0691C173.252 17.9305 174.134 18.9022 174.895 19.984L159.509 38.5256ZM163.716 21.6068C163.335 21.4665 162.955 21.3764 162.574 21.3363C162.214 21.2962 161.833 21.2762 161.432 21.2762C160.31 21.2762 159.249 21.4866 158.247 21.9073C157.265 22.308 156.404 22.889 155.662 23.6503C154.941 24.4116 154.37 25.3331 153.949 26.415C153.529 27.4768 153.318 28.6788 153.318 30.0211C153.318 30.3216 153.328 30.6622 153.348 31.0428C153.389 31.4235 153.439 31.8142 153.499 32.2148C153.579 32.5955 153.669 32.9661 153.769 33.3267C153.869 33.6873 154 34.0079 154.16 34.2884L163.716 21.6068Z" fill="#32AAFF"/>
</svg>
