<svg width="41" height="33" viewBox="0 0 41 41" fill="none"
    xmlns="http://www.w3.org/2000/svg">
    <path d="M0.5 3.51221C0.5 1.85535 1.84315 0.512207 3.5 0.512207H37.5C39.1569 0.512207 40.5 1.85535 40.5 3.51221V37.5122C40.5 39.1691 39.1569 40.5122 37.5 40.5122H3.5C1.84315 40.5122 0.5 39.1691 0.5 37.5122V3.51221Z" fill="#32AAFF" />
    <path d="M16.5 11.5122V14.5122C16.5 15.0426 16.2893 15.5513 15.9142 15.9264C15.5391 16.3015 15.0304 16.5122 14.5 16.5122H11.5M29.5 16.5122H26.5C25.9696 16.5122 25.4609 16.3015 25.0858 15.9264C24.7107 15.5513 24.5 15.0426 24.5 14.5122V11.5122M24.5 29.5122V26.5122C24.5 25.9818 24.7107 25.4731 25.0858 25.098C25.4609 24.7229 25.9696 24.5122 26.5 24.5122H29.5M11.5 24.5122H14.5C15.0304 24.5122 15.5391 24.7229 15.9142 25.098C16.2893 25.4731 16.5 25.9818 16.5 26.5122V29.5122" stroke="white" stroke-width="2" stroke-linecap="round" stroke-linejoin="round" />
</svg>