<svg width="41" height="33" viewBox="0 0 41 41" fill="none"
    xmlns="http://www.w3.org/2000/svg">
    <path d="M29.5 24.5122V27.5122C29.5 28.0426 29.2893 28.5513 28.9142 28.9264C28.5391 29.3015 28.0304 29.5122 27.5 29.5122H24.5M16.5 29.5122H13.5C12.9696 29.5122 12.4609 29.3015 12.0858 28.9264C11.7107 28.5513 11.5 28.0426 11.5 27.5122V24.5122M11.5 16.5122V13.5122C11.5 12.9818 11.7107 12.4731 12.0858 12.098C12.4609 11.7229 12.9696 11.5122 13.5 11.5122H16.5M24.5 11.5122H27.5C28.0304 11.5122 28.5391 11.7229 28.9142 12.098C29.2893 12.4731 29.5 12.9818 29.5 13.5122V16.5122" stroke="#413D45" stroke-width="2" stroke-linecap="round" stroke-linejoin="round" />
</svg>