<svg width="16" height="14" viewBox="0 0 16 14" fill="none"
    xmlns="http://www.w3.org/2000/svg">
    <rect width="16" height="14" rx="2" fill="#71E05E"/>
    <path fill-rule="evenodd" clip-rule="evenodd" d="M7.69737 3C8.11158 3 8.44737 3.33579 8.44737 3.75V10.7867C8.44737 11.2009 8.11158 11.5367 7.69737 11.5367C7.28316 11.5367 6.94737 11.2009 6.94737 10.7867L6.94737 3.75C6.94737 3.33579 7.28315 3 7.69737 3ZM4.75 5.56114C5.16421 5.56114 5.5 5.89692 5.5 6.31114L5.5 8.79491C5.5 9.20912 5.16421 9.54491 4.75 9.54491C4.33579 9.54491 4 9.20912 4 8.79491V6.31114C4 5.89692 4.33579 5.56114 4.75 5.56114ZM11.3947 5.17259C11.3947 4.75838 11.059 4.42259 10.6447 4.42259C10.2305 4.42259 9.89474 4.75838 9.89474 5.17259L9.89474 9.64825C9.89474 10.0625 10.2305 10.3983 10.6447 10.3983C11.059 10.3983 11.3947 10.0625 11.3947 9.64825L11.3947 5.17259Z" fill="#FCFBF9"/>
</svg>
