<svg width="16" height="14" viewBox="0 0 16 14" fill="none"
    xmlns="http://www.w3.org/2000/svg">
    <rect width="16" height="14" rx="2" fill="#32AAFF"/>
    <rect width="8" height="8" transform="translate(4 3)" fill="#32AAFF"/>
    <path d="M6.40091 6.46758L4.70941 8.15908C4.42651 8.44198 4.26758 8.82567 4.26758 9.22575C4.26758 10.0589 4.94295 10.7342 5.77607 10.7342C6.17615 10.7342 6.55984 10.5753 6.84274 10.2924L8.53424 8.60091M9.60091 7.53425L11.2924 5.84274C11.5753 5.55984 11.7342 5.17615 11.7342 4.77607C11.7342 3.94295 11.0589 3.26758 10.2257 3.26758C9.82567 3.26758 9.44198 3.42651 9.15908 3.70941L7.46758 5.40091M6.40091 8.60091L9.60091 5.40091" stroke="#FCFBF9"/>
</svg>
