<svg width="16" height="24" viewBox="0 0 16 24" fill="none"
    xmlns="http://www.w3.org/2000/svg">
    <path fillRule="evenodd" clipRule="evenodd" d="M12.5798 0.098385C12.7205 0.179946 12.8294 0.306808 12.8887 0.458245C12.948 0.609682 12.9541 0.776743 12.9062 0.932135L10.3172 9.34439H15.094C15.2344 9.34433 15.3717 9.38538 15.4891 9.46248C15.6064 9.53957 15.6985 9.64933 15.7542 9.77821C15.8098 9.90709 15.8265 10.0494 15.8022 10.1877C15.7779 10.326 15.7136 10.4541 15.6173 10.5562L4.11729 22.7749C4.00601 22.8933 3.85794 22.9704 3.69721 22.9938C3.53648 23.0172 3.37256 22.9855 3.23217 22.9038C3.09179 22.8221 2.98322 22.6952 2.92415 22.5439C2.86508 22.3926 2.85901 22.2258 2.90691 22.0706L5.49585 13.6569H0.719037C0.578658 13.6569 0.441335 13.6159 0.32402 13.5388C0.206706 13.4617 0.114535 13.3519 0.0588865 13.2231C0.00323809 13.0942 -0.013452 12.9518 0.0108764 12.8136C0.0352047 12.6753 0.0994865 12.5472 0.195787 12.4451L11.6958 0.226323C11.8069 0.108159 11.9548 0.0310649 12.1153 0.00757604C12.2758 -0.0159128 12.4395 0.0155848 12.5798 0.0969475V0.098385Z" fill="#FF7E1D" />
</svg>