<svg width="12" height="12" viewBox="0 0 12 12" fill="none"
    xmlns="http://www.w3.org/2000/svg">
    <path fill-rule="evenodd" clip-rule="evenodd" d="M11.2071 2.20711C11.5976 1.81658 11.5976 1.18342 11.2071 0.792893C10.8166 0.402369 10.1834 0.402369 9.79289 0.792893L6 4.58579L2.2071 0.792893C1.81658 0.402369 1.18341 0.402369 0.792889 0.792893C0.402365 1.18342 0.402365 1.81658 0.792889 2.20711L4.58578 6L0.792889 9.79289C0.402365 10.1834 0.402365 10.8166 0.792889 11.2071C1.18341 11.5976 1.81658 11.5976 2.2071 11.2071L6 7.41421L9.79289 11.2071C10.1834 11.5976 10.8166 11.5976 11.2071 11.2071C11.5976 10.8166 11.5976 10.1834 11.2071 9.79289L7.41421 6L11.2071 2.20711Z" fill="#FCFBF9"/>
</svg>
