<svg width="16" height="17" viewBox="0 0 16 17" fill="none"
    xmlns="http://www.w3.org/2000/svg">
    <path d="M6.99701 1.72058C6.47048 1.72058 5.96551 1.92975 5.5932 2.30206C5.22088 2.67438 5.01172 3.17934 5.01172 3.70588V8.99999C5.01172 9.52653 5.22088 10.0315 5.5932 10.4038C5.96551 10.7761 6.47048 10.9853 6.99701 10.9853C7.52355 10.9853 8.02851 10.7761 8.40083 10.4038C8.77314 10.0315 8.98231 9.52653 8.98231 8.99999V3.70588C8.98231 3.17934 8.77314 2.67438 8.40083 2.30206C8.02851 1.92975 7.52355 1.72058 6.99701 1.72058V1.72058Z" stroke="#32AAFF" stroke-linecap="round" stroke-linejoin="round"/>
    <path d="M11.628 7.67645V8.99998C11.628 10.2286 11.1399 11.4068 10.2712 12.2756C9.40247 13.1443 8.22421 13.6323 6.99563 13.6323C5.76706 13.6323 4.5888 13.1443 3.72007 12.2756C2.85133 11.4068 2.36328 10.2286 2.36328 8.99998V7.67645" stroke="#32AAFF" stroke-linecap="round" stroke-linejoin="round"/>
    <path d="M6.99609 13.6323V16.2794" stroke="#32AAFF" stroke-linecap="round" stroke-linejoin="round"/>
    <path d="M4.35156 16.2794H9.64568" stroke="#32AAFF" stroke-linecap="round" stroke-linejoin="round"/>
    <path d="M0.820312 1.05881L14.938 15.1765" stroke="#32AAFF" stroke-linecap="round" stroke-linejoin="round"/>
</svg>
