<svg width="49" height="43" viewBox="0 0 49 43" fill="none" xmlns="http://www.w3.org/2000/svg">
<line x1="15" y1="8" x2="15" y2="27.5854" stroke="#413D45" stroke-width="2" stroke-linecap="round"/>
<line x1="10" y1="14.4756" x2="10" y2="22.5488" stroke="#413D45" stroke-width="2" stroke-linecap="round"/>
<line x1="30" y1="13.7559" x2="30" y2="23.2681" stroke="#413D45" stroke-width="2" stroke-linecap="round"/>
<line x1="20" y1="11.5972" x2="20" y2="24.7069" stroke="#413D45" stroke-width="2" stroke-linecap="round"/>
<line x1="35" y1="12" x2="35" y2="25" stroke="#413D45" stroke-width="2" stroke-linecap="round"/>
<line x1="25" y1="15.9146" x2="25" y2="20.3902" stroke="#413D45" stroke-width="2" stroke-linecap="round"/>
<line x1="40" y1="17" x2="40" y2="20" stroke="#413D45" stroke-width="2" stroke-linecap="round"/>
<path d="M12 32.6111C11.8775 32.6111 11.7593 32.6561 11.6678 32.7374L4.99655 38.6674C4.26788 39.3151 3.76285 39.7623 3.36841 40.0228C2.96394 40.2898 2.83989 40.2494 2.79517 40.2293C2.75046 40.2092 2.63781 40.1434 2.56868 39.6636C2.50127 39.1958 2.5 38.5212 2.5 37.5463L2.5 6.44444C2.5 5.41859 2.95795 4.42096 3.79665 3.67545C4.63727 2.92824 5.78876 2.5 7 2.5L42 2.5C43.2112 2.5 44.3627 2.92824 45.2034 3.67545C46.0421 4.42096 46.5 5.41859 46.5 6.44444V28.6667C46.5 29.6925 46.0421 30.6901 45.2034 31.4357C44.3627 32.1829 43.2112 32.6111 42 32.6111H12Z" stroke="#413D45" stroke-linecap="round" stroke-linejoin="round"/>
<path d="M2.2831 41.3696L2.59034 40.6854L2.2831 41.3696C2.95396 41.6708 3.58436 41.3781 4.05714 41.0659C4.53426 40.7509 5.10428 40.2442 5.78117 39.6424L5.827 39.6017L11.9299 34.1769C12.078 34.0452 12.1608 33.9722 12.2267 33.9215C12.2561 33.8989 12.2733 33.8877 12.2824 33.8823C12.2868 33.8797 12.2892 33.8784 12.2902 33.878L12.2913 33.8774L12.2926 33.8771C12.2936 33.8768 12.2963 33.8761 12.3012 33.8751C12.3117 33.8731 12.332 33.87 12.3689 33.8674C12.4519 33.8615 12.5623 33.8611 12.7604 33.8611H42C43.4983 33.8611 44.9505 33.3328 46.0338 32.3699C47.12 31.4045 47.75 30.0747 47.75 28.6667V6.44444C47.75 5.03638 47.12 3.70666 46.0338 2.74119C44.9505 1.77828 43.4983 1.25 42 1.25L7 1.25C5.50166 1.25 4.04947 1.77828 2.96619 2.74119C1.88004 3.70666 1.25 5.03638 1.25 6.44444L1.25 37.5463L1.25 37.6077C1.24996 38.5133 1.24992 39.276 1.33146 39.8419C1.41226 40.4026 1.61224 41.0683 2.2831 41.3696Z" stroke="#48BB35" stroke-width="1.5" stroke-linecap="round" stroke-linejoin="round"/>
</svg>
