<svg width="40" height="40" viewBox="0 0 40 40" fill="none"
    xmlns="http://www.w3.org/2000/svg">
    <mask id="path-1-outside-1" maskUnits="userSpaceOnUse" x="1.33337" y="3.83334" width="37" height="33" fill="black">
        <rect fill="white" x="1.33337" y="3.83334" width="37" height="33"/>
        <path d="M10.4422 28.5917C10.3506 28.5917 10.2621 28.6257 10.1936 28.6872L5.20154 33.1692C4.65628 33.6587 4.27836 33.9967 3.9832 34.1936C3.68054 34.3954 3.58771 34.3649 3.55425 34.3497C3.52079 34.3345 3.4365 34.2847 3.38477 33.9221C3.33432 33.5685 3.33337 33.0587 3.33337 32.3218V8.8146C3.33337 8.03925 3.67606 7.28522 4.30366 6.72176C4.93269 6.15701 5.79435 5.83334 6.70072 5.83334H32.8912C33.7975 5.83334 34.6592 6.15701 35.2883 6.72176C35.9159 7.28522 36.2585 8.03925 36.2585 8.8146V25.6105C36.2585 26.3858 35.9159 27.1398 35.2883 27.7033C34.6592 28.2681 33.7975 28.5917 32.8912 28.5917H10.4422Z"/>
    </mask>
    <path d="M10.4422 28.5917C10.3506 28.5917 10.2621 28.6257 10.1936 28.6872L5.20154 33.1692C4.65628 33.6587 4.27836 33.9967 3.9832 34.1936C3.68054 34.3954 3.58771 34.3649 3.55425 34.3497C3.52079 34.3345 3.4365 34.2847 3.38477 33.9221C3.33432 33.5685 3.33337 33.0587 3.33337 32.3218V8.8146C3.33337 8.03925 3.67606 7.28522 4.30366 6.72176C4.93269 6.15701 5.79435 5.83334 6.70072 5.83334H32.8912C33.7975 5.83334 34.6592 6.15701 35.2883 6.72176C35.9159 7.28522 36.2585 8.03925 36.2585 8.8146V25.6105C36.2585 26.3858 35.9159 27.1398 35.2883 27.7033C34.6592 28.2681 33.7975 28.5917 32.8912 28.5917H10.4422Z" fill="#FCFBF9"/>
    <path d="M10.1936 28.6872L8.8578 27.1987L8.8575 27.199L10.1936 28.6872ZM5.20154 33.1692L6.53767 34.6574L6.53767 34.6574L5.20154 33.1692ZM3.9832 34.1936L5.0927 35.8576L5.09306 35.8574L3.9832 34.1936ZM3.55425 34.3497L2.72735 36.1707L2.7275 36.1708L3.55425 34.3497ZM3.38477 33.9221L5.36472 33.6397L5.36472 33.6396L3.38477 33.9221ZM4.30366 6.72176L2.96753 5.23355L2.96753 5.23355L4.30366 6.72176ZM35.2883 6.72176L36.6244 5.23355L36.6244 5.23348L35.2883 6.72176ZM35.2883 27.7033L36.6243 29.1916L36.6245 29.1915L35.2883 27.7033ZM10.4422 26.5917C9.8544 26.5917 9.29099 26.81 8.8578 27.1987L11.5295 30.1757C11.2332 30.4415 10.8467 30.5917 10.4422 30.5917V26.5917ZM8.8575 27.199L3.86541 31.681L6.53767 34.6574L11.5298 30.1754L8.8575 27.199ZM3.86542 31.681C3.26854 32.2168 3.01902 32.4326 2.87335 32.5298L5.09306 35.8574C5.53771 35.5608 6.04401 35.1006 6.53767 34.6574L3.86542 31.681ZM2.87371 32.5296C2.81227 32.5705 2.93891 32.4713 3.19992 32.4085C3.34691 32.3731 3.55174 32.3456 3.79531 32.3704C4.05953 32.3972 4.26358 32.4752 4.381 32.5286L2.7275 36.1708C3.1334 36.3551 3.61981 36.4216 4.13563 36.2975C4.52709 36.2033 4.85147 36.0185 5.0927 35.8576L2.87371 32.5296ZM4.38115 32.5286C4.49797 32.5817 4.68942 32.6831 4.88227 32.8623C5.05956 33.027 5.17272 33.1965 5.24226 33.3273C5.36577 33.5595 5.37552 33.7153 5.36472 33.6397L1.40481 34.2045C1.44575 34.4915 1.52351 34.8535 1.71046 35.2051C1.95652 35.6679 2.3231 35.9872 2.72735 36.1707L4.38115 32.5286ZM5.36472 33.6396C5.33937 33.4619 5.33337 33.1272 5.33337 32.3218H1.33337C1.33337 32.9902 1.32928 33.6751 1.40482 34.2046L5.36472 33.6396ZM5.33337 32.3218V8.8146H1.33337V32.3218H5.33337ZM5.33337 8.8146C5.33337 8.64314 5.40709 8.41888 5.63979 8.20996L2.96753 5.23355C1.94502 6.15157 1.33337 7.43536 1.33337 8.8146H5.33337ZM5.63978 8.20997C5.88143 7.99301 6.25954 7.83334 6.70072 7.83334V3.83334C5.32917 3.83334 3.98395 4.321 2.96753 5.23355L5.63978 8.20997ZM6.70072 7.83334H32.8912V3.83334H6.70072V7.83334ZM32.8912 7.83334C33.3323 7.83334 33.7105 7.993 33.9522 8.21003L36.6244 5.23348C35.6079 4.32101 34.2628 3.83334 32.8912 3.83334V7.83334ZM33.9522 8.20996C34.1848 8.41884 34.2585 8.64308 34.2585 8.8146H38.2585C38.2585 7.43542 37.647 6.15161 36.6244 5.23355L33.9522 8.20996ZM34.2585 8.8146V25.6105H38.2585V8.8146H34.2585ZM34.2585 25.6105C34.2585 25.7819 34.1849 26.0062 33.9521 26.2152L36.6245 29.1915C37.6469 28.2734 38.2585 26.9897 38.2585 25.6105H34.2585ZM33.9523 26.2151C33.7105 26.4321 33.3324 26.5917 32.8912 26.5917V30.5917C34.2627 30.5917 35.6079 30.1041 36.6243 29.1916L33.9523 26.2151ZM32.8912 26.5917H10.4422V30.5917H32.8912V26.5917Z" fill="#413D45" mask="url(#path-1-outside-1)"/>
    <path d="M12.6873 9.99029V24.7932M8.9458 14.8846V20.9865M23.9118 14.3407V21.5301M16.4288 12.7091V22.6176M27.6533 13.0135V22.8391M20.1703 15.9723V19.355M31.3948 16.7926V19.0601" stroke="#413D45" stroke-width="1.5" stroke-linecap="round"/>
</svg>
