<svg width="41" height="33" viewBox="0 0 41 41" fill="none"
    xmlns="http://www.w3.org/2000/svg">
    <path d="M18.5 21.5122C18.9295 22.0864 19.4774 22.5614 20.1066 22.9052C20.7357 23.2489 21.4315 23.4534 22.1467 23.5046C22.8618 23.5558 23.5796 23.4526 24.2513 23.202C24.9231 22.9514 25.5331 22.5593 26.04 22.0522L29.04 19.0522C29.9508 18.1092 30.4548 16.8462 30.4434 15.5352C30.432 14.2242 29.9061 12.9702 28.9791 12.0431C28.0521 11.1161 26.798 10.5903 25.487 10.5789C24.176 10.5675 22.913 11.0714 21.97 11.9822L20.25 13.6922" stroke="#413D45" stroke-width="2" stroke-linecap="round" stroke-linejoin="round" />
    <path d="M22.5 19.5122C22.0705 18.9381 21.5226 18.463 20.8934 18.1192C20.2642 17.7755 19.5684 17.5711 18.8533 17.5199C18.1382 17.4686 17.4204 17.5718 16.7486 17.8224C16.0769 18.073 15.4668 18.4651 14.96 18.9722L11.96 21.9722C11.0492 22.9152 10.5452 24.1782 10.5566 25.4892C10.568 26.8002 11.0938 28.0542 12.0209 28.9813C12.9479 29.9083 14.202 30.4342 15.5129 30.4456C16.8239 30.457 18.0869 29.953 19.03 29.0422L20.74 27.3322" stroke="#413D45" stroke-width="2" stroke-linecap="round" stroke-linejoin="round" />
</svg>