<svg width="40" height="41" viewBox="0 0 40 41" fill="none"
    xmlns="http://www.w3.org/2000/svg">
    <path d="M15.5796 13.9122H20.7276C22.1316 13.9122 23.1516 14.2302 23.7876 14.8662C24.4356 15.5022 24.7596 16.3062 24.7596 17.2782C24.7596 18.4782 24.2196 19.3422 23.1396 19.8702C23.8356 20.1222 24.3516 20.5182 24.6876 21.0582C25.0356 21.5862 25.2096 22.1622 25.2096 22.7862C25.2096 23.7942 24.8616 24.6702 24.1656 25.4142C23.4816 26.1462 22.4256 26.5122 20.9976 26.5122H15.5796V13.9122ZM20.4396 18.9882C21.1356 18.9882 21.6636 18.8502 22.0236 18.5742C22.3956 18.2982 22.5816 17.9202 22.5816 17.4402C22.5816 16.4202 21.9816 15.9102 20.7816 15.9102H17.7396V18.9882H20.4396ZM21.1236 24.5142C21.7956 24.5142 22.2756 24.3522 22.5636 24.0282C22.8636 23.6922 23.0136 23.2962 23.0136 22.8402C23.0136 21.6042 22.2096 20.9862 20.6016 20.9862H17.7396V24.5142H21.1236Z" fill="#413D45" />
</svg>