<svg width="99" height="41" viewBox="0 0 99 41" fill="none"
    xmlns="http://www.w3.org/2000/svg">
    <path d="M9.37658 26.5122V20.8962H3.63458V26.5122H1.76258V13.9122H3.63458V19.1322H9.37658V13.9122H11.2486V26.5122H9.37658ZM17.9451 26.7282C16.6611 26.7282 15.6411 26.3022 14.8851 25.4502C14.1411 24.5862 13.7691 23.4042 13.7691 21.9042C13.7691 20.4042 14.1471 19.2282 14.9031 18.3762C15.6591 17.5242 16.6731 17.0982 17.9451 17.0982C19.0971 17.0982 20.0451 17.4642 20.7891 18.1962C21.5331 18.9282 21.9051 19.9962 21.9051 21.4002C21.9051 21.9162 21.8811 22.3182 21.8331 22.6062H15.6411C15.6531 23.3382 15.8871 23.9322 16.3431 24.3882C16.8111 24.8442 17.3511 25.0722 17.9631 25.0722C18.7551 25.0722 19.3911 24.7602 19.8711 24.1362L21.0951 25.3962C20.3511 26.2842 19.3011 26.7282 17.9451 26.7282ZM15.6411 21.0942H20.0331C20.0211 20.3022 19.8111 19.7142 19.4031 19.3302C18.9951 18.9462 18.5091 18.7542 17.9451 18.7542C17.3091 18.7542 16.7751 18.9462 16.3431 19.3302C15.9231 19.7022 15.6891 20.2902 15.6411 21.0942ZM29.3189 26.5122V25.7202C28.6709 26.3922 27.8309 26.7282 26.7989 26.7282C25.8269 26.7282 25.0349 26.4642 24.4229 25.9362C23.8229 25.3962 23.5229 24.6342 23.5229 23.6502C23.5229 22.6542 23.8649 21.8982 24.5489 21.3822C25.2329 20.8662 26.0669 20.6082 27.0509 20.6082C27.9509 20.6082 28.7069 20.7882 29.3189 21.1482V20.6442C29.3189 19.9602 29.1629 19.4742 28.8509 19.1862C28.5389 18.8982 28.0409 18.7542 27.3569 18.7542C26.3489 18.7542 25.4729 19.0302 24.7289 19.5822L24.1709 18.0522C25.0949 17.4162 26.2409 17.0982 27.6089 17.0982C28.0649 17.0982 28.4729 17.1402 28.8329 17.2242C29.1929 17.2962 29.5589 17.4462 29.9309 17.6742C30.3029 17.8902 30.5909 18.2442 30.7949 18.7362C31.0109 19.2282 31.1189 19.8342 31.1189 20.5542V26.5122H29.3189ZM27.1409 25.0722C28.0049 25.0722 28.7309 24.7422 29.3189 24.0822V22.6782C28.7549 22.3782 28.1009 22.2282 27.3569 22.2282C26.7569 22.2282 26.2649 22.3482 25.8809 22.5882C25.5089 22.8162 25.3229 23.1702 25.3229 23.6502C25.3229 24.0942 25.4789 24.4422 25.7909 24.6942C26.1029 24.9462 26.5529 25.0722 27.1409 25.0722ZM37.009 26.7282C35.845 26.7282 34.915 26.3022 34.219 25.4502C33.535 24.5862 33.193 23.4042 33.193 21.9042C33.193 20.4162 33.541 19.2462 34.237 18.3942C34.945 17.5302 35.869 17.0982 37.009 17.0982C37.909 17.0982 38.635 17.3862 39.187 17.9622V14.3802L41.059 13.5162V26.5122H39.187V25.8642C38.671 26.4402 37.945 26.7282 37.009 26.7282ZM37.279 24.9642C38.119 24.9642 38.755 24.6162 39.187 23.9202V19.8702C39.019 19.5942 38.767 19.3602 38.431 19.1682C38.107 18.9642 37.723 18.8622 37.279 18.8622C36.571 18.8622 36.025 19.1262 35.641 19.6542C35.257 20.1822 35.065 20.9322 35.065 21.9042C35.065 22.8162 35.263 23.5542 35.659 24.1182C36.055 24.6822 36.595 24.9642 37.279 24.9642ZM45.4964 15.5502C45.2804 15.7662 45.0164 15.8742 44.7044 15.8742C44.3924 15.8742 44.1224 15.7662 43.8944 15.5502C43.6784 15.3222 43.5704 15.0522 43.5704 14.7402C43.5704 14.4282 43.6784 14.1642 43.8944 13.9482C44.1224 13.7202 44.3924 13.6062 44.7044 13.6062C45.0164 13.6062 45.2804 13.7202 45.4964 13.9482C45.7244 14.1642 45.8384 14.4282 45.8384 14.7402C45.8384 15.0522 45.7244 15.3222 45.4964 15.5502ZM43.7684 26.5122V17.3142H45.6404V26.5122H43.7684ZM54.0439 26.5122V21.0222C54.0439 20.2902 53.8759 19.7502 53.5399 19.4022C53.2039 19.0422 52.7599 18.8622 52.2079 18.8622C50.8879 18.8622 50.2279 19.5702 50.2279 20.9862V26.5122H48.3559V17.3142H50.2279V18.1962C50.8039 17.4642 51.5959 17.0982 52.6039 17.0982C54.8119 17.0982 55.9159 18.4062 55.9159 21.0222V26.5122H54.0439ZM61.6116 30.1122L60.6756 28.6722C61.9476 28.6002 62.8296 28.3842 63.3216 28.0242C63.8256 27.6762 64.0776 27.1962 64.0776 26.5842V25.7742C63.5616 26.4102 62.8236 26.7282 61.8636 26.7282C60.7596 26.7282 59.8536 26.3142 59.1456 25.4862C58.4376 24.6462 58.0836 23.4522 58.0836 21.9042C58.0836 20.4162 58.4316 19.2462 59.1276 18.3942C59.8356 17.5302 60.7596 17.0982 61.8996 17.0982C62.7996 17.0982 63.5256 17.3862 64.0776 17.9622V17.3142H65.9496V25.9182C65.9496 27.3342 65.5956 28.3602 64.8876 28.9962C64.1796 29.6322 63.0876 30.0042 61.6116 30.1122ZM62.2056 24.9642C63.0216 24.9642 63.6456 24.6042 64.0776 23.8842V19.9062C63.8856 19.5942 63.6156 19.3422 63.2676 19.1502C62.9316 18.9582 62.5776 18.8622 62.2056 18.8622C61.4736 18.8622 60.9156 19.1262 60.5316 19.6542C60.1476 20.1702 59.9556 20.9202 59.9556 21.9042C59.9556 22.8402 60.1536 23.5842 60.5496 24.1362C60.9576 24.6882 61.5096 24.9642 62.2056 24.9642ZM74.2972 26.5122V16.7382H72.2272V15.3522C73.5832 15.3522 74.4172 14.8722 74.7292 13.9122H76.1692V26.5122H74.2972Z" fill="#413D45" />
                    <!-- {/*    <path d="M87 18.5122L91 22.5122L95 18.5122" stroke="#413D45" stroke-width="1.5" stroke-linecap="round" stroke-linejoin="round" />
 */} -->
</svg>