<svg width="60" height="60" viewBox="0 0 60 60" fill="none" xmlns="http://www.w3.org/2000/svg">
<rect x="1" y="1" width="58" height="58" rx="5" fill="#FCFBF9"/>
<rect x="6" y="7.5" width="24" height="21" rx="2" fill="#FB7BBB"/>
<path d="M22.375 12.375H13.625C12.9346 12.375 12.375 12.9346 12.375 13.625V22.375C12.375 23.0654 12.9346 23.625 13.625 23.625H22.375C23.0654 23.625 23.625 23.0654 23.625 22.375V13.625C23.625 12.9346 23.0654 12.375 22.375 12.375Z" stroke="#FCFBF9" stroke-linecap="round" stroke-linejoin="round"/>
<path d="M15.8124 16.75C16.3301 16.75 16.7499 16.3303 16.7499 15.8125C16.7499 15.2947 16.3301 14.875 15.8124 14.875C15.2946 14.875 14.8749 15.2947 14.8749 15.8125C14.8749 16.3303 15.2946 16.75 15.8124 16.75Z" stroke="#FCFBF9" stroke-linecap="round" stroke-linejoin="round"/>
<path d="M23.6251 19.875L20.5001 16.75L13.6251 23.625" stroke="#FCFBF9" stroke-linecap="round" stroke-linejoin="round"/>
<rect x="30" y="30.5" width="24" height="21" rx="2" fill="#DFDCDC"/>
<path d="M46.375 35.375H37.625C36.9346 35.375 36.375 35.9346 36.375 36.625V45.375C36.375 46.0654 36.9346 46.625 37.625 46.625H46.375C47.0654 46.625 47.625 46.0654 47.625 45.375V36.625C47.625 35.9346 47.0654 35.375 46.375 35.375Z" stroke="#FCFBF9" stroke-linecap="round" stroke-linejoin="round"/>
<path d="M39.8124 39.75C40.3301 39.75 40.7499 39.3303 40.7499 38.8125C40.7499 38.2947 40.3301 37.875 39.8124 37.875C39.2946 37.875 38.8749 38.2947 38.8749 38.8125C38.8749 39.3303 39.2946 39.75 39.8124 39.75Z" stroke="#FCFBF9" stroke-linecap="round" stroke-linejoin="round"/>
<path d="M47.6251 42.875L44.5001 39.75L37.6251 46.625" stroke="#FCFBF9" stroke-linecap="round" stroke-linejoin="round"/>
<path d="M23.375 37.25L26.5 40.375L23.375 43.5" stroke="#48BB35" stroke-width="1.5" stroke-linecap="round" stroke-linejoin="round"/>
<path d="M16.5 33.5V37.875C16.5 38.538 16.7634 39.1739 17.2322 39.6428C17.7011 40.1116 18.337 40.375 19 40.375H26.5" stroke="#48BB35" stroke-width="1.5" stroke-linecap="round" stroke-linejoin="round"/>
<rect x="1" y="1" width="58" height="58" rx="5" stroke="#A29FA5" stroke-width="2"/>
</svg>
