<svg width="60" height="60" viewBox="0 0 60 60" fill="none" xmlns="http://www.w3.org/2000/svg">
<rect x="1" y="1" width="58" height="58" rx="5" fill="#FCFBF9"/>
<path d="M11.8754 27C10.7875 27 9.86969 26.6081 9.12181 25.8244C8.37394 25.0051 8 23.8473 8 22.3511C8 20.3919 8.47592 18.5929 9.42776 16.9542C10.3796 15.2799 11.6034 13.9618 13.0992 13L14.5779 13.8015C13.966 14.3715 13.3541 15.1908 12.7422 16.2595C12.1303 17.3282 11.7904 18.4682 11.7224 19.6794C12.7422 19.7506 13.5921 20.1069 14.272 20.7481C14.9518 21.3893 15.2918 22.2087 15.2918 23.2061C15.2918 24.3461 14.9518 25.2723 14.272 25.9847C13.6261 26.6616 12.8272 27 11.8754 27ZM22.5326 27C21.4788 27 20.5779 26.6081 19.83 25.8244C19.0822 25.0051 18.7082 23.8473 18.7082 22.3511C18.7082 20.3919 19.1671 18.5929 20.085 16.9542C21.0368 15.2799 22.2606 13.9618 23.7564 13L25.2351 13.8015C23.5014 15.4402 22.5666 17.3995 22.4306 19.6794C23.4164 19.7506 24.2493 20.1069 24.9292 20.7481C25.6431 21.3893 26 22.2087 26 23.2061C26 24.3461 25.6601 25.2723 24.9802 25.9847C24.3003 26.6616 23.4844 27 22.5326 27Z" fill="#32AAFF"/>
<path d="M48.1246 33C49.2125 33 50.1303 33.3639 50.8782 34.0916C51.6261 34.8524 52 35.9275 52 37.3168C52 39.1361 51.5241 40.8066 50.5722 42.3282C49.6204 43.883 48.3966 45.1069 46.9008 46L45.4221 45.2557C46.034 44.7265 46.6459 43.9657 47.2578 42.9733C47.8697 41.9809 48.2096 40.9224 48.2776 39.7977C47.2578 39.7316 46.4079 39.4008 45.728 38.8053C45.0482 38.2099 44.7082 37.4491 44.7082 36.5229C44.7082 35.4644 45.0482 34.6043 45.728 33.9427C46.3739 33.3142 47.1728 33 48.1246 33ZM37.4674 33C38.5212 33 39.4221 33.3639 40.17 34.0916C40.9178 34.8524 41.2918 35.9275 41.2918 37.3168C41.2918 39.1361 40.8329 40.8066 39.915 42.3282C38.9632 43.883 37.7394 45.1069 36.2436 46L34.7649 45.2557C36.4986 43.7341 37.4334 41.9148 37.5694 39.7977C36.5836 39.7316 35.7507 39.4008 35.0708 38.8053C34.3569 38.2099 34 37.4491 34 36.5229C34 35.4644 34.3399 34.6043 35.0198 33.9427C35.6997 33.3142 36.5156 33 37.4674 33Z" fill="#32AAFF"/>
<rect x="1" y="1" width="58" height="58" rx="5" stroke="#32AAFF" stroke-width="2"/>
</svg>
