<svg width="60" height="60" viewBox="0 0 60 60" fill="none" xmlns="http://www.w3.org/2000/svg">
<rect x="1" y="1" width="58" height="58" rx="5" fill="#FCFBF9"/>
<path d="M15.5417 8.08334H8.25008C7.69755 8.08334 7.16764 8.30284 6.77694 8.69354C6.38624 9.08424 6.16675 9.61414 6.16675 10.1667V26.8333C6.16675 27.3859 6.38624 27.9158 6.77694 28.3065C7.16764 28.6972 7.69755 28.9167 8.25008 28.9167H20.7501C21.3026 28.9167 21.8325 28.6972 22.2232 28.3065C22.6139 27.9158 22.8334 27.3859 22.8334 26.8333V15.375L15.5417 8.08334Z" fill="#FCFBF9" stroke="#A29FA5" stroke-linecap="round" stroke-linejoin="round"/>
<path d="M15.5417 8.08334V15.375H22.8334" stroke="#A29FA5" stroke-linecap="round" stroke-linejoin="round"/>
<path d="M40.5834 19.1667H29.5001C28.6602 19.1667 27.8548 19.5003 27.2609 20.0942C26.6671 20.688 26.3334 21.4935 26.3334 22.3333V47.6667C26.3334 48.5065 26.6671 49.312 27.2609 49.9059C27.8548 50.4997 28.6602 50.8333 29.5001 50.8333H48.5001C49.34 50.8333 50.1454 50.4997 50.7393 49.9059C51.3331 49.312 51.6668 48.5065 51.6668 47.6667V30.25L40.5834 19.1667Z" fill="#FCFBF9" stroke="#A29FA5" stroke-linecap="round" stroke-linejoin="round"/>
<path d="M40.5834 19.1667V30.25H51.6668" stroke="#A29FA5" stroke-linecap="round" stroke-linejoin="round"/>
<path d="M34.0455 43.3566C33.5515 43.3566 33.162 43.1793 32.877 42.8246V44.6961L31.889 45.1521V38.3881H32.877V38.7776C33.181 38.442 33.5705 38.2741 34.0455 38.2741C34.6598 38.2741 35.1443 38.5021 35.499 38.9581C35.86 39.4078 36.0405 40.0285 36.0405 40.8201C36.0405 41.6055 35.8568 42.2261 35.4895 42.6821C35.1285 43.1318 34.6471 43.3566 34.0455 43.3566ZM33.903 42.4256C34.2766 42.4256 34.5616 42.2895 34.758 42.0171C34.9543 41.7385 35.0525 41.3395 35.0525 40.8201C35.0525 40.3388 34.9511 39.9493 34.7485 39.6516C34.5458 39.354 34.264 39.2051 33.903 39.2051C33.447 39.2051 33.105 39.3888 32.877 39.7561V41.8651C33.1556 42.2388 33.4976 42.4256 33.903 42.4256Z" fill="#FB7BBB"/>
<path d="M38.9999 43.3566C38.3856 43.3566 37.8948 43.1318 37.5274 42.6821C37.1664 42.2261 36.9859 41.6023 36.9859 40.8106C36.9859 40.0253 37.1696 39.4078 37.5369 38.9581C37.9106 38.5021 38.3983 38.2741 38.9999 38.2741C39.4749 38.2741 39.8581 38.4261 40.1495 38.7301V36.8396L41.1374 36.3836V43.2426H40.1495V42.9006C39.8771 43.2046 39.4939 43.3566 38.9999 43.3566ZM39.1424 42.4256C39.5858 42.4256 39.9214 42.242 40.1495 41.8746V39.7371C40.0608 39.5915 39.9278 39.468 39.7505 39.3666C39.5795 39.259 39.3768 39.2051 39.1424 39.2051C38.7688 39.2051 38.4806 39.3445 38.2779 39.6231C38.0753 39.9018 37.9739 40.2976 37.9739 40.8106C37.9739 41.292 38.0784 41.6815 38.2874 41.9791C38.4964 42.2768 38.7814 42.4256 39.1424 42.4256Z" fill="#FB7BBB"/>
<path d="M43.8879 39.2431V43.2426H42.8999V39.2431H42.1779V38.3881H42.8999V37.6091C42.8999 37.1975 43.0044 36.9061 43.2134 36.7351C43.4224 36.5641 43.6884 36.4786 44.0114 36.4786C44.3534 36.4786 44.6764 36.5546 44.9804 36.7066V37.5236C44.7081 37.4096 44.4769 37.3526 44.2869 37.3526C44.0209 37.3526 43.8879 37.4983 43.8879 37.7896V38.3881H44.9804V39.2431H43.8879Z" fill="#FB7BBB"/>
<path d="M19.375 35.25L22.5 38.375L19.375 41.5" stroke="#48BB35" stroke-width="1.5" stroke-linecap="round" stroke-linejoin="round"/>
<path d="M12.5 31.5V35.875C12.5 36.538 12.7634 37.1739 13.2322 37.6428C13.7011 38.1116 14.337 38.375 15 38.375H22.5" stroke="#48BB35" stroke-width="1.5" stroke-linecap="round" stroke-linejoin="round"/>
<rect x="1" y="1" width="58" height="58" rx="5" stroke="#FB7BBB" stroke-width="2"/>
</svg>
