<svg width="60" height="60" viewBox="0 0 60 60" fill="none" xmlns="http://www.w3.org/2000/svg">
<rect x="1" y="1" width="58" height="58" rx="5" fill="#FCFBF9"/>
<rect x="6" y="9.5" width="24" height="21" rx="2" fill="#FC611E"/>
<path d="M21.8675 19.5827C22.167 19.7803 22.167 20.2197 21.8675 20.4173L15.4004 24.6845C15.0679 24.9039 14.625 24.6655 14.625 24.2672V15.7328C14.625 15.3345 15.0679 15.0961 15.4004 15.3155L21.8675 19.5827Z" fill="white"/>
<line x1="32.5" y1="35.5" x2="53.5" y2="35.5" stroke="#FFCE00" stroke-linecap="round"/>
<line x1="32.5" y1="39.5" x2="53.5" y2="39.5" stroke="#FFCE00" stroke-linecap="round"/>
<line x1="32.5" y1="43.5" x2="53.5" y2="43.5" stroke="#FFCE00" stroke-linecap="round"/>
<line x1="32.5" y1="47.5" x2="53.5" y2="47.5" stroke="#FFCE00" stroke-linecap="round"/>
<line x1="32.5" y1="51.5" x2="53.5" y2="51.5" stroke="#FFCE00" stroke-linecap="round"/>
<rect x="1" y="1" width="58" height="58" rx="5" stroke="#FC611E" stroke-width="2"/>
</svg>
