<svg width="60" height="60" viewBox="0 0 60 60" fill="none" xmlns="http://www.w3.org/2000/svg">
<rect x="1" y="1" width="58" height="58" rx="5" fill="#FCFBF9"/>
<path d="M16.4998 22.8333L11.2138 28.1193C10.3298 29.0034 9.83313 30.2024 9.83313 31.4526C9.83313 34.0561 11.9437 36.1667 14.5472 36.1667C15.7974 36.1667 16.9965 35.67 17.8805 34.786L23.1665 29.5M26.4998 26.1667L31.7857 20.8807C32.6698 19.9967 33.1665 18.7976 33.1665 17.5474C33.1665 14.9439 31.0559 12.8333 28.4524 12.8333C27.2022 12.8333 26.0031 13.33 25.1191 14.2141L19.8331 19.5M16.4998 29.5L26.4998 19.5" stroke="#32AAFF" stroke-width="2"/>
<line x1="18" y1="27" x2="49" y2="27" stroke="#FFCE00" stroke-width="2" stroke-linecap="round"/>
<line x1="18" y1="32" x2="49" y2="32" stroke="#FFCE00" stroke-width="2" stroke-linecap="round"/>
<line x1="18" y1="37" x2="49" y2="37" stroke="#FFCE00" stroke-width="2" stroke-linecap="round"/>
<line x1="18" y1="42" x2="49" y2="42" stroke="#FFCE00" stroke-width="2" stroke-linecap="round"/>
<line x1="18" y1="47" x2="49" y2="47" stroke="#FFCE00" stroke-width="2" stroke-linecap="round"/>
<rect x="1" y="1" width="58" height="58" rx="5" stroke="#32AAFF" stroke-width="2"/>
</svg>
