<svg width="782" height="1022" viewBox="0 0 782 1022" fill="none"
    xmlns="http://www.w3.org/2000/svg">
    <path opacity="0.5" d="M58 58.9764C72.069 58.6392 81.0074 67.5839 86.8544 76.9891" stroke="url(#paint0_linear)" stroke-width="2" stroke-linecap="round"/>
    <path opacity="0.5" d="M107.388 60.1014C98.6222 64.744 90.1691 61.9179 83.5204 57.828" stroke="url(#paint1_linear)" stroke-width="2" stroke-linecap="round"/>
    <path opacity="0.5" fill-rule="evenodd" clip-rule="evenodd" d="M128.693 21.2484C129.158 20.7872 129.948 20.9988 130.12 21.6309L133.967 35.7352C134.081 36.1517 133.871 36.5462 133.534 36.7215L123.225 46.9384C122.76 47.3995 121.97 47.1879 121.798 46.5559L117.951 32.4515C117.837 32.035 118.047 31.6406 118.384 31.4652L128.693 21.2484ZM104.28 66.8909C103.752 67.0512 103.193 66.7526 103.033 66.2241C102.873 65.6956 103.171 65.1372 103.7 64.977C111.033 62.7534 118.332 58.4704 120.546 49.3393C120.676 48.8026 121.217 48.473 121.753 48.6031C122.29 48.7332 122.62 49.2738 122.49 49.8105C120.029 59.9598 111.887 64.5843 104.28 66.8909Z" fill="url(#paint2_linear)"/>
    <path d="M686 383L687.769 382.516C693.587 380.924 699.813 382.044 704.712 385.562L708.95 388.605C709.282 388.843 709.726 388.856 710.071 388.636L715.694 385.046C720.703 381.849 726.874 381.045 732.535 382.852L733 383" stroke="#FB7BBB" stroke-width="2" stroke-linecap="round"/>
    <path d="M598 281V281C603.32 279.151 609.225 280.364 613.386 284.159L615.864 286.42C616.23 286.754 616.784 286.77 617.168 286.458L621.398 283.029C625.224 279.926 630.435 279.149 635 281V281" stroke="#48BB35" stroke-width="2" stroke-linecap="round"/>
    <path opacity="0.1" d="M838.193 741.142L794.671 816.145C735.05 918.891 606.262 958.243 499.396 906.369V906.369C328.221 823.279 136.965 975.154 179.114 1160.7L213.752 1313.18" stroke="url(#paint3_linear)" stroke-width="50" stroke-linecap="round"/>
    <g opacity="0.2">
        <path d="M73.6112 13.0687C71.9567 13.0692 70.3025 13.0697 68.6479 13.0701C47.8576 13.0766 27.067 13.0831 6.27705 13.1934C5.27666 13.1987 4.27658 13.2042 3.27619 13.2099C2.776 13.2127 2.27581 13.2156 1.77562 13.2185C1.34052 13.221 0.869179 13.3036 0.439851 13.2054C0.189682 13.1481 -0.0590099 12.9144 0.0124461 12.6679C0.043218 12.5615 0.12651 12.4795 0.212169 12.4096C1.03754 11.7347 2.23749 11.7895 3.2722 12.0467C4.00155 11.6849 4.83698 11.5407 5.64534 11.6369C5.77952 11.6528 5.92716 11.6724 6.03975 11.5975C6.1186 11.5451 6.16372 11.4562 6.20618 11.3716C6.6509 10.4856 7.20449 9.61539 8.02794 9.06312C8.85109 8.51071 9.99793 8.3456 10.8301 8.88441C10.9826 8.46336 11.4593 8.25107 11.9037 8.19603C12.983 8.06259 14.027 8.57832 14.978 9.10544C16.0161 9.68093 17.0635 10.3125 17.7801 11.2586C17.8295 11.3235 17.884 11.3948 17.9636 11.4132C18.0361 11.4299 18.11 11.3982 18.1782 11.3685C18.8398 11.0803 19.5542 10.9139 20.2752 10.8803C20.3302 10.8775 20.4425 10.4095 20.4719 10.3507C20.5662 10.1611 20.7002 9.99146 20.8595 9.8524C21.168 9.58329 21.5816 9.42514 21.9931 9.47751C21.8348 8.56279 22.6884 7.61728 23.6145 7.68164C23.2979 7.23574 23.6919 6.59737 24.1153 6.3867C24.3368 6.27649 24.5659 6.14837 24.7938 6.05295C24.8584 6.02587 25.6244 5.8365 25.6241 5.92837C25.6261 5.28438 26.0462 4.70948 26.5455 4.30294C26.8497 4.05528 27.2042 3.84609 27.5949 3.81044C27.9855 3.77493 28.4137 3.94981 28.5852 4.30265C29.5144 3.40375 30.9246 3.03463 32.1752 3.36277C32.5298 3.45582 32.9075 3.63779 33.0288 3.98397C33.3083 3.6869 33.8083 3.79061 34.1585 3.99966C34.4669 4.18384 34.7582 4.47736 34.757 4.83656C34.7563 5.11085 34.5851 5.35318 34.4051 5.56015C33.8506 6.19793 33.139 6.69797 32.3512 7.00392C33.0752 7.08957 33.5951 7.94423 33.3386 8.62669C33.6848 8.52624 34.0557 8.45671 34.4033 8.55154C34.7511 8.64666 35.0645 8.94787 35.0676 9.30826C35.3568 8.61737 35.9119 8.04173 36.5917 7.72765C36.8271 7.61906 37.1223 7.54671 37.3312 7.70013C37.5752 7.22657 37.8832 6.77076 38.3173 6.46171C38.6629 6.21554 39.1037 6.06966 39.53 6.12292C39.5909 6.13046 39.7789 6.20946 39.8275 6.18727C39.8862 6.1602 39.9578 5.96595 39.9775 5.90529C40.0279 5.74848 40.0205 5.59876 40.092 5.44431C40.2556 5.09147 40.5539 4.78656 40.8805 4.58151C40.9557 4.53432 41.9281 4.155 41.9291 4.27158C41.9225 3.45242 42.818 2.75887 43.6093 2.97013C43.7262 2.20971 44.6499 1.85583 45.2927 2.17953C45.1421 1.62963 45.5201 1.17027 45.9386 0.845685C46.5427 0.377152 47.2734 0.0546315 48.0365 0.00610653C48.7993 -0.0425664 49.5919 0.199912 50.1457 0.726882C50.6203 0.310721 51.2586 0.0864473 51.8895 0.114408C52.3043 0.132901 52.7925 0.347854 52.8234 0.761944C53.2551 0.752327 53.697 0.747748 54.105 0.889181C54.5129 1.03061 54.8863 1.34839 54.973 1.77135C55.0495 2.14343 54.8974 2.52423 54.907 2.904C55.2062 2.89305 55.5056 2.8821 55.8047 2.87116C56.2808 2.8537 56.7767 2.84009 57.2103 3.03745C57.644 3.2348 57.99 3.71235 57.8731 4.17423C58.1736 4.10972 58.4875 4.05306 58.7858 4.12762C59.084 4.20219 59.3622 4.44437 59.3799 4.7512C59.373 4.61362 60.1844 4.61702 60.2973 4.62338C60.6154 4.64128 60.9161 4.71584 61.1984 4.86689C61.7491 5.16174 62.1861 5.71075 62.222 6.34986C62.7713 6.24645 63.3402 6.14334 63.884 6.2722C64.4278 6.4012 64.9427 6.82817 64.9882 7.38517C64.956 6.99075 65.6241 6.51704 65.9152 6.37013C66.3456 6.15266 66.8532 6.07277 67.3281 6.16361C67.5661 6.20917 67.7821 6.30045 67.9878 6.42709C68.1462 6.52488 68.1517 6.55714 68.3086 6.46822C68.4215 6.40416 68.5082 6.28685 68.6287 6.22205C69.0852 5.97617 69.7057 5.99421 70.1122 6.33271C70.1448 6.35978 70.1757 6.38848 70.2047 6.4191C70.8259 5.81298 71.6927 5.46635 72.5605 5.47686C73.1925 5.48455 73.8723 5.71652 74.1981 6.25814C74.4832 6.73229 74.4376 7.32657 74.3831 7.87707C74.7943 7.66359 75.3326 7.72588 75.6843 8.02783C76.0358 8.32978 76.1789 8.85245 76.0299 9.29125C76.5401 9.15647 77.0887 9.02274 77.5852 9.20204C78.0815 9.3812 78.4436 10.016 78.1495 10.4542C78.6158 10.2526 79.1111 10.0463 79.6148 10.112C80.1187 10.1777 80.6094 10.6288 80.5223 11.1296C80.9334 10.8859 81.4122 10.7572 81.89 10.7621C82.0832 10.764 82.2834 10.7899 82.4464 10.8932C82.6096 10.9964 82.7252 11.1939 82.6831 11.3824C82.9833 11.2392 83.2965 11.0929 83.6291 11.0938C83.9615 11.0947 84.3188 11.2892 84.3927 11.6135C84.3649 11.4922 85.1603 11.7091 85.222 11.7466C85.4498 11.886 85.6639 12.1384 85.7188 12.4072C85.8336 12.9704 84.9638 13.0651 84.5798 13.0651C80.9238 13.0663 77.2676 13.0675 73.6112 13.0687Z" fill="#FCFBF9"/>
        <path d="M0.439876 13.2055C0.869204 13.3037 1.34055 13.221 1.77564 13.2187C2.27583 13.2157 2.77603 13.2129 3.27622 13.2101C4.2766 13.2043 5.27669 13.1988 6.27707 13.1935C27.0671 13.0833 47.8576 13.0768 68.6479 13.0703C70.3025 13.0698 71.9568 13.0694 73.6112 13.0688C77.2676 13.0676 80.9238 13.0664 84.5801 13.0654C84.8737 13.0654 85.4501 13.0092 85.6544 12.7313C84.9313 12.4519 84.1194 12.3994 83.3702 12.601C83.4264 12.5859 82.8426 12.0307 82.7738 11.9925C82.5025 11.8426 82.1867 11.7696 81.8772 11.7857C81.6215 11.799 81.2221 12.0507 81.0435 11.9761C80.9068 11.9188 80.8028 11.7681 80.6422 11.7122C80.4691 11.6518 80.2826 11.6289 80.1008 11.6147C79.8709 11.5971 79.6375 11.584 79.4122 11.6326C79.187 11.6812 78.9674 11.799 78.8433 11.9932C78.6688 11.7173 78.3843 11.5225 78.077 11.4121C77.7697 11.3018 77.4395 11.2697 77.113 11.2671C76.9205 11.2657 76.7554 11.3388 76.5743 11.3559C76.3779 11.3744 76.4143 11.2837 76.3106 11.1189C76.1435 10.8534 75.8175 10.6763 75.5016 10.7418C75.5207 10.4773 75.5374 10.1995 75.4257 9.95905C75.3081 9.70563 75.0653 9.53372 74.8172 9.4056C74.3662 9.17289 73.8037 9.05157 73.3599 9.29804C73.3507 9.04151 73.3354 8.78173 73.2567 8.53733C73.178 8.29293 73.0282 8.06229 72.8049 7.93551C72.5031 7.76404 72.1273 7.80872 71.79 7.89023C71.5029 7.95976 71.1904 8.07857 71.0666 8.34693C70.9093 8.08582 70.6129 7.93195 70.3118 7.88313C69.9166 7.81922 69.3798 7.87455 69.011 8.03877C68.7661 8.14765 68.6657 8.34412 68.5427 8.56707C68.4371 8.75865 68.3474 8.89446 68.1079 8.87227C67.6771 8.83188 67.3209 8.61455 66.867 8.67743C66.4271 8.73823 65.9906 9.07051 65.9682 9.51404C65.1738 9.01444 63.9827 9.33754 63.5497 10.1703C63.1097 9.72678 62.2161 9.95817 62.0467 10.5595C61.5997 10.2918 61.0665 10.1703 60.5475 10.2182C60.6053 9.44599 59.8792 8.71086 59.1065 8.75909C58.9179 7.7195 57.8547 6.91766 56.8031 7.02226C56.9562 6.70536 56.7938 6.22989 56.4427 6.11967C56.2362 6.05487 56.0419 6.18181 55.8561 6.28033C55.792 6.31421 55.2811 6.58494 55.2975 6.6524C55.1852 6.1855 55.0608 5.71179 54.8033 5.30643C54.5461 4.90107 54.1312 4.5679 53.653 4.52574C53.5086 4.51302 53.3489 4.5327 53.247 4.63567C53.2591 3.98117 52.7202 3.39043 52.0823 3.24353C51.4443 3.09662 50.7563 3.34383 50.275 3.78751C50.2331 3.82612 50.1861 3.86858 50.1294 3.86725C50.0907 3.86622 50.0559 3.84462 50.0233 3.82361C49.8315 3.69978 49.6365 3.57329 49.4168 3.51056C49.0227 3.39798 48.587 3.50894 48.2492 3.7415C48.0437 3.88308 47.8709 4.06653 47.7255 4.26862C47.6613 4.35768 47.6117 4.49379 47.5356 4.56953C47.4284 4.6759 47.4681 4.64469 47.3126 4.63182C46.9177 4.59927 46.5707 4.59809 46.1924 4.74278C45.494 5.00981 44.8989 5.63501 44.8297 6.40194C44.8053 6.67267 44.8173 6.98882 44.6069 7.16102C44.4603 7.281 44.2538 7.28486 44.0644 7.28205C43.2662 7.27095 42.4407 7.24757 41.7025 7.55115C40.9644 7.85487 40.3355 8.58763 40.4289 9.3803C39.5039 8.73306 38.0034 9.29331 37.7289 10.3884C37.6505 10.7013 37.624 11.0874 37.3382 11.2371C37.0827 11.3709 36.7796 11.2271 36.505 11.139C35.934 10.9557 35.2845 11.0338 34.7733 11.3476C34.431 11.5577 34.5002 11.4894 34.0995 11.5181C34.0464 10.701 33.0164 10.125 32.2924 10.5079C32.4177 9.76614 31.9172 8.97065 31.1943 8.7625C31.4766 7.44197 29.7066 6.61172 28.3675 6.78348C26.3917 7.03676 24.5896 8.37518 23.7759 10.1934C23.7918 10.158 23.2361 10.2927 23.1774 10.3314C22.9936 10.4536 22.8463 10.6421 22.784 10.8548C22.7045 11.1266 22.8298 11.2382 22.4993 11.1714C22.2075 11.1126 21.9178 11.1161 21.638 11.2287C21.3018 11.3638 21.0226 11.6357 20.8788 11.9684C20.5231 11.8429 20.1422 11.7702 19.7676 11.816C19.3933 11.8619 19.0255 12.0354 18.7946 12.3337C18.5178 12.1334 18.1052 12.1487 17.8438 12.3686C17.6355 12.544 17.4276 12.3677 17.3178 12.1681C17.1634 11.887 17.0952 11.5991 16.845 11.375C16.4442 11.0158 15.8489 10.9967 15.3128 11.0412C15.2974 11.0424 14.9854 10.6417 14.9349 10.5998C14.7741 10.466 14.5933 10.3686 14.3985 10.2943C14.0704 10.1691 13.7933 9.96453 13.4506 9.85919C12.9208 9.69601 12.0254 9.60857 11.8861 10.3313C11.5392 10.0503 11.1673 9.758 10.7242 9.70356C10.2813 9.64926 9.76451 9.94485 9.75696 10.3912C8.35373 10.2588 7.41696 11.8064 6.12469 12.3698C4.92118 12.8944 3.54192 12.513 2.22968 12.4683C1.50742 12.4437 0.698182 12.6161 0.0947266 12.9935C0.179645 13.0963 0.308948 13.1755 0.439876 13.2055Z" fill="#32AAFF"/>
    </g>
    <g opacity="0.2">
        <path d="M721.964 350.696C725.016 350.548 728.154 350.875 731.179 351.285C731.392 351.314 731.616 351.352 731.782 351.488C732.15 351.791 732.016 352.43 731.645 352.727C731.273 353.025 730.768 353.077 730.293 353.116C728.908 353.229 727.523 353.337 726.138 353.439C704.867 354.999 683.349 355.392 662.054 354.07C651.651 353.424 640.932 354.306 630.496 354.491C619.759 354.681 609.021 354.872 598.284 355.063C587.547 355.254 576.809 355.444 566.072 355.634C560.703 355.73 555.334 355.825 549.966 355.92C547.282 355.968 544.597 356.016 541.913 356.063C541.107 356.077 536.309 356.841 537.085 354.702C537.208 354.36 537.549 354.153 537.875 353.994C539.282 353.311 540.837 353.056 542.389 353.015C543.626 352.981 545.578 353.635 546.719 353.307C547.73 353.016 548.276 352.034 549.528 351.931C549.845 351.904 552.742 352.267 552.518 352.895C553.854 349.165 558.565 347.063 562.234 348.561C562.969 342.197 569.572 337.141 575.907 338.089C581.031 338.856 585.031 342.764 588.651 346.471C589.788 344.173 593.976 344.778 594.416 347.303C597.279 345.64 601.031 345.637 603.898 347.293C605.384 346.371 607.084 345.796 608.823 345.611C609.636 345.525 610.093 345.664 610.6 345.144C611.101 344.631 611.423 343.238 611.85 342.569C612.546 341.473 613.306 340.384 614.346 339.606C616.041 338.337 618.425 338.056 620.369 338.895C620.029 338.748 624.244 334.757 624.619 334.432C626.348 332.94 628.64 332.256 630.921 332.169C631.526 328.183 637.607 326.502 640.172 329.612C643.009 329.2 645.845 328.788 648.681 328.377C650.359 328.133 652.107 327.895 653.722 328.411C655.336 328.927 656.769 330.44 656.601 332.127C656.433 333.815 654.077 334.998 652.891 333.786C650.928 337.572 647.142 340.359 642.943 341.109C644.874 340.82 646.863 342.486 646.914 344.438C648.43 343.624 650.456 343.899 651.698 345.089C654.553 344.143 657.899 344.881 660.09 346.941C662.184 344.688 666.324 344.899 668.18 347.352C669.703 344.858 673.456 345.947 676.22 346.893C678.785 347.771 681.468 348.253 684.147 348.673C696.64 350.632 709.333 351.311 721.964 350.696Z" fill="white"/>
        <path d="M541.915 356.064C544.599 356.016 547.284 355.968 549.969 355.921C555.337 355.825 560.705 355.73 566.075 355.635C576.812 355.444 587.55 355.254 598.287 355.063C609.024 354.873 619.762 354.682 630.499 354.491C640.935 354.306 651.654 353.425 662.057 354.07C683.352 355.393 704.87 354.999 726.141 353.439C727.526 353.337 728.911 353.23 730.296 353.117C730.77 353.078 731.276 353.026 731.648 352.728C731.844 352.572 731.97 352.321 731.995 352.074C728.06 351.761 724.091 352.005 720.163 352.337C718.597 352.468 717.034 352.614 715.469 352.742C714.694 352.804 713.889 352.801 713.122 352.917C712.473 353.015 711.853 353.156 711.184 353.192C708.101 353.362 705.046 352.777 701.981 352.566C698.414 352.321 694.827 352.578 691.261 352.319C686.724 351.989 682.254 350.823 677.704 350.839C676.977 350.841 676.412 351.033 675.725 351.179C675.162 351.298 674.65 350.807 674.131 350.593C673.517 350.342 672.872 350.168 672.215 350.071C670.929 349.882 669.595 349.994 668.367 350.429C668.1 350.523 667.829 350.634 667.544 350.631C667.267 350.627 667.004 350.515 666.744 350.417C664.263 349.479 661.358 349.743 659.085 351.112C656.926 349.136 653.453 348.773 650.931 350.259C650.626 348.85 649.644 347.603 648.346 346.977C647.047 346.351 645.461 346.359 644.169 346.998C643.308 343.813 640.929 340.99 637.798 339.951C634.666 338.912 630.873 339.884 628.895 342.523C627.371 342.06 625.789 341.636 624.205 341.8C623.317 341.891 622.435 342.197 621.708 342.72C621.344 342.981 621.01 343.3 620.76 343.672C620.569 343.955 620.556 344.373 620.221 344.394C619.823 344.418 619.212 344.071 618.78 344.024C618.308 343.971 617.829 343.979 617.357 344.037C616.43 344.152 615.526 344.46 614.711 344.915C612.955 345.895 611.601 347.46 610.428 349.094C608.896 348.781 607.223 349.269 606.1 350.356C605.918 350.533 605.742 350.728 605.51 350.829C605.043 351.033 604.515 350.802 604.046 350.605C601.242 349.425 597.976 349.387 595.144 350.5C594.565 349.247 593.274 348.355 591.898 348.255C590.521 348.155 589.115 348.852 588.362 350.009C585.758 347.303 582.534 345.122 578.914 344.127C576.897 343.572 574.766 343.409 572.692 343.691C571.674 343.829 570.67 344.075 569.709 344.437C568.801 344.778 568.068 345.301 567.219 345.725C565.819 346.424 564.856 347.927 564.809 349.491C562.828 349.349 560.881 350.953 560.64 352.924C559.761 352.501 558.624 352.694 557.936 353.385C557.746 353.576 557.578 353.807 557.327 353.904C556.984 354.036 556.589 353.881 556.234 353.977C555.672 354.13 555.394 354.856 554.821 354.963C554.466 355.03 554.122 354.833 553.777 354.724C552.992 354.473 552.17 354.679 551.344 354.828C550.947 354.901 550.548 354.96 550.152 354.95C548.732 354.913 547.346 353.989 545.977 354.364C545.59 354.469 545.224 354.677 544.823 354.688C544.449 354.699 544.094 354.536 543.731 354.443C542.561 354.144 541.231 354.647 540.549 355.643C539.722 355.365 538.787 355.42 537.999 355.797C537.896 355.846 537.795 355.902 537.702 355.967C538.921 356.437 541.361 356.074 541.915 356.064Z" fill="#32AAFF"/>
    </g>
    <defs>
        <linearGradient id="paint0_linear" x1="65.5674" y1="69.8208" x2="83.2068" y2="65.0944" gradientUnits="userSpaceOnUse">
            <stop stop-color="#FFC22B"/>
            <stop offset="0.5" stop-color="#FE7DAB"/>
            <stop offset="1" stop-color="#FE7DAB" stop-opacity="0"/>
        </linearGradient>
        <linearGradient id="paint1_linear" x1="99.2012" y1="55.6456" x2="89.566" y2="64.1804" gradientUnits="userSpaceOnUse">
            <stop stop-color="#FFC22B"/>
            <stop offset="0.5" stop-color="#FE7DAB"/>
            <stop offset="1" stop-color="#FE7DAB" stop-opacity="0"/>
        </linearGradient>
        <linearGradient id="paint2_linear" x1="131" y1="22.8424" x2="101.5" y2="66.8424" gradientUnits="userSpaceOnUse">
            <stop stop-color="#FFAF36"/>
            <stop offset="1" stop-color="#FFC22B"/>
        </linearGradient>
        <linearGradient id="paint3_linear" x1="499.419" y1="987.081" x2="243.895" y2="601.392" gradientUnits="userSpaceOnUse">
            <stop stop-color="#0C6FF9"/>
            <stop offset="0.5" stop-color="#FB7BBB"/>
            <stop offset="1" stop-color="#FC611E"/>
        </linearGradient>
    </defs>
</svg>
