<svg width="765" height="924" viewBox="0 0 765 924" fill="none"
    xmlns="http://www.w3.org/2000/svg">
    <g opacity="0.5">
        <path d="M336.379 1.22627L331.104 15.0993L345.858 12.6468L336.379 1.22627Z" fill="url(#paint0_linear)"/>
        <path d="M340.582 26.5204L345.857 12.6473L331.103 15.0999L340.582 26.5204Z" fill="url(#paint1_linear)"/>
    </g>
    <path opacity="0.5" d="M362.094 53C350.434 50.1733 345.047 40.8352 342.307 31.8" stroke="url(#paint2_linear)" stroke-linecap="round"/>
    <path opacity="0.5" fill-rule="evenodd" clip-rule="evenodd" d="M445.43 39.7489C445.974 39.2129 446.893 39.4593 447.096 40.1953L454.83 68.2523C455.294 68.6013 455.382 69.316 454.928 69.7635L433.851 90.54C433.308 91.076 432.388 90.8296 432.185 90.0936L424.451 62.0366C423.988 61.6876 423.899 60.9729 424.353 60.5254L445.43 39.7489ZM432.394 93.4115C432.499 93.1561 432.378 92.8639 432.122 92.7587C431.867 92.6536 431.575 92.7754 431.47 93.0307L430.925 94.3533C415.587 131.604 379.285 155.915 339 155.915V156.915C379.69 156.915 416.357 132.359 431.85 94.734L432.394 93.4115Z" fill="url(#paint3_linear)"/>
    <path opacity="0.5" d="M385.997 709.933C347.122 709.002 322.424 733.717 306.268 759.705" stroke="url(#paint4_linear)" stroke-width="2" stroke-linecap="round"/>
    <path opacity="0.5" d="M249.536 713.042C273.757 725.87 297.114 718.061 315.485 706.76" stroke="url(#paint5_linear)" stroke-width="2" stroke-linecap="round"/>
    <path opacity="0.5" fill-rule="evenodd" clip-rule="evenodd" d="M190.66 605.686C189.374 604.412 187.192 604.997 186.716 606.743L176.086 645.715C175.772 646.866 176.352 647.956 177.283 648.441L205.768 676.671C207.053 677.945 209.236 677.361 209.712 675.614L220.342 636.642C220.656 635.491 220.076 634.401 219.144 633.917L190.66 605.686ZM258.63 730.115C259.158 730.275 259.717 729.977 259.877 729.448C260.037 728.92 259.739 728.362 259.21 728.201C238.706 721.984 217.795 709.848 211.461 683.721C211.331 683.184 210.79 682.854 210.254 682.984C209.717 683.114 209.387 683.655 209.517 684.192C216.098 711.338 237.852 723.815 258.63 730.115Z" fill="url(#paint6_linear)"/>
    <path d="M474 415L475.769 414.516C481.587 412.924 487.813 414.044 492.712 417.562L496.95 420.605C497.282 420.843 497.726 420.856 498.071 420.636L503.694 417.046C508.703 413.849 514.874 413.045 520.535 414.852L521 415" stroke="#FB7BBB" stroke-width="2" stroke-linecap="round"/>
    <path d="M386 313V313C391.32 311.151 397.225 312.364 401.386 316.159L403.864 318.42C404.23 318.754 404.784 318.77 405.168 318.458L409.398 315.029C413.224 311.926 418.435 311.149 423 313V313" stroke="#48BB35" stroke-width="2" stroke-linecap="round"/>
    <path opacity="0.1" d="M821.193 643.142L777.671 718.145C718.05 820.891 589.262 860.243 482.396 808.369V808.369C311.221 725.279 119.965 877.154 162.114 1062.7L196.752 1215.18" stroke="url(#paint7_linear)" stroke-width="50" stroke-linecap="round"/>
    <defs>
        <linearGradient id="paint0_linear" x1="341.945" y1="6.79922" x2="330.335" y2="8.72895" gradientUnits="userSpaceOnUse">
            <stop stop-color="#0C6FF9"/>
            <stop offset="0.5" stop-color="#FB7BBB"/>
            <stop offset="1" stop-color="#FC611E"/>
        </linearGradient>
        <linearGradient id="paint1_linear" x1="335.017" y1="20.9475" x2="346.626" y2="19.0177" gradientUnits="userSpaceOnUse">
            <stop stop-color="#0C6FF9"/>
            <stop offset="0.5" stop-color="#FB7BBB"/>
            <stop offset="1" stop-color="#FC611E"/>
        </linearGradient>
        <linearGradient id="paint2_linear" x1="358.255" y1="42.4" x2="342.686" y2="42.4" gradientUnits="userSpaceOnUse">
            <stop stop-color="#0C6FF9"/>
            <stop offset="0.5" stop-color="#FB7BBB"/>
            <stop offset="1" stop-color="#FC611E"/>
        </linearGradient>
        <linearGradient id="paint3_linear" x1="437.08" y1="39.7232" x2="356.501" y2="152.04" gradientUnits="userSpaceOnUse">
            <stop stop-color="#0C6FF9"/>
            <stop offset="1" stop-color="#32AAFF" stop-opacity="0"/>
        </linearGradient>
        <linearGradient id="paint4_linear" x1="365.087" y1="739.898" x2="316.347" y2="726.838" gradientUnits="userSpaceOnUse">
            <stop stop-color="#FC611E"/>
            <stop offset="0.5" stop-color="#FE7DAB"/>
            <stop offset="1" stop-color="#FE7DAB" stop-opacity="0"/>
        </linearGradient>
        <linearGradient id="paint5_linear" x1="272.157" y1="700.73" x2="298.78" y2="724.313" gradientUnits="userSpaceOnUse">
            <stop stop-color="#FC611E"/>
            <stop offset="0.5" stop-color="#FE7DAB"/>
            <stop offset="1" stop-color="#FE7DAB" stop-opacity="0"/>
        </linearGradient>
        <linearGradient id="paint6_linear" x1="192.282" y1="667.579" x2="258.312" y2="667.579" gradientUnits="userSpaceOnUse">
            <stop stop-color="#0C6FF9"/>
            <stop offset="0.5" stop-color="#FB7BBB"/>
            <stop offset="1" stop-color="#FC611E"/>
        </linearGradient>
        <linearGradient id="paint7_linear" x1="482.419" y1="889.081" x2="226.895" y2="503.392" gradientUnits="userSpaceOnUse">
            <stop stop-color="#0C6FF9"/>
            <stop offset="0.5" stop-color="#FB7BBB"/>
            <stop offset="1" stop-color="#FC611E"/>
        </linearGradient>
    </defs>
</svg>
