<svg width="682" height="1074" viewBox="0 0 682 1074" fill="none"
    xmlns="http://www.w3.org/2000/svg">
    <path opacity="0.1" d="M255.768 -102L281.766 29.3C326.443 254.938 211.416 481.946 3.04528 579.362L-167.932 659.295" stroke="url(#paint0_linear)" stroke-width="50" stroke-linecap="round"/>
    <g opacity="0.2">
        <path d="M530.772 1004.76C526.372 1004.76 521.972 1004.76 517.572 1004.76C462.279 1004.78 406.986 1004.8 351.694 1005.09C349.033 1005.1 346.374 1005.12 343.713 1005.13C342.383 1005.14 341.053 1005.15 339.722 1005.16C338.565 1005.16 337.312 1005.38 336.17 1005.12C335.504 1004.97 334.843 1004.35 335.033 1003.69C335.115 1003.41 335.336 1003.19 335.564 1003C337.759 1001.21 340.951 1001.35 343.703 1002.04C345.642 1001.08 347.864 1000.69 350.014 1000.95C350.371 1000.99 350.764 1001.04 351.063 1000.84C351.273 1000.7 351.393 1000.47 351.506 1000.24C352.688 997.887 354.161 995.573 356.351 994.104C358.54 992.635 361.59 992.195 363.803 993.628C364.209 992.509 365.476 991.944 366.658 991.798C369.529 991.443 372.305 992.814 374.834 994.216C377.595 995.747 380.381 997.427 382.287 999.943C382.418 1000.12 382.563 1000.31 382.775 1000.35C382.968 1000.4 383.164 1000.31 383.346 1000.23C385.105 999.469 387.005 999.026 388.923 998.937C389.069 998.929 389.368 997.685 389.446 997.528C389.697 997.024 390.053 996.573 390.477 996.203C391.297 995.487 392.397 995.067 393.491 995.206C393.07 992.773 395.341 990.258 397.804 990.43C396.962 989.244 398.01 987.546 399.136 986.986C399.725 986.693 400.334 986.352 400.94 986.098C401.112 986.026 403.149 985.522 403.148 985.767C403.154 984.054 404.271 982.525 405.599 981.444C406.408 980.785 407.351 980.229 408.39 980.134C409.428 980.04 410.567 980.505 411.024 981.443C413.495 979.052 417.245 978.071 420.571 978.943C421.514 979.191 422.519 979.675 422.841 980.596C423.585 979.805 424.915 980.081 425.846 980.637C426.666 981.127 427.441 981.908 427.438 982.863C427.436 983.593 426.981 984.237 426.502 984.787C425.027 986.484 423.135 987.814 421.039 988.627C422.965 988.855 424.348 991.128 423.665 992.943C424.586 992.676 425.572 992.491 426.497 992.743C427.422 992.996 428.255 993.797 428.264 994.756C429.033 992.918 430.509 991.387 432.317 990.552C432.943 990.263 433.728 990.071 434.284 990.479C434.933 989.219 435.752 988.007 436.906 987.185C437.825 986.53 438.998 986.143 440.132 986.284C440.294 986.304 440.794 986.514 440.923 986.455C441.079 986.383 441.269 985.867 441.322 985.705C441.456 985.288 441.436 984.89 441.626 984.479C442.061 983.541 442.855 982.73 443.723 982.185C443.923 982.059 446.509 981.05 446.512 981.36C446.494 979.182 448.876 977.337 450.981 977.899C451.292 975.877 453.748 974.936 455.458 975.797C455.057 974.334 456.063 973.112 457.176 972.249C458.782 971.003 460.725 970.145 462.755 970.016C464.784 969.887 466.892 970.532 468.364 971.933C469.627 970.826 471.324 970.23 473.002 970.304C474.105 970.353 475.404 970.925 475.486 972.026C476.634 972.001 477.809 971.989 478.895 972.365C479.979 972.741 480.972 973.586 481.203 974.711C481.406 975.701 481.002 976.713 481.027 977.723C481.823 977.694 482.619 977.665 483.415 977.636C484.681 977.59 486 977.553 487.153 978.078C488.306 978.603 489.227 979.873 488.916 981.102C489.715 980.93 490.55 980.779 491.343 980.978C492.136 981.176 492.876 981.82 492.923 982.636C492.905 982.27 495.063 982.279 495.363 982.296C496.209 982.344 497.009 982.542 497.76 982.944C499.224 983.728 500.386 985.188 500.482 986.888C501.943 986.613 503.456 986.338 504.902 986.681C506.348 987.024 507.718 988.16 507.839 989.641C507.753 988.592 509.53 987.332 510.304 986.942C511.449 986.363 512.799 986.151 514.062 986.392C514.695 986.514 515.269 986.756 515.816 987.093C516.238 987.353 516.252 987.439 516.67 987.203C516.97 987.032 517.2 986.72 517.521 986.548C518.735 985.894 520.385 985.942 521.466 986.842C521.553 986.914 521.635 986.99 521.712 987.072C523.364 985.46 525.67 984.538 527.978 984.566C529.658 984.586 531.466 985.203 532.333 986.644C533.091 987.905 532.97 989.485 532.825 990.949C533.918 990.382 535.35 990.547 536.285 991.35C537.22 992.153 537.601 993.543 537.205 994.71C538.562 994.352 540.021 993.996 541.341 994.473C542.661 994.95 543.624 996.638 542.842 997.803C544.082 997.267 545.399 996.719 546.739 996.893C548.079 997.068 549.384 998.268 549.152 999.6C550.246 998.952 551.519 998.609 552.79 998.622C553.304 998.627 553.836 998.696 554.27 998.971C554.704 999.245 555.011 999.771 554.899 1000.27C555.697 999.891 556.53 999.502 557.415 999.504C558.299 999.507 559.249 1000.02 559.446 1000.89C559.372 1000.56 561.487 1001.14 561.651 1001.24C562.257 1001.61 562.827 1002.28 562.972 1003C563.278 1004.5 560.965 1004.75 559.943 1004.75C550.22 1004.75 540.496 1004.75 530.772 1004.76Z" fill="#FCFBF9"/>
        <path d="M336.17 1005.12C337.312 1005.38 338.565 1005.16 339.722 1005.16C341.053 1005.15 342.383 1005.14 343.713 1005.13C346.374 1005.12 349.034 1005.1 351.694 1005.09C406.986 1004.8 462.279 1004.78 517.572 1004.76C521.972 1004.76 526.372 1004.76 530.772 1004.76C540.496 1004.75 550.22 1004.75 559.944 1004.75C560.725 1004.75 562.258 1004.6 562.801 1003.86C560.878 1003.12 558.719 1002.98 556.726 1003.51C556.876 1003.47 555.323 1002 555.14 1001.89C554.419 1001.5 553.579 1001.3 552.756 1001.34C552.076 1001.38 551.013 1002.05 550.539 1001.85C550.175 1001.7 549.898 1001.3 549.471 1001.15C549.011 1000.99 548.515 1000.93 548.031 1000.89C547.42 1000.84 546.799 1000.81 546.2 1000.94C545.601 1001.07 545.017 1001.38 544.687 1001.9C544.223 1001.16 543.466 1000.64 542.649 1000.35C541.832 1000.06 540.954 999.972 540.085 999.965C539.573 999.961 539.134 1000.16 538.653 1000.2C538.13 1000.25 538.227 1000.01 537.951 999.571C537.507 998.865 536.64 998.394 535.8 998.568C535.85 997.865 535.895 997.126 535.598 996.486C535.285 995.812 534.639 995.355 533.979 995.014C532.78 994.395 531.284 994.073 530.104 994.728C530.079 994.046 530.039 993.355 529.829 992.705C529.62 992.055 529.221 991.442 528.628 991.105C527.825 990.649 526.826 990.767 525.929 990.984C525.165 991.169 524.334 991.485 524.005 992.199C523.586 991.504 522.798 991.095 521.997 990.965C520.946 990.795 519.518 990.942 518.537 991.379C517.886 991.669 517.619 992.191 517.292 992.784C517.011 993.294 516.773 993.655 516.136 993.596C514.99 993.489 514.043 992.911 512.835 993.078C511.666 993.239 510.505 994.123 510.445 995.303C508.332 993.974 505.165 994.833 504.013 997.048C502.843 995.869 500.466 996.484 500.016 998.083C498.827 997.371 497.409 997.048 496.029 997.176C496.182 995.122 494.251 993.167 492.196 993.295C491.695 990.53 488.867 988.398 486.07 988.676C486.477 987.833 486.045 986.568 485.112 986.275C484.562 986.103 484.046 986.441 483.552 986.703C483.381 986.793 482.022 987.513 482.066 987.692C481.767 986.45 481.436 985.191 480.752 984.112C480.068 983.034 478.964 982.148 477.692 982.036C477.308 982.002 476.884 982.055 476.613 982.329C476.645 980.588 475.211 979.017 473.515 978.626C471.818 978.235 469.988 978.893 468.708 980.073C468.597 980.176 468.472 980.288 468.321 980.285C468.218 980.282 468.126 980.225 468.039 980.169C467.529 979.84 467.01 979.503 466.426 979.336C465.378 979.037 464.219 979.332 463.321 979.95C462.774 980.327 462.315 980.815 461.928 981.352C461.757 981.589 461.625 981.951 461.423 982.153C461.138 982.436 461.243 982.353 460.83 982.318C459.78 982.232 458.857 982.229 457.851 982.613C455.993 983.324 454.411 984.986 454.226 987.026C454.162 987.746 454.193 988.587 453.634 989.045C453.244 989.364 452.695 989.374 452.191 989.367C450.068 989.337 447.873 989.275 445.91 990.082C443.947 990.89 442.274 992.839 442.522 994.947C440.062 993.226 436.072 994.716 435.342 997.628C435.133 998.46 435.063 999.487 434.303 999.885C433.623 1000.24 432.817 999.859 432.087 999.625C430.568 999.137 428.841 999.345 427.481 1000.18C426.571 1000.74 426.755 1000.56 425.689 1000.63C425.548 998.459 422.808 996.928 420.883 997.946C421.216 995.973 419.885 993.858 417.963 993.304C418.713 989.792 414.006 987.584 410.444 988.041C405.19 988.714 400.397 992.274 398.233 997.11C398.275 997.015 396.797 997.374 396.641 997.477C396.152 997.802 395.761 998.303 395.595 998.869C395.384 999.591 395.717 999.888 394.838 999.711C394.062 999.554 393.291 999.564 392.547 999.863C391.653 1000.22 390.91 1000.95 390.528 1001.83C389.582 1001.5 388.569 1001.3 387.573 1001.42C386.577 1001.55 385.599 1002.01 384.985 1002.8C384.249 1002.27 383.151 1002.31 382.456 1002.89C381.902 1003.36 381.349 1002.89 381.057 1002.36C380.647 1001.61 380.465 1000.85 379.8 1000.25C378.734 999.297 377.151 999.246 375.725 999.364C375.684 999.368 374.854 998.302 374.72 998.19C374.292 997.835 373.812 997.575 373.293 997.378C372.421 997.045 371.684 996.501 370.773 996.221C369.364 995.787 366.982 995.554 366.612 997.476C365.689 996.729 364.7 995.952 363.521 995.807C362.343 995.662 360.969 996.449 360.949 997.636C357.217 997.283 354.726 1001.4 351.289 1002.9C348.088 1004.29 344.42 1003.28 340.93 1003.16C339.009 1003.09 336.857 1003.55 335.252 1004.56C335.478 1004.83 335.822 1005.04 336.17 1005.12Z" fill="#32AAFF"/>
    </g>
    <path d="M194 868.333L200.682 866.508C206.493 864.921 212.709 866.038 217.604 869.547L227.45 876.606C227.782 876.844 228.226 876.856 228.57 876.637L240.503 869.033C245.507 865.844 251.669 865.042 257.323 866.843L262 868.333" stroke="#0C6FF9" stroke-width="2" stroke-linecap="round"/>
    <path d="M147 911L148.769 910.516C154.587 908.924 160.813 910.044 165.712 913.562L169.95 916.605C170.282 916.843 170.726 916.856 171.071 916.636L176.694 913.046C181.703 909.849 187.874 909.045 193.535 910.852L194 911" stroke="#FF7E1D" stroke-width="2" stroke-linecap="round"/>
    <g opacity="0.5">
        <path d="M562.378 918.226L557.103 932.099L571.858 929.647L562.378 918.226Z" fill="url(#paint1_linear)"/>
        <path d="M566.582 943.52L571.857 929.647L557.102 932.1L566.582 943.52Z" fill="url(#paint2_linear)"/>
    </g>
    <path opacity="0.5" d="M588.093 970C576.433 967.173 571.046 957.835 568.307 948.8" stroke="url(#paint3_linear)" stroke-linecap="round"/>
    <path opacity="0.5" fill-rule="evenodd" clip-rule="evenodd" d="M671.429 956.749C671.973 956.213 672.893 956.459 673.095 957.195L680.829 985.252C681.293 985.601 681.382 986.316 680.928 986.764L659.851 1007.54C659.307 1008.08 658.388 1007.83 658.185 1007.09L650.451 979.037C649.987 978.688 649.899 977.973 650.353 977.525L671.429 956.749ZM658.394 1010.41C658.499 1010.16 658.377 1009.86 658.122 1009.76C657.867 1009.65 657.574 1009.78 657.469 1010.03L656.925 1011.35C641.586 1048.6 605.284 1072.91 565 1072.91V1073.91C605.689 1073.91 642.357 1049.36 657.849 1011.73L658.394 1010.41Z" fill="url(#paint4_linear)"/>
    <defs>
        <linearGradient id="paint0_linear" x1="-125.222" y1="312.138" x2="309.71" y2="226.02" gradientUnits="userSpaceOnUse">
            <stop stop-color="#0C6FF9"/>
            <stop offset="0.5" stop-color="#FB7BBB"/>
            <stop offset="1" stop-color="#FC611E"/>
        </linearGradient>
        <linearGradient id="paint1_linear" x1="567.944" y1="923.799" x2="556.335" y2="925.729" gradientUnits="userSpaceOnUse">
            <stop stop-color="#0C6FF9"/>
            <stop offset="0.5" stop-color="#FB7BBB"/>
            <stop offset="1" stop-color="#FC611E"/>
        </linearGradient>
        <linearGradient id="paint2_linear" x1="561.016" y1="937.947" x2="572.625" y2="936.018" gradientUnits="userSpaceOnUse">
            <stop stop-color="#0C6FF9"/>
            <stop offset="0.5" stop-color="#FB7BBB"/>
            <stop offset="1" stop-color="#FC611E"/>
        </linearGradient>
        <linearGradient id="paint3_linear" x1="584.254" y1="959.4" x2="568.686" y2="959.4" gradientUnits="userSpaceOnUse">
            <stop stop-color="#0C6FF9"/>
            <stop offset="0.5" stop-color="#FB7BBB"/>
            <stop offset="1" stop-color="#FC611E"/>
        </linearGradient>
        <linearGradient id="paint4_linear" x1="663.079" y1="956.723" x2="582.5" y2="1069.04" gradientUnits="userSpaceOnUse">
            <stop stop-color="#0C6FF9"/>
            <stop offset="1" stop-color="#32AAFF" stop-opacity="0"/>
        </linearGradient>
    </defs>
</svg>
