<svg width="147" height="52" viewBox="0 0 147 52" fill="none" xmlns="http://www.w3.org/2000/svg">
<path d="M0.0771752 41.218C-0.354684 43.3846 1.05153 45.491 3.21805 45.9228C5.38457 46.3547 7.49097 44.9485 7.92282 42.7819L0.0771752 41.218ZM7.92282 42.7819C8.63299 39.2192 10.5333 33.7996 13.7972 29.3742C17.0271 24.9949 21.2462 22 26.724 22V14C17.8498 14 11.5043 19.0051 7.35884 24.6258C3.24738 30.2004 0.961676 36.7808 0.0771752 41.218L7.92282 42.7819ZM26.724 22C29.7262 22 32.1765 22.8836 34.2352 24.2974L38.7639 17.7026C35.4498 15.4268 31.4346 14 26.724 14V22Z" fill="#FB7BBB"/>
<path d="M0.0771751 10.7819C-0.354684 8.61543 1.05153 6.50903 3.21805 6.07717C5.38457 5.64531 7.49097 7.05153 7.92282 9.21805L0.0771751 10.7819ZM43.8882 9.47307C44.1792 7.28319 46.1904 5.74384 48.3803 6.03485C50.5701 6.32587 52.1095 8.33703 51.8185 10.5269L43.8882 9.47307ZM7.92282 9.21805C8.63299 12.7808 10.5333 18.2004 13.7972 22.6258C17.0271 27.0051 21.2462 30 26.724 30V38C17.8498 38 11.5043 32.9949 7.35884 27.3742C3.24738 21.7996 0.961676 15.2192 0.0771751 10.7819L7.92282 9.21805ZM26.724 30C32.1518 30 36.0722 27.0601 38.9506 22.771C41.883 18.4014 43.4161 13.0253 43.8882 9.47307L51.8185 10.5269C51.2274 14.9747 49.3718 21.5986 45.5934 27.229C41.7609 32.9399 35.6482 38 26.724 38V30Z" fill="#FFCE00"/>
<path d="M34.2354 24.2974C35.2604 25.0013 36.2112 25.8531 37.0891 26.8273L43.032 21.4718C41.7856 20.0887 40.3685 18.8044 38.764 17.7026L34.2354 24.2974Z" fill="#FB7BBB"/>
<path d="M43.6784 29.319L47.1868 27.3977L47.1868 27.3977L43.6784 29.319ZM43.8884 42.5271C44.1794 44.717 46.1906 46.2564 48.3805 45.9654C50.5703 45.6743 52.1097 43.6632 51.8187 41.4733L43.8884 42.5271ZM37.0894 26.8272C38.2612 28.1275 39.2873 29.6285 40.17 31.2403L47.1868 27.3977C46.0614 25.3427 44.6901 23.3113 43.0323 21.4717L37.0894 26.8272ZM40.17 31.2403C42.3313 35.187 43.4914 39.5397 43.8884 42.5271L51.8187 41.4733C51.3128 37.6667 49.8932 32.3399 47.1868 27.3977L40.17 31.2403Z" fill="#FB7BBB"/>
<path d="M66.125 21V3.5H77.525V6.325H69.125V10.55H74.3V13.375H69.125V18.175H78.075V21H66.125ZM88.36 21V19.975C87.51 20.8583 86.3766 21.3 84.96 21.3C83.5933 21.3 82.4766 20.9333 81.61 20.2C80.76 19.45 80.335 18.4 80.335 17.05C80.335 15.6667 80.8183 14.6167 81.785 13.9C82.7683 13.1833 83.9516 12.825 85.335 12.825C86.5516 12.825 87.56 13.05 88.36 13.5V12.825C88.36 12.0083 88.1516 11.4167 87.735 11.05C87.335 10.6833 86.71 10.5 85.86 10.5C84.4766 10.5 83.21 10.9 82.06 11.7L81.16 9.325C82.5433 8.39167 84.21 7.925 86.16 7.925C86.8266 7.925 87.41 7.98333 87.91 8.1C88.4266 8.2 88.9516 8.40833 89.485 8.725C90.035 9.04167 90.46 9.54167 90.76 10.225C91.06 10.9083 91.21 11.7583 91.21 12.775V21H88.36ZM85.51 18.725C86.6266 18.725 87.5766 18.3167 88.36 17.5V15.85C87.6266 15.5 86.7766 15.325 85.81 15.325C85.0266 15.325 84.3933 15.4667 83.91 15.75C83.4266 16.0333 83.185 16.4667 83.185 17.05C83.185 17.5667 83.385 17.975 83.785 18.275C84.185 18.575 84.76 18.725 85.51 18.725ZM94.708 21V8.225H97.633V9.55C98.1497 8.46667 99.0247 7.925 100.258 7.925C101.158 7.925 101.95 8.21667 102.633 8.8L102.208 11.475C101.575 11.025 100.85 10.8 100.033 10.8C99.3663 10.8 98.7997 11.0333 98.333 11.5C97.8663 11.9667 97.633 12.75 97.633 13.85V21H94.708ZM104.916 21V4.325L107.841 2.95V21H104.916ZM113.3 25.85L115.275 20.8L110.475 8.225H113.425L116.4 16.075C116.55 16.4417 116.675 16.825 116.775 17.225C116.858 16.8583 116.975 16.475 117.125 16.075L120.125 8.225H123.075L116.325 25.85H113.3ZM77.775 45L76.4 41.175H69.475L68.1 45H64.925L71.45 27.5H74.425L80.925 45H77.775ZM75.45 38.475L73.525 33.225C73.275 32.5917 73.0833 32 72.95 31.45C72.8167 31.9333 72.625 32.525 72.375 33.225L70.425 38.475H75.45ZM88.5525 45.3C86.8025 45.3 85.4109 44.7083 84.3775 43.525C83.3609 42.3417 82.8525 40.7083 82.8525 38.625C82.8525 36.5417 83.3609 34.9083 84.3775 33.725C85.4109 32.525 86.8025 31.925 88.5525 31.925C91.1859 31.925 92.8775 33.1 93.6275 35.45L90.8525 36.375C90.4359 35.275 89.7025 34.725 88.6525 34.725C87.7692 34.725 87.0775 35.075 86.5775 35.775C86.0775 36.475 85.8275 37.425 85.8275 38.625C85.8275 39.8083 86.0692 40.75 86.5525 41.45C87.0525 42.1333 87.7192 42.475 88.5525 42.475C89.7359 42.475 90.5109 41.8583 90.8775 40.625L93.6775 41.475C92.9442 44.025 91.2359 45.3 88.5525 45.3ZM101.809 45.3C100.059 45.3 98.6677 44.7083 97.6344 43.525C96.6177 42.3417 96.1094 40.7083 96.1094 38.625C96.1094 36.5417 96.6177 34.9083 97.6344 33.725C98.6677 32.525 100.059 31.925 101.809 31.925C104.443 31.925 106.134 33.1 106.884 35.45L104.109 36.375C103.693 35.275 102.959 34.725 101.909 34.725C101.026 34.725 100.334 35.075 99.8344 35.775C99.3344 36.475 99.0844 37.425 99.0844 38.625C99.0844 39.8083 99.326 40.75 99.8094 41.45C100.309 42.1333 100.976 42.475 101.809 42.475C102.993 42.475 103.768 41.8583 104.134 40.625L106.934 41.475C106.201 44.025 104.493 45.3 101.809 45.3ZM115.266 45.3C113.45 45.3 112.008 44.7083 110.941 43.525C109.891 42.325 109.366 40.6833 109.366 38.6C109.366 36.5333 109.9 34.9083 110.966 33.725C112.033 32.525 113.466 31.925 115.266 31.925C116.9 31.925 118.233 32.4333 119.266 33.45C120.316 34.4667 120.841 35.9583 120.841 37.925C120.841 38.6083 120.808 39.2083 120.741 39.725H112.266C112.316 40.625 112.625 41.35 113.191 41.9C113.775 42.45 114.466 42.725 115.266 42.725C116.4 42.725 117.3 42.2833 117.966 41.4L119.816 43.3C118.7 44.6333 117.183 45.3 115.266 45.3ZM112.291 37.3H117.941C117.875 36.3833 117.591 35.6917 117.091 35.225C116.591 34.7417 115.983 34.5 115.266 34.5C114.433 34.5 113.741 34.7333 113.191 35.2C112.658 35.65 112.358 36.35 112.291 37.3ZM127.861 45.3C126.827 45.3 125.852 45.1 124.936 44.7C124.036 44.3 123.352 43.7667 122.886 43.1L124.886 41.4C125.786 42.3 126.777 42.75 127.861 42.75C129.244 42.75 129.936 42.3333 129.936 41.5C129.936 41.2167 129.811 40.9583 129.561 40.725C129.327 40.4917 129.069 40.3167 128.786 40.2C128.519 40.0667 128.077 39.875 127.461 39.625C125.994 39.1417 124.919 38.5917 124.236 37.975C123.569 37.3417 123.236 36.5083 123.236 35.475C123.236 34.3583 123.661 33.4917 124.511 32.875C125.377 32.2417 126.469 31.925 127.786 31.925C129.719 31.925 131.244 32.5833 132.361 33.9L130.336 35.55C129.586 34.8333 128.736 34.475 127.786 34.475C126.636 34.475 126.061 34.825 126.061 35.525C126.061 35.875 126.269 36.175 126.686 36.425C127.119 36.675 127.744 36.9333 128.561 37.2C129.944 37.6667 130.986 38.2167 131.686 38.85C132.402 39.4833 132.761 40.3667 132.761 41.5C132.761 42.7167 132.319 43.6583 131.436 44.325C130.552 44.975 129.361 45.3 127.861 45.3ZM139.995 45.3C138.961 45.3 137.986 45.1 137.07 44.7C136.17 44.3 135.486 43.7667 135.02 43.1L137.02 41.4C137.92 42.3 138.911 42.75 139.995 42.75C141.378 42.75 142.07 42.3333 142.07 41.5C142.07 41.2167 141.945 40.9583 141.695 40.725C141.461 40.4917 141.203 40.3167 140.92 40.2C140.653 40.0667 140.211 39.875 139.595 39.625C138.128 39.1417 137.053 38.5917 136.37 37.975C135.703 37.3417 135.37 36.5083 135.37 35.475C135.37 34.3583 135.795 33.4917 136.645 32.875C137.511 32.2417 138.603 31.925 139.92 31.925C141.853 31.925 143.378 32.5833 144.495 33.9L142.47 35.55C141.72 34.8333 140.87 34.475 139.92 34.475C138.77 34.475 138.195 34.825 138.195 35.525C138.195 35.875 138.403 36.175 138.82 36.425C139.253 36.675 139.878 36.9333 140.695 37.2C142.078 37.6667 143.12 38.2167 143.82 38.85C144.536 39.4833 144.895 40.3667 144.895 41.5C144.895 42.7167 144.453 43.6583 143.57 44.325C142.686 44.975 141.495 45.3 139.995 45.3Z" fill="url(#paint0_linear)"/>
<defs>
<linearGradient id="paint0_linear" x1="66" y1="-3.94645e-06" x2="163.138" y2="14.0664" gradientUnits="userSpaceOnUse">
<stop stop-color="#FB7BBB"/>
<stop offset="1" stop-color="#FFCE00"/>
</linearGradient>
</defs>
</svg>
