<svg width="177" height="68" viewBox="0 0 177 68" fill="none"
    xmlns="http://www.w3.org/2000/svg">
    <rect width="177" height="68" rx="8" fill="#32AAFF"/>
    <path d="M82.2568 22.8115H76.4121V19.0908H81.3047V17.5527H76.4121V13.8027H82.0518V12.25H74.8887V24.3643H82.2568V22.8115ZM79.9277 10.9316C80.9141 10.9316 81.8076 11.0781 82.6084 11.3711C83.4092 11.6641 84.0879 12.0645 84.6445 12.5723C85.2109 13.0801 85.6455 13.6758 85.9482 14.3594C86.251 15.0332 86.4023 15.751 86.4023 16.5127V25.4189C86.4023 26.1807 86.251 26.9033 85.9482 27.5869C85.6455 28.2607 85.2109 28.8516 84.6445 29.3594C84.0879 29.8672 83.4092 30.2676 82.6084 30.5605C81.8076 30.8535 80.9141 31 79.9277 31H75.416C74.4297 31 73.5361 30.8535 72.7354 30.5605C71.9346 30.2676 71.251 29.8672 70.6846 29.3594C70.1279 28.8516 69.6982 28.2607 69.3955 27.5869C69.0928 26.9033 68.9414 26.1807 68.9414 25.4189V16.5127C68.9414 15.751 69.0928 15.0332 69.3955 14.3594C69.6982 13.6758 70.1279 13.0801 70.6846 12.5723C71.251 12.0645 71.9346 11.6641 72.7354 11.3711C73.5361 11.0781 74.4297 10.9316 75.416 10.9316H79.9277ZM99.0732 24.3496V21.0098V14.5938V13.3633L98.0771 12.4258L96.6123 12.25H93.2725L91.5586 12.4551L91.9248 14.0518L93.3018 13.7734H96.5684L97.4473 13.9639L97.6523 14.7402V18.1533L96.6123 17.9775H93.2725L91.8076 18.1973L90.8701 19.1201L90.665 20.3213V22.0352L90.8701 23.2656L91.8076 24.1885L93.2725 24.3643H96.4805L97.623 24.1885L99.0732 24.3496ZM97.6523 22.665L96.5098 22.8115H93.3604L92.4375 22.665L92.2324 21.7861V20.5264L92.3496 19.6914L93.3604 19.5449H96.5391L97.6523 19.6621V21.874V22.665ZM97.2715 10.9316C98.2578 10.9316 99.1514 11.0781 99.9521 11.3711C100.753 11.6641 101.432 12.0645 101.988 12.5723C102.555 13.0801 102.989 13.6758 103.292 14.3594C103.595 15.0332 103.746 15.751 103.746 16.5127V25.4189C103.746 26.1807 103.595 26.9033 103.292 27.5869C102.989 28.2607 102.555 28.8516 101.988 29.3594C101.432 29.8672 100.753 30.2676 99.9521 30.5605C99.1514 30.8535 98.2578 31 97.2715 31H92.7598C91.7734 31 90.8799 30.8535 90.0791 30.5605C89.2783 30.2676 88.5947 29.8672 88.0283 29.3594C87.4717 28.8516 87.042 28.2607 86.7393 27.5869C86.4365 26.9033 86.2852 26.1807 86.2852 25.4189V16.5127C86.2852 15.751 86.4365 15.0332 86.7393 14.3594C87.042 13.6758 87.4717 13.0801 88.0283 12.5723C88.5947 12.0645 89.2783 11.6641 90.0791 11.3711C90.8799 11.0781 91.7734 10.9316 92.7598 10.9316H97.2715ZM114.615 10.9316C115.602 10.9316 116.495 11.0781 117.296 11.3711C118.097 11.6641 118.775 12.0645 119.332 12.5723C119.898 13.0801 120.333 13.6758 120.636 14.3594C120.938 15.0332 121.09 15.751 121.09 16.5127V25.4189C121.09 26.1807 120.938 26.9033 120.636 27.5869C120.333 28.2607 119.898 28.8516 119.332 29.3594C118.775 29.8672 118.097 30.2676 117.296 30.5605C116.495 30.8535 115.602 31 114.615 31H110.104C109.117 31 108.224 30.8535 107.423 30.5605C106.622 30.2676 105.938 29.8672 105.372 29.3594C104.815 28.8516 104.386 28.2607 104.083 27.5869C103.78 26.9033 103.629 26.1807 103.629 25.4189V16.5127C103.629 15.751 103.78 15.0332 104.083 14.3594C104.386 13.6758 104.815 13.0801 105.372 12.5723C105.938 12.0645 106.622 11.6641 107.423 11.3711C108.224 11.0781 109.117 10.9316 110.104 10.9316H114.615ZM115.362 20.7461V24.3643H116.915V20.585L116.402 19.2373L114.732 18.6367L116.344 17.8604L116.798 16.542V14.916L116.622 13.6855L115.655 12.4551L114.19 12.25H108.727V24.3643H110.294V19.4863H114.103L115.143 19.9551L115.362 20.7461ZM114.103 13.8027L115.143 14.2568L115.245 15.1064V16.6592L115.025 17.4648L114.103 17.9189H110.294V13.8027H114.103ZM133.658 22.8115H129.161V12.25H127.608V24.3643H133.658V22.8115ZM131.959 10.9316C132.945 10.9316 133.839 11.0781 134.64 11.3711C135.44 11.6641 136.119 12.0645 136.676 12.5723C137.242 13.0801 137.677 13.6758 137.979 14.3594C138.282 15.0332 138.434 15.751 138.434 16.5127V25.4189C138.434 26.1807 138.282 26.9033 137.979 27.5869C137.677 28.2607 137.242 28.8516 136.676 29.3594C136.119 29.8672 135.44 30.2676 134.64 30.5605C133.839 30.8535 132.945 31 131.959 31H127.447C126.461 31 125.567 30.8535 124.767 30.5605C123.966 30.2676 123.282 29.8672 122.716 29.3594C122.159 28.8516 121.729 28.2607 121.427 27.5869C121.124 26.9033 120.973 26.1807 120.973 25.4189V16.5127C120.973 15.751 121.124 15.0332 121.427 14.3594C121.729 13.6758 122.159 13.0801 122.716 12.5723C123.282 12.0645 123.966 11.6641 124.767 11.3711C125.567 11.0781 126.461 10.9316 127.447 10.9316H131.959ZM145.099 12.25H143.268L146.93 20.9512V24.3643H148.482V20.9805L152.203 12.25H150.372L147.706 18.8271L145.099 12.25ZM149.303 10.9316C150.289 10.9316 151.183 11.0781 151.983 11.3711C152.784 11.6641 153.463 12.0645 154.02 12.5723C154.586 13.0801 155.021 13.6758 155.323 14.3594C155.626 15.0332 155.777 15.751 155.777 16.5127V25.4189C155.777 26.1807 155.626 26.9033 155.323 27.5869C155.021 28.2607 154.586 28.8516 154.02 29.3594C153.463 29.8672 152.784 30.2676 151.983 30.5605C151.183 30.8535 150.289 31 149.303 31H144.791C143.805 31 142.911 30.8535 142.11 30.5605C141.31 30.2676 140.626 29.8672 140.06 29.3594C139.503 28.8516 139.073 28.2607 138.771 27.5869C138.468 26.9033 138.316 26.1807 138.316 25.4189V16.5127C138.316 15.751 138.468 15.0332 138.771 14.3594C139.073 13.6758 139.503 13.0801 140.06 12.5723C140.626 12.0645 141.31 11.6641 142.11 11.3711C142.911 11.0781 143.805 10.9316 144.791 10.9316H149.303ZM79.9277 38.9316C80.9141 38.9316 81.8076 39.0781 82.6084 39.3711C83.4092 39.6641 84.0879 40.0645 84.6445 40.5723C85.2109 41.0801 85.6455 41.6758 85.9482 42.3594C86.251 43.0332 86.4023 43.751 86.4023 44.5127V53.4189C86.4023 54.1807 86.251 54.9033 85.9482 55.5869C85.6455 56.2607 85.2109 56.8516 84.6445 57.3594C84.0879 57.8672 83.4092 58.2676 82.6084 58.5605C81.8076 58.8535 80.9141 59 79.9277 59H75.416C74.4297 59 73.5361 58.8535 72.7354 58.5605C71.9346 58.2676 71.251 57.8672 70.6846 57.3594C70.1279 56.8516 69.6982 56.2607 69.3955 55.5869C69.0928 54.9033 68.9414 54.1807 68.9414 53.4189V44.5127C68.9414 43.751 69.0928 43.0332 69.3955 42.3594C69.6982 41.6758 70.1279 41.0801 70.6846 40.5723C71.251 40.0645 71.9346 39.6641 72.7354 39.3711C73.5361 39.0781 74.4297 38.9316 75.416 38.9316H79.9277ZM81.2754 52.3643H82.9453L81.7881 41.4512L80.8799 40.543L78.9316 40.25H77.3643L75.416 40.543L74.5225 41.4512L73.3213 52.3643H75.0645L75.2988 49.2441L75.4453 47.8965H80.8506L80.9971 49.2441L81.2754 52.3643ZM80.25 42.0225C80.3184 42.8135 80.3965 43.5605 80.4844 44.2637C80.5723 44.9668 80.6553 45.709 80.7334 46.4902H75.5771L76.0166 42.0225C76.29 41.9932 76.5244 41.959 76.7197 41.9199C76.9248 41.8809 77.1641 41.8418 77.4375 41.8027H78.873L80.25 42.0225ZM97.0811 40.25H93.5508L92.042 40.4258L91.1191 41.3633L90.8994 42.5938V50.0352L91.1191 51.2656L92.0713 52.1885L93.5508 52.3643H97.0811L98.7949 52.1592L98.4287 50.5771L97.0518 50.8115H93.6387L92.6719 50.665L92.4668 49.7861V42.7402L92.6133 41.9346L93.6387 41.7734H96.9932L98.502 42.0225L98.7949 40.4551L97.0811 40.25ZM97.2715 38.9316C98.2578 38.9316 99.1514 39.0781 99.9521 39.3711C100.753 39.6641 101.432 40.0645 101.988 40.5723C102.555 41.0801 102.989 41.6758 103.292 42.3594C103.595 43.0332 103.746 43.751 103.746 44.5127V53.4189C103.746 54.1807 103.595 54.9033 103.292 55.5869C102.989 56.2607 102.555 56.8516 101.988 57.3594C101.432 57.8672 100.753 58.2676 99.9521 58.5605C99.1514 58.8535 98.2578 59 97.2715 59H92.7598C91.7734 59 90.8799 58.8535 90.0791 58.5605C89.2783 58.2676 88.5947 57.8672 88.0283 57.3594C87.4717 56.8516 87.042 56.2607 86.7393 55.5869C86.4365 54.9033 86.2852 54.1807 86.2852 53.4189V44.5127C86.2852 43.751 86.4365 43.0332 86.7393 42.3594C87.042 41.6758 87.4717 41.0801 88.0283 40.5723C88.5947 40.0645 89.2783 39.6641 90.0791 39.3711C90.8799 39.0781 91.7734 38.9316 92.7598 38.9316H97.2715ZM114.425 40.25H110.895L109.386 40.4258L108.463 41.3633L108.243 42.5938V50.0352L108.463 51.2656L109.415 52.1885L110.895 52.3643H114.425L116.139 52.1592L115.772 50.5771L114.396 50.8115H110.982L110.016 50.665L109.811 49.7861V42.7402L109.957 41.9346L110.982 41.7734H114.337L115.846 42.0225L116.139 40.4551L114.425 40.25ZM114.615 38.9316C115.602 38.9316 116.495 39.0781 117.296 39.3711C118.097 39.6641 118.775 40.0645 119.332 40.5723C119.898 41.0801 120.333 41.6758 120.636 42.3594C120.938 43.0332 121.09 43.751 121.09 44.5127V53.4189C121.09 54.1807 120.938 54.9033 120.636 55.5869C120.333 56.2607 119.898 56.8516 119.332 57.3594C118.775 57.8672 118.097 58.2676 117.296 58.5605C116.495 58.8535 115.602 59 114.615 59H110.104C109.117 59 108.224 58.8535 107.423 58.5605C106.622 58.2676 105.938 57.8672 105.372 57.3594C104.815 56.8516 104.386 56.2607 104.083 55.5869C103.78 54.9033 103.629 54.1807 103.629 53.4189V44.5127C103.629 43.751 103.78 43.0332 104.083 42.3594C104.386 41.6758 104.815 41.0801 105.372 40.5723C105.938 40.0645 106.622 39.6641 107.423 39.3711C108.224 39.0781 109.117 38.9316 110.104 38.9316H114.615ZM131.959 38.9316C132.945 38.9316 133.839 39.0781 134.64 39.3711C135.44 39.6641 136.119 40.0645 136.676 40.5723C137.242 41.0801 137.677 41.6758 137.979 42.3594C138.282 43.0332 138.434 43.751 138.434 44.5127V53.4189C138.434 54.1807 138.282 54.9033 137.979 55.5869C137.677 56.2607 137.242 56.8516 136.676 57.3594C136.119 57.8672 135.44 58.2676 134.64 58.5605C133.839 58.8535 132.945 59 131.959 59H127.447C126.461 59 125.567 58.8535 124.767 58.5605C123.966 58.2676 123.282 57.8672 122.716 57.3594C122.159 56.8516 121.729 56.2607 121.427 55.5869C121.124 54.9033 120.973 54.1807 120.973 53.4189V44.5127C120.973 43.751 121.124 43.0332 121.427 42.3594C121.729 41.6758 122.159 41.0801 122.716 40.5723C123.282 40.0645 123.966 39.6641 124.767 39.3711C125.567 39.0781 126.461 38.9316 127.447 38.9316H131.959ZM133.878 42.5938L133.658 41.3633L132.735 40.4258L131.256 40.25H128.077L126.612 40.4258L125.689 41.3633L125.47 42.5938V49.5518L125.689 50.7822L126.612 51.7051L128.077 51.8955H131.769L133.482 51.6758L133.116 50.0938L131.739 50.3281H128.18L127.242 50.1816L127.037 49.3027V46.2852H133.878V42.5938ZM127.037 44.7471V42.7695L127.154 41.9346L128.18 41.7734H131.168L132.164 41.9346L132.311 42.7988V44.7471H127.037ZM149.303 38.9316C150.289 38.9316 151.183 39.0781 151.983 39.3711C152.784 39.6641 153.463 40.0645 154.02 40.5723C154.586 41.0801 155.021 41.6758 155.323 42.3594C155.626 43.0332 155.777 43.751 155.777 44.5127V53.4189C155.777 54.1807 155.626 54.9033 155.323 55.5869C155.021 56.2607 154.586 56.8516 154.02 57.3594C153.463 57.8672 152.784 58.2676 151.983 58.5605C151.183 58.8535 150.289 59 149.303 59H144.791C143.805 59 142.911 58.8535 142.11 58.5605C141.31 58.2676 140.626 57.8672 140.06 57.3594C139.503 56.8516 139.073 56.2607 138.771 55.5869C138.468 54.9033 138.316 54.1807 138.316 53.4189V44.5127C138.316 43.751 138.468 43.0332 138.771 42.3594C139.073 41.6758 139.503 41.0801 140.06 40.5723C140.626 40.0645 141.31 39.6641 142.11 39.3711C142.911 39.0781 143.805 38.9316 144.791 38.9316H149.303ZM152.057 47.7793L151.852 46.5195L150.914 45.5967L149.391 45.4355H146.109L145.216 45.2598C145.167 45.0938 145.133 44.9473 145.113 44.8203C145.094 44.6836 145.06 44.542 145.011 44.3955V42.8574L145.216 41.9932L146.183 41.8027H149.903L151.28 42.0811L151.632 40.4844L149.933 40.25H146.08L144.615 40.4551L143.663 41.3926L143.473 42.623V44.6299L143.663 45.8604L144.615 46.7832L146.08 46.9736H149.391L150.284 47.1201C150.313 47.2666 150.348 47.4033 150.387 47.5303C150.426 47.6572 150.46 47.7891 150.489 47.9258V49.8447C150.47 49.9717 150.436 50.1084 150.387 50.2549C150.348 50.4014 150.313 50.5381 150.284 50.665L149.332 50.8115H145.699L144.264 50.5771L143.897 52.1592L145.611 52.3643H149.42L150.914 52.1885L151.852 51.2656L152.057 50.0059V47.7793ZM166.646 38.9316C167.633 38.9316 168.526 39.0781 169.327 39.3711C170.128 39.6641 170.807 40.0645 171.363 40.5723C171.93 41.0801 172.364 41.6758 172.667 42.3594C172.97 43.0332 173.121 43.751 173.121 44.5127V53.4189C173.121 54.1807 172.97 54.9033 172.667 55.5869C172.364 56.2607 171.93 56.8516 171.363 57.3594C170.807 57.8672 170.128 58.2676 169.327 58.5605C168.526 58.8535 167.633 59 166.646 59H162.135C161.148 59 160.255 58.8535 159.454 58.5605C158.653 58.2676 157.97 57.8672 157.403 57.3594C156.847 56.8516 156.417 56.2607 156.114 55.5869C155.812 54.9033 155.66 54.1807 155.66 53.4189V44.5127C155.66 43.751 155.812 43.0332 156.114 42.3594C156.417 41.6758 156.847 41.0801 157.403 40.5723C157.97 40.0645 158.653 39.6641 159.454 39.3711C160.255 39.0781 161.148 38.9316 162.135 38.9316H166.646ZM169.4 47.7793L169.195 46.5195L168.258 45.5967L166.734 45.4355H163.453L162.56 45.2598C162.511 45.0938 162.477 44.9473 162.457 44.8203C162.438 44.6836 162.403 44.542 162.354 44.3955V42.8574L162.56 41.9932L163.526 41.8027H167.247L168.624 42.0811L168.976 40.4844L167.276 40.25H163.424L161.959 40.4551L161.007 41.3926L160.816 42.623V44.6299L161.007 45.8604L161.959 46.7832L163.424 46.9736H166.734L167.628 47.1201C167.657 47.2666 167.691 47.4033 167.73 47.5303C167.77 47.6572 167.804 47.7891 167.833 47.9258V49.8447C167.813 49.9717 167.779 50.1084 167.73 50.2549C167.691 50.4014 167.657 50.5381 167.628 50.665L166.676 50.8115H163.043L161.607 50.5771L161.241 52.1592L162.955 52.3643H166.764L168.258 52.1885L169.195 51.2656L169.4 50.0059V47.7793Z" fill="#FCFBF9"/>
    <rect opacity="0.2" x="4" y="4" width="60" height="60" rx="5" fill="#FCFBF9"/>
    <path d="M8.07718 50.218C7.64532 52.3846 9.05153 54.491 11.2181 54.9228C13.3846 55.3547 15.491 53.9485 15.9228 51.7819L8.07718 50.218ZM15.9228 51.7819C16.633 48.2192 18.5333 42.7996 21.7972 38.3742C25.0271 33.9949 29.2462 31 34.724 31V23C25.8498 23 19.5043 28.0051 15.3588 33.6258C11.2474 39.2004 8.96168 45.7808 8.07718 50.218L15.9228 51.7819ZM34.724 31C37.7262 31 40.1765 31.8836 42.2352 33.2974L46.7639 26.7026C43.4498 24.4268 39.4346 23 34.724 23V31Z" fill="#FB7BBB"/>
    <path d="M8.07718 19.7819C7.64532 17.6154 9.05153 15.509 11.2181 15.0772C13.3846 14.6453 15.491 16.0515 15.9228 18.218L8.07718 19.7819ZM51.8882 18.4731C52.1792 16.2832 54.1904 14.7438 56.3803 15.0349C58.5701 15.3259 60.1095 17.337 59.8185 19.5269L51.8882 18.4731ZM15.9228 18.218C16.633 21.7808 18.5333 27.2004 21.7972 31.6258C25.0271 36.0051 29.2462 39 34.724 39V47C25.8498 47 19.5043 41.9949 15.3588 36.3742C11.2474 30.7996 8.96168 24.2192 8.07718 19.7819L15.9228 18.218ZM34.724 39C40.1518 39 44.0722 36.0601 46.9506 31.771C49.883 27.4014 51.4161 22.0253 51.8882 18.4731L59.8185 19.5269C59.2274 23.9747 57.3718 30.5986 53.5934 36.229C49.7609 41.9399 43.6482 47 34.724 47V39Z" fill="#FFCE00"/>
    <path d="M42.2354 33.2974C43.2604 34.0013 44.2112 34.8531 45.0891 35.8273L51.032 30.4718C49.7856 29.0887 48.3685 27.8044 46.764 26.7026L42.2354 33.2974Z" fill="#FB7BBB"/>
    <path d="M51.6784 38.319L55.1868 36.3977L55.1868 36.3977L51.6784 38.319ZM51.8884 51.5271C52.1794 53.717 54.1906 55.2564 56.3805 54.9654C58.5703 54.6743 60.1097 52.6632 59.8187 50.4733L51.8884 51.5271ZM45.0894 35.8272C46.2612 37.1275 47.2873 38.6285 48.17 40.2403L55.1868 36.3977C54.0614 34.3427 52.6901 32.3113 51.0323 30.4717L45.0894 35.8272ZM48.17 40.2403C50.3313 44.187 51.4914 48.5397 51.8884 51.5271L59.8187 50.4733C59.3128 46.6667 57.8932 41.3399 55.1868 36.3977L48.17 40.2403Z" fill="#FB7BBB"/>
</svg>
