<svg width="177" height="68" viewBox="0 0 177 68" fill="none" xmlns="http://www.w3.org/2000/svg">
<rect width="177" height="68" rx="8" fill="url(#paint0_linear)"/>
<rect x="4" y="4" width="169" height="60" rx="5" fill="#FCFBF9"/>
<path d="M17.0772 51.218C16.6453 53.3846 18.0515 55.491 20.2181 55.9228C22.3846 56.3547 24.491 54.9485 24.9228 52.7819L17.0772 51.218ZM24.9228 52.7819C25.633 49.2192 27.5333 43.7996 30.7972 39.3742C34.0271 34.9949 38.2462 32 43.724 32V24C34.8498 24 28.5043 29.0051 24.3588 34.6258C20.2474 40.2004 17.9617 46.7808 17.0772 51.218L24.9228 52.7819ZM43.724 32C46.7262 32 49.1765 32.8836 51.2352 34.2974L55.7639 27.7026C52.4498 25.4268 48.4346 24 43.724 24V32Z" fill="#FB7BBB"/>
<path d="M17.0772 20.7819C16.6453 18.6154 18.0515 16.509 20.2181 16.0772C22.3846 15.6453 24.491 17.0515 24.9228 19.218L17.0772 20.7819ZM60.8882 19.4731C61.1792 17.2832 63.1904 15.7438 65.3803 16.0349C67.5701 16.3259 69.1095 18.337 68.8185 20.5269L60.8882 19.4731ZM24.9228 19.218C25.633 22.7808 27.5333 28.2004 30.7972 32.6258C34.0271 37.0051 38.2462 40 43.724 40V48C34.8498 48 28.5043 42.9949 24.3588 37.3742C20.2474 31.7996 17.9617 25.2192 17.0772 20.7819L24.9228 19.218ZM43.724 40C49.1518 40 53.0722 37.0601 55.9506 32.771C58.883 28.4014 60.4161 23.0253 60.8882 19.4731L68.8185 20.5269C68.2274 24.9747 66.3718 31.5986 62.5934 37.229C58.7609 42.9399 52.6482 48 43.724 48V40Z" fill="#FFCE00"/>
<path d="M51.2354 34.2974C52.2604 35.0013 53.2112 35.8531 54.0891 36.8273L60.032 31.4718C58.7856 30.0887 57.3685 28.8044 55.764 27.7026L51.2354 34.2974Z" fill="#FB7BBB"/>
<path d="M60.6784 39.319L64.1868 37.3977L64.1868 37.3977L60.6784 39.319ZM60.8884 52.5271C61.1794 54.717 63.1906 56.2564 65.3805 55.9654C67.5703 55.6743 69.1097 53.6632 68.8187 51.4733L60.8884 52.5271ZM54.0894 36.8272C55.2612 38.1275 56.2873 39.6285 57.17 41.2403L64.1868 37.3977C63.0614 35.3427 61.6901 33.3113 60.0323 31.4717L54.0894 36.8272ZM57.17 41.2403C59.3313 45.187 60.4914 49.5397 60.8884 52.5271L68.8187 51.4733C68.3128 47.6667 66.8932 42.3399 64.1868 37.3977L57.17 41.2403Z" fill="#FB7BBB"/>
<path d="M83.125 31V13.5H94.525V16.325H86.125V20.55H91.3V23.375H86.125V28.175H95.075V31H83.125ZM105.36 31V29.975C104.51 30.8583 103.377 31.3 101.96 31.3C100.593 31.3 99.4766 30.9333 98.61 30.2C97.76 29.45 97.335 28.4 97.335 27.05C97.335 25.6667 97.8183 24.6167 98.785 23.9C99.7683 23.1833 100.952 22.825 102.335 22.825C103.552 22.825 104.56 23.05 105.36 23.5V22.825C105.36 22.0083 105.152 21.4167 104.735 21.05C104.335 20.6833 103.71 20.5 102.86 20.5C101.477 20.5 100.21 20.9 99.06 21.7L98.16 19.325C99.5433 18.3917 101.21 17.925 103.16 17.925C103.827 17.925 104.41 17.9833 104.91 18.1C105.427 18.2 105.952 18.4083 106.485 18.725C107.035 19.0417 107.46 19.5417 107.76 20.225C108.06 20.9083 108.21 21.7583 108.21 22.775V31H105.36ZM102.51 28.725C103.627 28.725 104.577 28.3167 105.36 27.5V25.85C104.627 25.5 103.777 25.325 102.81 25.325C102.027 25.325 101.393 25.4667 100.91 25.75C100.427 26.0333 100.185 26.4667 100.185 27.05C100.185 27.5667 100.385 27.975 100.785 28.275C101.185 28.575 101.76 28.725 102.51 28.725ZM111.708 31V18.225H114.633V19.55C115.15 18.4667 116.025 17.925 117.258 17.925C118.158 17.925 118.95 18.2167 119.633 18.8L119.208 21.475C118.575 21.025 117.85 20.8 117.033 20.8C116.366 20.8 115.8 21.0333 115.333 21.5C114.866 21.9667 114.633 22.75 114.633 23.85V31H111.708ZM121.916 31V14.325L124.841 12.95V31H121.916ZM130.3 35.85L132.275 30.8L127.475 18.225H130.425L133.4 26.075C133.55 26.4417 133.675 26.825 133.775 27.225C133.858 26.8583 133.975 26.475 134.125 26.075L137.125 18.225H140.075L133.325 35.85H130.3ZM94.775 55L93.4 51.175H86.475L85.1 55H81.925L88.45 37.5H91.425L97.925 55H94.775ZM92.45 48.475L90.525 43.225C90.275 42.5917 90.0833 42 89.95 41.45C89.8167 41.9333 89.625 42.525 89.375 43.225L87.425 48.475H92.45ZM105.553 55.3C103.803 55.3 102.411 54.7083 101.378 53.525C100.361 52.3417 99.8525 50.7083 99.8525 48.625C99.8525 46.5417 100.361 44.9083 101.378 43.725C102.411 42.525 103.803 41.925 105.553 41.925C108.186 41.925 109.878 43.1 110.628 45.45L107.853 46.375C107.436 45.275 106.703 44.725 105.653 44.725C104.769 44.725 104.078 45.075 103.578 45.775C103.078 46.475 102.828 47.425 102.828 48.625C102.828 49.8083 103.069 50.75 103.553 51.45C104.053 52.1333 104.719 52.475 105.553 52.475C106.736 52.475 107.511 51.8583 107.878 50.625L110.678 51.475C109.944 54.025 108.236 55.3 105.553 55.3ZM118.809 55.3C117.059 55.3 115.668 54.7083 114.634 53.525C113.618 52.3417 113.109 50.7083 113.109 48.625C113.109 46.5417 113.618 44.9083 114.634 43.725C115.668 42.525 117.059 41.925 118.809 41.925C121.443 41.925 123.134 43.1 123.884 45.45L121.109 46.375C120.693 45.275 119.959 44.725 118.909 44.725C118.026 44.725 117.334 45.075 116.834 45.775C116.334 46.475 116.084 47.425 116.084 48.625C116.084 49.8083 116.326 50.75 116.809 51.45C117.309 52.1333 117.976 52.475 118.809 52.475C119.993 52.475 120.768 51.8583 121.134 50.625L123.934 51.475C123.201 54.025 121.493 55.3 118.809 55.3ZM132.266 55.3C130.45 55.3 129.008 54.7083 127.941 53.525C126.891 52.325 126.366 50.6833 126.366 48.6C126.366 46.5333 126.9 44.9083 127.966 43.725C129.033 42.525 130.466 41.925 132.266 41.925C133.9 41.925 135.233 42.4333 136.266 43.45C137.316 44.4667 137.841 45.9583 137.841 47.925C137.841 48.6083 137.808 49.2083 137.741 49.725H129.266C129.316 50.625 129.625 51.35 130.191 51.9C130.775 52.45 131.466 52.725 132.266 52.725C133.4 52.725 134.3 52.2833 134.966 51.4L136.816 53.3C135.7 54.6333 134.183 55.3 132.266 55.3ZM129.291 47.3H134.941C134.875 46.3833 134.591 45.6917 134.091 45.225C133.591 44.7417 132.983 44.5 132.266 44.5C131.433 44.5 130.741 44.7333 130.191 45.2C129.658 45.65 129.358 46.35 129.291 47.3ZM144.861 55.3C143.827 55.3 142.852 55.1 141.936 54.7C141.036 54.3 140.352 53.7667 139.886 53.1L141.886 51.4C142.786 52.3 143.777 52.75 144.861 52.75C146.244 52.75 146.936 52.3333 146.936 51.5C146.936 51.2167 146.811 50.9583 146.561 50.725C146.327 50.4917 146.069 50.3167 145.786 50.2C145.519 50.0667 145.077 49.875 144.461 49.625C142.994 49.1417 141.919 48.5917 141.236 47.975C140.569 47.3417 140.236 46.5083 140.236 45.475C140.236 44.3583 140.661 43.4917 141.511 42.875C142.377 42.2417 143.469 41.925 144.786 41.925C146.719 41.925 148.244 42.5833 149.361 43.9L147.336 45.55C146.586 44.8333 145.736 44.475 144.786 44.475C143.636 44.475 143.061 44.825 143.061 45.525C143.061 45.875 143.269 46.175 143.686 46.425C144.119 46.675 144.744 46.9333 145.561 47.2C146.944 47.6667 147.986 48.2167 148.686 48.85C149.402 49.4833 149.761 50.3667 149.761 51.5C149.761 52.7167 149.319 53.6583 148.436 54.325C147.552 54.975 146.361 55.3 144.861 55.3ZM156.995 55.3C155.961 55.3 154.986 55.1 154.07 54.7C153.17 54.3 152.486 53.7667 152.02 53.1L154.02 51.4C154.92 52.3 155.911 52.75 156.995 52.75C158.378 52.75 159.07 52.3333 159.07 51.5C159.07 51.2167 158.945 50.9583 158.695 50.725C158.461 50.4917 158.203 50.3167 157.92 50.2C157.653 50.0667 157.211 49.875 156.595 49.625C155.128 49.1417 154.053 48.5917 153.37 47.975C152.703 47.3417 152.37 46.5083 152.37 45.475C152.37 44.3583 152.795 43.4917 153.645 42.875C154.511 42.2417 155.603 41.925 156.92 41.925C158.853 41.925 160.378 42.5833 161.495 43.9L159.47 45.55C158.72 44.8333 157.87 44.475 156.92 44.475C155.77 44.475 155.195 44.825 155.195 45.525C155.195 45.875 155.403 46.175 155.82 46.425C156.253 46.675 156.878 46.9333 157.695 47.2C159.078 47.6667 160.12 48.2167 160.82 48.85C161.536 49.4833 161.895 50.3667 161.895 51.5C161.895 52.7167 161.453 53.6583 160.57 54.325C159.686 54.975 158.495 55.3 156.995 55.3Z" fill="url(#paint1_linear)"/>
<defs>
<linearGradient id="paint0_linear" x1="4.26506" y1="-5.59081e-06" x2="206.165" y2="44.0107" gradientUnits="userSpaceOnUse">
<stop stop-color="#FB7BBB"/>
<stop offset="1" stop-color="#FFCE00"/>
</linearGradient>
<linearGradient id="paint1_linear" x1="83" y1="10" x2="180.138" y2="24.0664" gradientUnits="userSpaceOnUse">
<stop stop-color="#FB7BBB"/>
<stop offset="1" stop-color="#FFCE00"/>
</linearGradient>
</defs>
</svg>
