<svg xmlns="http://www.w3.org/2000/svg" viewBox="0 0 1440 320">
    <path id="wave1"
        fill="#0099ff" fill-opacity="1" d="M0,288L48,261.3C96,235,192,181,288,149.3C384,117,480,107,576,138.7C672,171,768,245,864,256C960,267,1056,213,1152,192C1248,171,1344,181,1392,186.7L1440,192L1440,320L1392,320C1344,320,1248,320,1152,320C1056,320,960,320,864,320C768,320,672,320,576,320C480,320,384,320,288,320C192,320,96,320,48,320L0,320Z">
    </path>
    <path id="wave2"
        fill="#0099ff" fill-opacity="1" d="M0,64L48,69.3C96,75,192,85,288,101.3C384,117,480,139,576,176C672,213,768,267,864,282.7C960,299,1056,277,1152,261.3C1248,245,1344,235,1392,229.3L1440,224L1440,320L1392,320C1344,320,1248,320,1152,320C1056,320,960,320,864,320C768,320,672,320,576,320C480,320,384,320,288,320C192,320,96,320,48,320L0,320Z">
    </path>
    <path id="wave3"
        fill="#000fff" fill-opacity="1" d="M0,160L48,170.7C96,181,192,203,288,176C384,149,480,75,576,90.7C672,107,768,213,864,213.3C960,213,1056,107,1152,64C1248,21,1344,43,1392,53.3L1440,64L1440,320L1392,320C1344,320,1248,320,1152,320C1056,320,960,320,864,320C768,320,672,320,576,320C480,320,384,320,288,320C192,320,96,320,48,320L0,320Z">
    </path>
</svg>