<svg width="25" height="24" viewBox="0 0 25 24" fill="none" xmlns="http://www.w3.org/2000/svg">
<ellipse cx="12.1178" cy="12" rx="12.1178" ry="12" fill="#E83E31" fill-opacity="0.2"/>
<path d="M3.89743 10.6241C4.2318 10.1258 4.67905 9.71129 5.2025 9.41455C6.36199 8.77294 7.62462 8.34145 8.9302 8.14066C10.5445 7.86131 12.2678 7.83047 14.3536 8.04389C15.5495 8.15495 16.7319 8.36717 17.8879 8.67827C18.6576 8.87302 19.3745 9.22716 19.9921 9.71765C20.5151 10.1665 20.8931 10.7587 21.0801 11.4224C21.267 12.086 21.255 12.7926 21.0455 13.4563C20.9779 13.6504 20.8967 13.8327 20.8193 14.0082L20.805 14.0383C20.7151 14.245 20.5634 14.4201 20.3706 14.5393C20.1779 14.6586 19.9537 14.7163 19.7288 14.7043C19.033 14.7086 18.3363 14.7162 17.6387 14.727L16.4145 14.7361C16.0882 14.7387 15.7629 14.7401 15.4381 14.7479C15.2059 14.7622 14.9762 14.7051 14.7802 14.5845C14.5842 14.4638 14.4316 14.2854 14.3431 14.0735C14.0105 13.3983 13.9028 12.6324 14.0354 11.8849C12.8132 11.8574 11.6434 11.8365 10.465 11.919C10.4736 11.9687 10.4812 12.0196 10.4866 12.0706C10.5778 12.7985 10.44 13.5406 10.092 14.1954C9.99938 14.3847 9.85445 14.5447 9.67439 14.6562C9.49433 14.7677 9.2867 14.8261 9.07616 14.8244L8.95731 14.8254C7.53615 14.8356 6.11474 14.8476 4.69309 14.8615C4.47384 14.8673 4.2589 14.8084 4.07555 14.6922C3.8922 14.576 3.7487 14.4077 3.66329 14.2087C3.38074 13.6492 3.25358 13.0229 3.2947 12.3934C3.33582 11.7638 3.54376 11.1534 3.89743 10.6241ZM19.936 13.7188C19.9449 13.7057 19.952 13.6914 19.957 13.6764L19.9713 13.6463C20.0451 13.4818 20.1141 13.3273 20.1669 13.173C20.4819 12.2518 20.1421 11.0475 19.3925 10.4313C18.873 10.0206 18.2698 9.72549 17.6226 9.56553C16.518 9.26788 15.3883 9.06435 14.2457 8.95713C12.2448 8.75405 10.6001 8.77967 9.07684 9.04637C7.87956 9.2296 6.72149 9.6244 5.65785 10.2119C5.03839 10.5509 4.57098 11.1125 4.35354 11.779C4.1361 12.4455 4.18548 13.1653 4.49135 13.7876C4.56343 13.934 4.61573 13.9406 4.70002 13.9402C6.12445 13.9247 7.5472 13.9112 8.96827 13.8995L9.08712 13.8986C9.12733 13.9028 9.16798 13.8927 9.20193 13.8702C9.23587 13.8477 9.26094 13.8142 9.27272 13.7755C9.53586 13.2881 9.63913 12.7335 9.5679 12.1902C9.55147 12.0627 9.52857 11.9361 9.49929 11.811L9.45438 11.5991L9.35505 11.0948L9.87058 11.0428C11.3358 10.8997 12.8051 10.9374 14.2347 10.9633L15.1753 10.9834L15.0677 11.5643C15.061 11.6078 15.0515 11.6508 15.0392 11.6931C14.8304 12.3513 14.885 13.0598 15.1918 13.6701C15.205 13.7224 15.2376 13.7677 15.283 13.7969C15.3285 13.8262 15.3836 13.8374 15.4376 13.8283C15.7699 13.8189 16.1016 13.8169 16.4323 13.8162L17.6463 13.8004C18.3434 13.7932 19.0424 13.7861 19.7431 13.7793C19.8665 13.7823 19.9103 13.7573 19.936 13.7188Z" fill="#E83E31"/>
</svg>
