<svg width="28" height="28" viewBox="0 0 28 28" fill="none" xmlns="http://www.w3.org/2000/svg">
<circle cx="13.681" cy="14.3946" r="12.5062" fill="white" stroke="#42AE1D" stroke-width="2"/>
<path d="M17.6911 21.72C17.0802 21.7933 16.4593 21.7317 15.8792 21.5402C14.6064 21.1061 13.4283 20.4642 12.4012 19.6449C11.1069 18.6516 9.93349 17.4219 8.70828 15.7745C7.99705 14.8373 7.37356 13.8457 6.84457 12.8105C6.48277 12.1292 6.28019 11.3851 6.25 10.6266C6.2505 9.96305 6.45931 9.31389 6.85112 8.7579C7.24293 8.2019 7.80088 7.76296 8.45727 7.49434C8.65337 7.42038 8.84947 7.36383 9.03772 7.30872L9.07067 7.30002C9.29149 7.23421 9.52896 7.23332 9.75036 7.29747C9.97176 7.36161 10.1662 7.48765 10.3069 7.6582C10.7744 8.15995 11.245 8.66024 11.7188 9.15908L12.5424 10.0408C12.762 10.2757 12.9801 10.5106 13.2028 10.7412C13.3689 10.9004 13.4777 11.1031 13.5145 11.3216C13.5512 11.5401 13.5142 11.7638 13.4083 11.9622C13.1046 12.6311 12.5803 13.1944 11.9102 13.5718C12.704 14.4752 13.468 15.3366 14.3182 16.1385C14.3512 16.1008 14.3857 16.0631 14.4218 16.0269C14.9275 15.4996 15.597 15.1294 16.3388 14.9668C16.548 14.914 16.7691 14.9177 16.976 14.9776C17.1829 15.0375 17.3668 15.151 17.506 15.3047L17.586 15.3903C18.5419 16.414 19.4994 17.4369 20.4584 18.4587C20.6093 18.6139 20.7068 18.8071 20.7386 19.0136C20.7705 19.2202 20.7352 19.4308 20.6373 19.6188C20.3903 20.1781 19.9876 20.6671 19.4702 21.0361C18.9528 21.4051 18.339 21.6411 17.6911 21.72ZM9.40168 8.13239C9.38548 8.1342 9.36964 8.13811 9.35462 8.14399L9.32167 8.1527C9.1444 8.20345 8.97811 8.2513 8.8228 8.31076C7.89565 8.66604 7.18499 9.67532 7.20539 10.6092C7.23223 11.246 7.40494 11.8702 7.7121 12.4407C8.21725 13.4301 8.81239 14.378 9.4911 15.2742C10.6677 16.8534 11.7847 18.0295 13.0083 18.9648C13.9495 19.7167 15.0293 20.3061 16.1961 20.705C16.8731 20.9393 17.6219 20.9223 18.2858 20.6577C18.9496 20.3931 19.4769 19.9013 19.7572 19.2853C19.8231 19.1403 19.7933 19.0982 19.7368 19.0373C18.7746 18.0145 17.815 16.9917 16.8581 15.9689L16.7781 15.8833C16.7545 15.8515 16.7196 15.8284 16.6794 15.8181C16.6392 15.8077 16.5964 15.8108 16.5585 15.8267C16.0036 15.9448 15.503 16.2213 15.1277 16.6171C15.0394 16.7098 14.9561 16.8066 14.8783 16.9071L14.7434 17.0738L14.4171 17.4654L14.0327 17.1246C12.944 16.153 11.9933 15.064 11.0599 14.0112L10.4481 13.3166L10.972 13.0266C11.0103 13.0039 11.0501 12.9836 11.0913 12.9657C11.7429 12.7001 12.2579 12.2115 12.5283 11.6025C12.5601 11.5598 12.5736 11.5075 12.5661 11.456C12.5586 11.4046 12.5305 11.3575 12.4875 11.3241C12.2584 11.0892 12.0357 10.8499 11.8145 10.6107L10.9924 9.74058C10.5218 9.2398 10.0501 8.73758 9.57738 8.2339C9.49737 8.14254 9.44874 8.12659 9.40168 8.13239Z" fill="#42AE1D"/>
</svg>
