<svg width="40" height="141" viewBox="0 0 40 141" fill="none" xmlns="http://www.w3.org/2000/svg">
<path d="M20 100.681C8.98551 100.681 0 109.666 0 120.681C0 131.695 8.98551 140.681 20 140.681C31.0145 140.681 40 131.695 40 120.681C40 109.666 31.0145 100.681 20 100.681ZM20 131.55C14.058 131.55 9.27536 126.768 9.27536 120.826C9.27536 114.884 14.058 110.101 20 110.101C25.942 110.101 30.7246 114.884 30.7246 120.826C30.7246 126.768 25.942 131.55 20 131.55Z" fill="black"/>
<path d="M20 50.4152C8.98551 50.4152 0 59.4007 0 70.4152C0 81.4297 8.98551 90.4152 20 90.4152C31.0145 90.4152 40 81.4297 40 70.4152C40 59.4007 31.0145 50.4152 20 50.4152ZM20 81.1398C14.058 81.1398 9.27536 76.3572 9.27536 70.4152C9.27536 64.4731 14.058 59.6905 20 59.6905C25.942 59.6905 30.7246 64.4731 30.7246 70.4152C30.7246 76.3572 25.942 81.1398 20 81.1398Z" fill="black"/>
<path d="M20 40C31.0145 40 40 31.0469 40 20.0722C40 9.09747 31.0145 0 20 0C8.98551 0 0 8.95307 0 19.9278C0 30.9025 8.98551 40 20 40ZM20 9.24188C25.942 9.24188 30.7246 14.0072 30.7246 19.9278C30.7246 25.8484 25.942 30.6137 20 30.6137C14.058 30.6137 9.27536 25.8484 9.27536 19.9278C9.27536 14.0072 14.058 9.24188 20 9.24188Z" fill="black"/>
<circle cx="20" cy="20" r="11" fill="white"/>
<circle cx="20" cy="70" r="11" fill="white"/>
<circle cx="20" cy="121" r="11" fill="white"/>
</svg>
