<svg width="794" height="40" viewBox="0 0 794 40" fill="none" xmlns="http://www.w3.org/2000/svg">
<g opacity="0.5">
<path d="M445.441 39.0315C443.453 39.0322 441.466 39.0327 439.478 39.0333C414.499 39.0411 389.52 39.0489 364.542 39.1813C363.34 39.1877 362.138 39.1943 360.936 39.2012C360.335 39.2046 359.734 39.208 359.133 39.2115C358.611 39.2146 358.044 39.3137 357.528 39.1957C357.228 39.1269 356.929 38.8461 357.015 38.55C357.052 38.4222 357.152 38.3237 357.255 38.2396C358.247 37.4287 359.688 37.4947 360.931 37.8036C361.808 37.369 362.811 37.1957 363.783 37.3112C363.944 37.3304 364.121 37.3539 364.257 37.264C364.351 37.201 364.405 37.0942 364.456 36.9925C364.991 35.928 365.656 34.8825 366.645 34.219C367.634 33.5553 369.012 33.3569 370.012 34.0043C370.195 33.4984 370.768 33.2433 371.302 33.1772C372.598 33.0169 373.853 33.6365 374.995 34.2698C376.243 34.9613 377.501 35.7201 378.362 36.8567C378.421 36.9348 378.487 37.0204 378.582 37.0425C378.67 37.0626 378.758 37.0245 378.84 36.9888C379.635 36.6426 380.494 36.4426 381.36 36.4022C381.426 36.3989 381.561 35.8367 381.596 35.7659C381.709 35.5382 381.87 35.3344 382.062 35.1673C382.432 34.8439 382.929 34.6539 383.424 34.7169C383.234 33.6179 384.259 32.4819 385.372 32.5592C384.991 32.0235 385.465 31.2565 385.974 31.0034C386.24 30.871 386.515 30.717 386.789 30.6024C386.866 30.5699 387.787 30.3423 387.786 30.4527C387.789 29.679 388.293 28.9883 388.893 28.4998C389.259 28.2023 389.685 27.9509 390.154 27.9081C390.623 27.8654 391.138 28.0755 391.344 28.4995C392.46 27.4195 394.155 26.976 395.657 27.3702C396.083 27.482 396.537 27.7007 396.683 28.1166C397.018 27.7597 397.619 27.8843 398.04 28.1354C398.411 28.3567 398.761 28.7094 398.759 29.1409C398.758 29.4705 398.553 29.7616 398.336 30.0103C397.67 30.7766 396.815 31.3774 395.869 31.7449C396.739 31.8479 397.363 32.8747 397.055 33.6946C397.471 33.5739 397.916 33.4904 398.334 33.6043C398.752 33.7186 399.129 34.0805 399.132 34.5135C399.48 33.6834 400.147 32.9918 400.963 32.6145C401.246 32.484 401.601 32.3971 401.852 32.5814C402.145 32.0124 402.515 31.4648 403.037 31.0935C403.452 30.7977 403.982 30.6225 404.494 30.6865C404.567 30.6955 404.793 30.7904 404.851 30.7638C404.922 30.7312 405.008 30.4979 405.031 30.425C405.092 30.2366 405.083 30.0567 405.169 29.8711C405.365 29.4472 405.724 29.0809 406.116 28.8345C406.207 28.7778 407.375 28.3221 407.376 28.4621C407.368 27.478 408.444 26.6447 409.395 26.8985C409.535 25.9849 410.645 25.5597 411.417 25.9486C411.236 25.2879 411.691 24.736 412.193 24.3461C412.919 23.7832 413.797 23.3957 414.714 23.3374C415.63 23.2789 416.583 23.5702 417.248 24.2033C417.818 23.7033 418.585 23.4339 419.343 23.4675C419.841 23.4897 420.428 23.7479 420.465 24.2455C420.984 24.2339 421.515 24.2284 422.005 24.3983C422.495 24.5683 422.944 24.95 423.048 25.4582C423.14 25.9053 422.957 26.3628 422.969 26.8191C423.328 26.8059 423.688 26.7927 424.047 26.7796C424.619 26.7586 425.215 26.7423 425.736 26.9794C426.257 27.2165 426.673 27.7903 426.532 28.3452C426.893 28.2677 427.27 28.1996 427.629 28.2892C427.987 28.3788 428.321 28.6697 428.343 29.0384C428.334 28.8731 429.309 28.8772 429.445 28.8848C429.827 28.9063 430.188 28.9959 430.527 29.1774C431.189 29.5316 431.714 30.1913 431.757 30.9591C432.417 30.8349 433.101 30.711 433.754 30.8658C434.407 31.0208 435.026 31.5338 435.081 32.203C435.042 31.7291 435.845 31.16 436.194 30.9835C436.712 30.7222 437.321 30.6262 437.892 30.7353C438.178 30.7901 438.437 30.8998 438.685 31.0519C438.875 31.1694 438.881 31.2081 439.07 31.1013C439.206 31.0244 439.31 30.8834 439.455 30.8056C440.003 30.5101 440.748 30.5318 441.237 30.9385C441.276 30.971 441.313 31.0055 441.348 31.0423C442.094 30.3141 443.136 29.8976 444.178 29.9102C444.938 29.9195 445.755 30.1982 446.146 30.8489C446.488 31.4186 446.434 32.1326 446.368 32.794C446.862 32.5375 447.509 32.6123 447.932 32.9751C448.354 33.3379 448.526 33.9659 448.347 34.4931C448.96 34.3311 449.619 34.1705 450.215 34.3859C450.812 34.6011 451.247 35.3639 450.893 35.8903C451.454 35.6481 452.049 35.4003 452.654 35.4792C453.259 35.5581 453.849 36.1001 453.744 36.7018C454.238 36.409 454.813 36.2544 455.387 36.2602C455.62 36.2625 455.86 36.2936 456.056 36.4177C456.252 36.5418 456.391 36.7791 456.34 37.0055C456.701 36.8335 457.077 36.6577 457.477 36.6587C457.876 36.6598 458.306 36.8935 458.394 37.2832C458.361 37.1374 459.317 37.398 459.391 37.4431C459.664 37.6106 459.922 37.9138 459.988 38.2368C460.125 38.9134 459.081 39.0272 458.619 39.0272C454.227 39.0286 449.834 39.03 445.441 39.0315Z" fill="white"/>
<path d="M357.528 39.1958C358.044 39.3138 358.611 39.2145 359.133 39.2116C359.734 39.2081 360.335 39.2047 360.936 39.2013C362.138 39.1944 363.34 39.1878 364.542 39.1814C389.52 39.049 414.499 39.0412 439.478 39.0333C441.466 39.0328 443.453 39.0323 445.441 39.0316C449.834 39.0301 454.227 39.0287 458.619 39.0275C458.972 39.0275 459.665 38.9599 459.91 38.6261C459.041 38.2904 458.066 38.2273 457.166 38.4695C457.233 38.4514 456.532 37.7843 456.449 37.7384C456.123 37.5584 455.744 37.4706 455.372 37.49C455.065 37.506 454.585 37.8083 454.37 37.7187C454.206 37.6499 454.081 37.4688 453.888 37.4016C453.68 37.3291 453.456 37.3015 453.238 37.2845C452.962 37.2633 452.681 37.2477 452.41 37.306C452.14 37.3645 451.876 37.506 451.727 37.7393C451.517 37.4078 451.175 37.1738 450.806 37.0412C450.437 36.9086 450.04 36.87 449.648 36.867C449.417 36.8652 449.218 36.953 449.001 36.9736C448.765 36.9958 448.809 36.8869 448.684 36.6889C448.483 36.3698 448.092 36.157 447.712 36.2358C447.735 35.918 447.755 35.5842 447.621 35.2953C447.48 34.9908 447.188 34.7843 446.89 34.6304C446.348 34.3508 445.672 34.205 445.139 34.5012C445.128 34.1929 445.109 33.8808 445.015 33.5872C444.92 33.2936 444.74 33.0165 444.472 32.8641C444.11 32.6581 443.658 32.7118 443.253 32.8097C442.908 32.8933 442.532 33.036 442.384 33.3584C442.195 33.0447 441.838 32.8599 441.477 32.8012C441.002 32.7244 440.357 32.7909 439.914 32.9882C439.62 33.119 439.499 33.3551 439.351 33.6229C439.224 33.8531 439.117 34.0163 438.829 33.9896C438.311 33.9411 437.883 33.68 437.338 33.7555C436.809 33.8286 436.285 34.2278 436.258 34.7607C435.304 34.1604 433.873 34.5486 433.352 35.5491C432.824 35.0163 431.75 35.2943 431.547 36.0168C431.009 35.6951 430.369 35.5492 429.745 35.6067C429.815 34.6789 428.942 33.7957 428.014 33.8536C427.787 32.6046 426.51 31.6412 425.247 31.7669C425.431 31.3862 425.235 30.8149 424.814 30.6825C424.565 30.6046 424.332 30.7571 424.109 30.8755C424.032 30.9162 423.418 31.2415 423.438 31.3225C423.303 30.7616 423.153 30.1924 422.844 29.7054C422.535 29.2184 422.036 28.8181 421.462 28.7674C421.288 28.7521 421.097 28.7758 420.974 28.8995C420.989 28.1132 420.341 27.4034 419.575 27.2269C418.808 27.0504 417.982 27.3474 417.403 27.8805C417.353 27.9269 417.296 27.9779 417.228 27.9763C417.182 27.975 417.14 27.9491 417.101 27.9238C416.87 27.7751 416.636 27.6231 416.372 27.5477C415.899 27.4125 415.375 27.5458 414.969 27.8252C414.723 27.9953 414.515 28.2157 414.34 28.4585C414.263 28.5655 414.204 28.729 414.112 28.82C413.983 28.9478 414.031 28.9103 413.844 28.8949C413.37 28.8558 412.953 28.8544 412.498 29.0282C411.659 29.349 410.944 30.1002 410.861 31.0216C410.832 31.3469 410.846 31.7267 410.593 31.9336C410.417 32.0778 410.169 32.0824 409.942 32.079C408.983 32.0657 407.991 32.0376 407.104 32.4023C406.217 32.7672 405.461 33.6476 405.574 34.6C404.462 33.8223 402.659 34.4955 402.33 35.8111C402.236 36.1871 402.204 36.651 401.86 36.8309C401.553 36.9916 401.189 36.8188 400.859 36.713C400.173 36.4928 399.393 36.5867 398.779 36.9637C398.367 37.216 398.451 37.1339 397.969 37.1684C397.905 36.1867 396.668 35.4948 395.798 35.9548C395.948 35.0636 395.347 34.1078 394.479 33.8577C394.818 32.2712 392.691 31.2737 391.082 31.48C388.709 31.7843 386.543 33.3924 385.566 35.5769C385.585 35.5344 384.917 35.6962 384.847 35.7427C384.626 35.8895 384.449 36.116 384.374 36.3716C384.279 36.6981 384.429 36.8321 384.032 36.752C383.681 36.6812 383.333 36.6855 382.997 36.8208C382.593 36.983 382.258 37.3097 382.085 37.7095C381.658 37.5588 381.2 37.4713 380.75 37.5264C380.3 37.5815 379.858 37.79 379.581 38.1483C379.248 37.9077 378.753 37.9261 378.439 38.1903C378.188 38.4011 377.939 38.1892 377.807 37.9494C377.621 37.6117 377.539 37.2658 377.239 36.9965C376.757 36.565 376.042 36.542 375.398 36.5955C375.379 36.597 375.004 36.1154 374.944 36.0651C374.75 35.9045 374.533 35.7873 374.299 35.6981C373.905 35.5477 373.572 35.3019 373.16 35.1754C372.524 34.9793 371.448 34.8742 371.281 35.7425C370.864 35.405 370.417 35.0538 369.885 34.9884C369.352 34.9231 368.732 35.2783 368.723 35.8145C367.037 35.6554 365.911 37.5148 364.359 38.1917C362.913 38.822 361.255 38.3638 359.679 38.3101C358.811 38.2806 357.839 38.4876 357.114 38.9411C357.216 39.0646 357.371 39.1597 357.528 39.1958Z" fill="#5FA2F1"/>
</g>
<g opacity="0.5">
<path d="M30.6112 13.0687C28.9567 13.0692 27.3025 13.0697 25.6479 13.0701C4.85761 13.0766 -15.933 13.0831 -36.723 13.1934C-37.7233 13.1987 -38.7234 13.2042 -39.7238 13.2099C-40.224 13.2127 -40.7242 13.2156 -41.2244 13.2185C-41.6595 13.221 -42.1308 13.3036 -42.5601 13.2054C-42.8103 13.1481 -43.059 12.9144 -42.9876 12.6679C-42.9568 12.5615 -42.8735 12.4795 -42.7878 12.4096C-41.9625 11.7347 -40.7625 11.7895 -39.7278 12.0467C-38.9984 11.6849 -38.163 11.5407 -37.3547 11.6369C-37.2205 11.6528 -37.0728 11.6724 -36.9603 11.5975C-36.8814 11.5451 -36.8363 11.4562 -36.7938 11.3716C-36.3491 10.4856 -35.7955 9.61539 -34.9721 9.06312C-34.1489 8.51071 -33.0021 8.3456 -32.1699 8.88441C-32.0174 8.46336 -31.5407 8.25107 -31.0963 8.19603C-30.017 8.06259 -28.973 8.57832 -28.022 9.10544C-26.9839 9.68093 -25.9365 10.3125 -25.2199 11.2586C-25.1705 11.3235 -25.116 11.3948 -25.0364 11.4132C-24.9639 11.4299 -24.89 11.3982 -24.8218 11.3685C-24.1602 11.0803 -23.4458 10.9139 -22.7248 10.8803C-22.6698 10.8775 -22.5575 10.4095 -22.5281 10.3507C-22.4338 10.1611 -22.2998 9.99146 -22.1405 9.8524C-21.832 9.58329 -21.4184 9.42514 -21.0069 9.47751C-21.1652 8.56279 -20.3116 7.61728 -19.3855 7.68164C-19.7021 7.23574 -19.3081 6.59737 -18.8847 6.3867C-18.6632 6.27649 -18.4341 6.14837 -18.2062 6.05295C-18.1416 6.02587 -17.3756 5.8365 -17.3759 5.92837C-17.3739 5.28438 -16.9538 4.70948 -16.4545 4.30294C-16.1503 4.05528 -15.7958 3.84609 -15.4051 3.81044C-15.0145 3.77493 -14.5863 3.94981 -14.4148 4.30265C-13.4856 3.40375 -12.0754 3.03463 -10.8248 3.36277C-10.4702 3.45582 -10.0925 3.63779 -9.97121 3.98397C-9.69175 3.6869 -9.1917 3.79061 -8.84152 3.99966C-8.53307 4.18384 -8.24177 4.47736 -8.24295 4.83656C-8.24369 5.11085 -8.41486 5.35318 -8.59491 5.56015C-9.14939 6.19793 -9.86099 6.69797 -10.6488 7.00392C-9.92476 7.08957 -9.40488 7.94423 -9.66142 8.62669C-9.31523 8.52624 -8.94434 8.45671 -8.59668 8.55154C-8.24887 8.64666 -7.93553 8.94787 -7.93242 9.30826C-7.6432 8.61737 -7.08812 8.04173 -6.40833 7.72765C-6.17295 7.61906 -5.87766 7.54671 -5.66876 7.70013C-5.4248 7.22657 -5.11679 6.77076 -4.68273 6.46171C-4.33714 6.21554 -3.89626 6.06966 -3.47004 6.12292C-3.40909 6.13046 -3.22106 6.20946 -3.17253 6.18727C-3.1138 6.1602 -3.0422 5.96595 -3.02253 5.90529C-2.97208 5.74848 -2.97948 5.59876 -2.90802 5.44431C-2.7444 5.09147 -2.44614 4.78656 -2.11949 4.58151C-2.04433 4.53432 -1.07191 4.155 -1.07087 4.27158C-1.07753 3.45242 -0.182037 2.75887 0.609303 2.97013C0.726177 2.20971 1.64993 1.85583 2.29274 2.17953C2.14213 1.62963 2.52012 1.17027 2.93865 0.845685C3.54269 0.377152 4.27338 0.0546315 5.03646 0.00610653C5.79925 -0.0425664 6.59193 0.199912 7.14567 0.726882C7.62027 0.310721 8.25864 0.0864473 8.88946 0.114408C9.30429 0.132901 9.7925 0.347854 9.82342 0.761944C10.2551 0.752327 10.697 0.747748 11.105 0.889181C11.5129 1.03061 11.8863 1.34839 11.973 1.77135C12.0495 2.14343 11.8974 2.52423 11.907 2.904C12.2062 2.89305 12.5056 2.8821 12.8047 2.87116C13.2808 2.8537 13.7767 2.84009 14.2103 3.03745C14.644 3.2348 14.99 3.71235 14.8731 4.17423C15.1736 4.10972 15.4875 4.05306 15.7858 4.12762C16.084 4.20219 16.3622 4.44437 16.3799 4.7512C16.373 4.61362 17.1844 4.61702 17.2973 4.62338C17.6154 4.64128 17.9161 4.71584 18.1984 4.86689C18.7491 5.16174 19.1861 5.71075 19.222 6.34986C19.7713 6.24645 20.3402 6.14334 20.884 6.2722C21.4278 6.4012 21.9427 6.82817 21.9882 7.38517C21.956 6.99075 22.6241 6.51704 22.9152 6.37013C23.3456 6.15266 23.8532 6.07277 24.3281 6.16361C24.5661 6.20917 24.7821 6.30045 24.9878 6.42709C25.1462 6.52488 25.1517 6.55714 25.3086 6.46822C25.4215 6.40416 25.5082 6.28685 25.6287 6.22205C26.0852 5.97617 26.7057 5.99421 27.1122 6.33271C27.1448 6.35978 27.1757 6.38848 27.2047 6.4191C27.8259 5.81298 28.6927 5.46635 29.5605 5.47686C30.1925 5.48455 30.8723 5.71652 31.1981 6.25814C31.4832 6.73229 31.4376 7.32657 31.3831 7.87707C31.7943 7.66359 32.3326 7.72588 32.6843 8.02783C33.0358 8.32978 33.1789 8.85245 33.0299 9.29125C33.5401 9.15647 34.0887 9.02274 34.5852 9.20204C35.0815 9.3812 35.4436 10.016 35.1495 10.4542C35.6158 10.2526 36.1111 10.0463 36.6148 10.112C37.1187 10.1777 37.6094 10.6288 37.5223 11.1296C37.9334 10.8859 38.4122 10.7572 38.89 10.7621C39.0832 10.764 39.2834 10.7899 39.4464 10.8932C39.6096 10.9964 39.7252 11.1939 39.6831 11.3824C39.9833 11.2392 40.2965 11.0929 40.6291 11.0938C40.9615 11.0947 41.3188 11.2892 41.3927 11.6135C41.3649 11.4922 42.1603 11.7091 42.222 11.7466C42.4498 11.886 42.6639 12.1384 42.7188 12.4072C42.8336 12.9704 41.9638 13.0651 41.5798 13.0651C37.9238 13.0663 34.2676 13.0675 30.6112 13.0687Z" fill="white"/>
<path d="M-42.5601 13.2055C-42.1308 13.3037 -41.6595 13.221 -41.2244 13.2186C-40.7242 13.2157 -40.224 13.2128 -39.7238 13.21C-38.7234 13.2043 -37.7233 13.1988 -36.7229 13.1935C-15.9329 13.0833 4.85763 13.0767 25.6479 13.0702C27.3025 13.0698 28.9568 13.0694 30.6112 13.0688C34.2676 13.0676 37.9238 13.0664 41.5801 13.0654C41.8737 13.0654 42.4501 13.0091 42.6544 12.7313C41.9313 12.4518 41.1194 12.3993 40.3702 12.601C40.4264 12.5859 39.8426 12.0306 39.7738 11.9925C39.5025 11.8426 39.1867 11.7695 38.8772 11.7857C38.6215 11.799 38.2221 12.0506 38.0435 11.9761C37.9068 11.9188 37.8028 11.768 37.6422 11.7121C37.4691 11.6518 37.2826 11.6288 37.1008 11.6146C36.8709 11.597 36.6375 11.584 36.4122 11.6325C36.187 11.6812 35.9674 11.799 35.8433 11.9932C35.6688 11.7173 35.3843 11.5225 35.077 11.4121C34.7697 11.3017 34.4395 11.2696 34.113 11.2671C33.9205 11.2656 33.7554 11.3387 33.5743 11.3559C33.3779 11.3744 33.4143 11.2837 33.3106 11.1189C33.1435 10.8533 32.8175 10.6762 32.5016 10.7418C32.5207 10.4773 32.5374 10.1994 32.4257 9.95902C32.3081 9.7056 32.0653 9.53369 31.8172 9.40557C31.3662 9.17286 30.8037 9.05154 30.3599 9.29801C30.3507 9.04148 30.3354 8.7817 30.2567 8.5373C30.178 8.2929 30.0282 8.06226 29.8049 7.93548C29.5031 7.76401 29.1273 7.80868 28.79 7.8902C28.5029 7.95973 28.1904 8.07854 28.0666 8.3469C27.9093 8.08578 27.6129 7.93192 27.3118 7.8831C26.9166 7.81919 26.3798 7.87452 26.011 8.03874C25.7661 8.14762 25.6657 8.34409 25.5427 8.56704C25.4371 8.75862 25.3474 8.89443 25.1079 8.87224C24.6771 8.83185 24.3209 8.61452 23.867 8.6774C23.4271 8.7382 22.9906 9.07048 22.9682 9.51401C22.1738 9.01441 20.9827 9.33751 20.5497 10.1703C20.1097 9.72675 19.2161 9.95814 19.0467 10.5595C18.5997 10.2917 18.0665 10.1703 17.5475 10.2182C17.6053 9.44596 16.8792 8.71083 16.1065 8.75906C15.9179 7.71947 14.8547 6.91763 13.8031 7.02223C13.9562 6.70533 13.7938 6.22986 13.4427 6.11964C13.2362 6.05484 13.0419 6.18178 12.8561 6.2803C12.792 6.31418 12.2811 6.58491 12.2975 6.65237C12.1852 6.18547 12.0608 5.71176 11.8033 5.3064C11.5461 4.90104 11.1312 4.56787 10.653 4.52571C10.5086 4.51298 10.3489 4.53267 10.247 4.63563C10.2591 3.98114 9.72018 3.3904 9.08226 3.2435C8.44434 3.09659 7.75626 3.3438 7.275 3.78748C7.23314 3.82609 7.18609 3.86855 7.12943 3.86722C7.09066 3.86619 7.05589 3.84459 7.02335 3.82358C6.83146 3.69975 6.63648 3.57326 6.41679 3.51053C6.02267 3.39795 5.58698 3.50891 5.24923 3.74147C5.04373 3.88305 4.87094 4.0665 4.72551 4.26859C4.66131 4.35765 4.61175 4.49376 4.53556 4.5695C4.42845 4.67587 4.46809 4.64466 4.31261 4.63179C3.91775 4.59924 3.57068 4.59806 3.19239 4.74274C2.49396 5.00978 1.89894 5.63498 1.8297 6.40191C1.80529 6.67264 1.81727 6.98879 1.6069 7.16099C1.46029 7.28097 1.25376 7.28483 1.06439 7.28202C0.266247 7.27092 -0.559265 7.24754 -1.29749 7.55112C-2.03558 7.85484 -2.66448 8.5876 -2.57113 9.38027C-3.49606 8.73303 -4.99664 9.29328 -5.27107 10.3883C-5.34948 10.7012 -5.37596 11.0874 -5.66178 11.2371C-5.91728 11.3708 -6.22041 11.227 -6.49499 11.139C-7.06605 10.9557 -7.71551 11.0338 -8.22665 11.3476C-8.56899 11.5577 -8.49976 11.4893 -8.90053 11.518C-8.95364 10.701 -9.98361 10.125 -10.7076 10.5079C-10.5823 9.76611 -11.0828 8.97062 -11.8057 8.76246C-11.5234 7.44194 -13.2934 6.61169 -14.6325 6.78345C-16.6083 7.03673 -18.4104 8.37515 -19.2241 10.1934C-19.2082 10.158 -19.7639 10.2926 -19.8226 10.3314C-20.0064 10.4536 -20.1537 10.6421 -20.216 10.8548C-20.2955 11.1266 -20.1702 11.2381 -20.5007 11.1714C-20.7925 11.1125 -21.0822 11.1161 -21.362 11.2287C-21.6982 11.3637 -21.9774 11.6356 -22.1212 11.9684C-22.4769 11.8429 -22.8578 11.7701 -23.2324 11.816C-23.6067 11.8618 -23.9745 12.0354 -24.2054 12.3336C-24.4822 12.1333 -24.8948 12.1487 -25.1562 12.3685C-25.3645 12.544 -25.5724 12.3677 -25.6822 12.1681C-25.8366 11.887 -25.9048 11.5991 -26.155 11.375C-26.5558 11.0158 -27.1511 10.9967 -27.6872 11.0412C-27.7026 11.0424 -28.0146 10.6416 -28.0651 10.5998C-28.2259 10.466 -28.4067 10.3685 -28.6015 10.2943C-28.9296 10.1691 -29.2067 9.9645 -29.5494 9.85916C-30.0792 9.69598 -30.9746 9.60854 -31.1139 10.3312C-31.4608 10.0503 -31.8327 9.75797 -32.2758 9.70353C-32.7187 9.64923 -33.2355 9.94482 -33.243 10.3912C-34.6463 10.2588 -35.583 11.8064 -36.8753 12.3697C-38.0788 12.8943 -39.4581 12.5129 -40.7703 12.4683C-41.4926 12.4437 -42.3018 12.6161 -42.9053 12.9935C-42.8204 13.0963 -42.6911 13.1754 -42.5601 13.2055Z" fill="#5FA2F1"/>
</g>
<g opacity="0.5">
<path d="M788.077 14.1571C789.712 14.0777 791.392 14.2531 793.013 14.4728C793.127 14.4882 793.247 14.5085 793.336 14.5817C793.533 14.7435 793.461 15.086 793.262 15.2453C793.063 15.4047 792.793 15.4324 792.538 15.4536C791.796 15.5142 791.054 15.5718 790.312 15.6262C778.919 16.4622 767.393 16.6726 755.986 15.9644C750.413 15.6186 744.671 16.0908 739.082 16.1899C733.33 16.292 727.579 16.3942 721.827 16.4963C716.075 16.5985 710.324 16.7003 704.572 16.8025C701.697 16.8535 698.821 16.9046 695.945 16.9557C694.507 16.9812 693.069 17.0067 691.632 17.0323C691.2 17.0397 688.63 17.4489 689.045 16.3028C689.111 16.12 689.294 16.009 689.469 15.9241C690.222 15.5579 691.055 15.4213 691.887 15.3992C692.549 15.381 693.595 15.7315 694.206 15.5558C694.748 15.4001 695.04 14.874 695.711 14.8186C695.88 14.8042 697.432 14.9989 697.312 15.3352C698.028 13.3369 700.551 12.2111 702.517 13.0135C702.911 9.60457 706.447 6.89615 709.841 7.40411C712.585 7.81485 714.728 9.90853 716.667 11.8939C717.276 10.6632 719.52 10.9872 719.755 12.3397C721.289 11.449 723.299 11.4472 724.834 12.3342C725.63 11.8404 726.541 11.5327 727.472 11.4333C727.908 11.3872 728.152 11.4619 728.424 11.1832C728.692 10.9085 728.865 10.1624 729.094 9.80393C729.467 9.2169 729.874 8.63357 730.431 8.21668C731.339 7.53704 732.616 7.38628 733.657 7.83609C733.475 7.75733 735.732 5.61934 735.934 5.4455C736.86 4.64618 738.087 4.27976 739.309 4.23299C739.633 2.09777 742.89 1.19783 744.265 2.86354C745.784 2.64295 747.303 2.42235 748.822 2.20175C749.721 2.0713 750.658 1.94362 751.523 2.22021C752.387 2.4968 753.155 3.30721 753.065 4.21083C752.975 5.11476 751.713 5.74856 751.078 5.09908C750.026 7.12722 747.998 8.62033 745.749 9.02214C746.783 8.86708 747.848 9.75962 747.876 10.8051C748.688 10.3688 749.773 10.5165 750.438 11.154C751.968 10.6469 753.76 11.0426 754.934 12.1459C756.055 10.9392 758.273 11.0521 759.267 12.3662C760.083 11.0303 762.093 11.6136 763.574 12.1204C764.948 12.5905 766.385 12.8486 767.82 13.0735C774.512 14.123 781.311 14.4866 788.077 14.1571Z" fill="white"/>
<path d="M691.632 17.0327C693.069 17.0071 694.508 16.9816 695.946 16.956C698.821 16.905 701.697 16.8539 704.573 16.8028C710.324 16.7007 716.076 16.5988 721.828 16.4967C727.579 16.3946 733.331 16.2924 739.082 16.1903C744.672 16.0912 750.414 15.6189 755.986 15.9647C767.393 16.6733 778.919 16.4625 790.313 15.6266C791.055 15.5722 791.797 15.5149 792.539 15.454C792.793 15.4331 793.063 15.4054 793.263 15.2457C793.368 15.162 793.435 15.0276 793.449 14.8956C791.341 14.7276 789.215 14.8584 787.111 15.0362C786.272 15.1067 785.435 15.1845 784.597 15.2531C784.182 15.2866 783.75 15.2848 783.339 15.3469C782.992 15.3996 782.66 15.4749 782.301 15.4946C780.65 15.5854 779.013 15.2722 777.372 15.1593C775.461 15.0276 773.539 15.1657 771.629 15.0267C769.199 14.8497 766.805 14.2255 764.368 14.2338C763.978 14.235 763.675 14.3378 763.307 14.4159C763.006 14.4799 762.732 14.2166 762.454 14.1024C762.125 13.968 761.779 13.8744 761.427 13.8227C760.738 13.7212 760.024 13.7815 759.366 14.0141C759.223 14.0649 759.078 14.124 758.925 14.1224C758.777 14.1203 758.636 14.0606 758.497 14.008C757.168 13.5056 755.612 13.6468 754.394 14.3799C753.238 13.3219 751.377 13.1271 750.027 13.9231C749.863 13.1683 749.337 12.5004 748.642 12.165C747.946 11.8297 747.096 11.8343 746.404 12.1767C745.943 10.4704 744.669 8.95821 742.992 8.40163C741.314 7.84537 739.282 8.36564 738.223 9.77968C737.407 9.5317 736.559 9.30435 735.711 9.39203C735.235 9.44095 734.763 9.60494 734.373 9.88492C734.178 10.0249 733.999 10.1956 733.865 10.395C733.763 10.5464 733.756 10.7707 733.576 10.7815C733.363 10.7947 733.036 10.6088 732.805 10.5833C732.552 10.5553 732.295 10.5596 732.043 10.5907C731.546 10.6519 731.062 10.8171 730.625 11.0605C729.684 11.5857 728.959 12.4241 728.331 13.2991C727.51 13.1317 726.614 13.3932 726.012 13.9754C725.915 14.0698 725.821 14.1744 725.696 14.2289C725.447 14.3378 725.164 14.2144 724.913 14.1086C723.41 13.4763 721.661 13.456 720.144 14.0526C719.834 13.3812 719.142 12.9031 718.405 12.8496C717.668 12.7961 716.914 13.1699 716.511 13.7895C715.116 12.3401 713.389 11.1719 711.45 10.6387C710.37 10.3415 709.228 10.2538 708.117 10.4049C707.572 10.479 707.035 10.6107 706.52 10.8048C706.033 10.9876 705.64 11.2676 705.186 11.4946C704.436 11.8691 703.92 12.6742 703.895 13.512C702.834 13.436 701.791 14.295 701.662 15.3509C701.191 15.1242 700.582 15.2279 700.213 15.598C700.112 15.7001 700.022 15.8235 699.887 15.8755C699.703 15.9466 699.492 15.8632 699.302 15.9149C699 15.997 698.852 16.3856 698.545 16.4432C698.355 16.4789 698.17 16.3733 697.986 16.3149C697.565 16.1807 697.125 16.2909 696.682 16.3709C696.47 16.4096 696.256 16.4413 696.044 16.4358C695.283 16.4164 694.541 15.9214 693.807 16.122C693.6 16.1786 693.404 16.2896 693.189 16.2955C692.989 16.3016 692.799 16.2143 692.604 16.1644C691.978 16.0044 691.265 16.2736 690.9 16.8074C690.457 16.6582 689.956 16.6878 689.534 16.8896C689.479 16.9157 689.425 16.9462 689.375 16.981C690.028 17.2326 691.335 17.0379 691.632 17.0327Z" fill="#AFD1F8"/>
</g>
</svg>
