<svg width="1220" height="61" viewBox="0 0 1220 61" fill="none" xmlns="http://www.w3.org/2000/svg">
<g opacity="0.5">
<path d="M342.044 59.9572C339.391 59.9581 336.738 59.9588 334.085 59.9595C300.745 59.97 267.405 59.9804 234.066 60.1572C232.462 60.1657 230.858 60.1745 229.254 60.1837C228.452 60.1882 227.65 60.1927 226.847 60.1975C226.15 60.2015 225.394 60.3339 224.705 60.1764C224.304 60.0846 223.905 59.7097 224.02 59.3145C224.069 59.1439 224.203 59.0125 224.34 58.9002C225.664 57.8179 227.588 57.906 229.247 58.3183C230.417 57.7382 231.757 57.5069 233.053 57.6611C233.268 57.6867 233.505 57.7181 233.685 57.598C233.812 57.514 233.884 57.3715 233.952 57.2358C234.666 55.8149 235.553 54.4194 236.874 53.5338C238.194 52.6479 240.033 52.3832 241.367 53.2472C241.612 52.572 242.376 52.2316 243.089 52.1433C244.82 51.9293 246.494 52.7564 248.019 53.6017C249.684 54.5245 251.363 55.5373 252.513 57.0545C252.592 57.1587 252.679 57.273 252.807 57.3024C252.923 57.3292 253.042 57.2785 253.151 57.2308C254.212 56.7686 255.358 56.5017 256.514 56.4479C256.602 56.4434 256.782 55.693 256.829 55.5985C256.98 55.2946 257.195 55.0225 257.451 54.7995C257.945 54.368 258.609 54.1144 259.269 54.1983C259.015 52.7315 260.384 51.2152 261.869 51.3184C261.361 50.6034 261.993 49.5797 262.672 49.2418C263.027 49.0651 263.394 48.8597 263.76 48.7066C263.863 48.6632 265.092 48.3595 265.091 48.5069C265.094 47.4741 265.768 46.5522 266.569 45.9003C267.057 45.5031 267.625 45.1677 268.252 45.1105C268.878 45.0536 269.565 45.334 269.84 45.8998C271.33 44.4583 273.591 43.8664 275.597 44.3926C276.165 44.5418 276.771 44.8336 276.966 45.3888C277.414 44.9124 278.216 45.0787 278.777 45.4139C279.272 45.7093 279.739 46.18 279.737 46.756C279.736 47.1959 279.461 47.5845 279.173 47.9164C278.284 48.9391 277.142 49.741 275.879 50.2316C277.04 50.369 277.874 51.7395 277.462 52.8339C278.018 52.6729 278.612 52.5613 279.17 52.7134C279.728 52.866 280.23 53.349 280.235 53.9269C280.699 52.819 281.589 51.8959 282.679 51.3922C283.057 51.2181 283.53 51.1021 283.865 51.3481C284.256 50.5887 284.75 49.8577 285.446 49.3621C286.001 48.9674 286.708 48.7334 287.391 48.8188C287.489 48.8309 287.79 48.9576 287.868 48.922C287.962 48.8786 288.077 48.5671 288.109 48.4699C288.19 48.2184 288.178 47.9783 288.292 47.7306C288.555 47.1648 289.033 46.6758 289.557 46.347C289.677 46.2713 291.237 45.663 291.238 45.85C291.228 44.5364 292.664 43.4242 293.933 43.763C294.12 42.5435 295.602 41.9761 296.632 42.4951C296.391 41.6133 296.997 40.8767 297.668 40.3562C298.637 39.6048 299.809 39.0876 301.032 39.0098C302.255 38.9317 303.527 39.3206 304.415 40.1656C305.176 39.4983 306.199 39.1386 307.211 39.1835C307.876 39.2131 308.659 39.5578 308.709 40.2219C309.401 40.2064 310.11 40.1991 310.764 40.4259C311.418 40.6527 312.017 41.1623 312.156 41.8406C312.279 42.4372 312.035 43.0479 312.05 43.6569C312.53 43.6394 313.01 43.6218 313.49 43.6042C314.253 43.5763 315.048 43.5544 315.744 43.8709C316.439 44.1874 316.994 44.9532 316.807 45.6939C317.288 45.5904 317.792 45.4996 318.27 45.6191C318.748 45.7387 319.194 46.1271 319.223 46.6191C319.212 46.3985 320.513 46.4039 320.694 46.4141C321.204 46.4429 321.686 46.5624 322.139 46.8046C323.022 47.2775 323.723 48.1579 323.781 49.1828C324.661 49.0169 325.574 48.8516 326.446 49.0582C327.318 49.2651 328.143 49.9498 328.216 50.843C328.165 50.2105 329.236 49.4509 329.703 49.2153C330.393 48.8665 331.207 48.7384 331.969 48.8841C332.35 48.9572 332.697 49.1035 333.027 49.3066C333.281 49.4634 333.289 49.5152 333.541 49.3726C333.722 49.2698 333.861 49.0817 334.054 48.9778C334.786 48.5835 335.781 48.6124 336.433 49.1553C336.486 49.1987 336.535 49.2447 336.582 49.2938C337.578 48.3218 338.968 47.766 340.36 47.7828C341.373 47.7951 342.463 48.1671 342.986 49.0357C343.443 49.796 343.37 50.749 343.282 51.6318C343.942 51.2895 344.805 51.3894 345.369 51.8736C345.933 52.3578 346.162 53.196 345.923 53.8996C346.741 53.6835 347.621 53.469 348.417 53.7566C349.213 54.0439 349.794 55.0619 349.322 55.7646C350.07 55.4412 350.864 55.1105 351.672 55.2159C352.48 55.3212 353.267 56.0446 353.127 56.8476C353.786 56.4569 354.554 56.2505 355.321 56.2583C355.63 56.2614 355.951 56.3029 356.213 56.4685C356.474 56.6341 356.66 56.9508 356.592 57.2531C357.074 57.0234 357.576 56.7888 358.109 56.7902C358.642 56.7916 359.215 57.1036 359.334 57.6236C359.289 57.4291 360.565 57.7769 360.664 57.8372C361.029 58.0606 361.372 58.4654 361.46 58.8965C361.644 59.7996 360.25 59.9515 359.634 59.9515C353.771 59.9534 347.908 59.9553 342.044 59.9572Z" fill="white"/>
<path d="M224.705 60.1765C225.394 60.334 226.15 60.2014 226.847 60.1976C227.65 60.1928 228.452 60.1883 229.254 60.1838C230.858 60.1745 232.462 60.1658 234.066 60.1572C267.405 59.9805 300.745 59.9701 334.085 59.9596C336.738 59.9589 339.391 59.9582 342.044 59.9572C347.908 59.9553 353.771 59.9534 359.634 59.9518C360.105 59.9518 361.03 59.8616 361.357 59.4161C360.198 58.9679 358.896 58.8837 357.694 59.2071C357.784 59.1829 356.848 58.2925 356.738 58.2313C356.303 57.991 355.796 57.8738 355.3 57.8996C354.89 57.921 354.249 58.3245 353.963 58.205C353.744 58.1132 353.577 57.8714 353.319 57.7817C353.042 57.6849 352.743 57.6482 352.451 57.6254C352.083 57.5971 351.708 57.5763 351.347 57.6541C350.986 57.7321 350.634 57.921 350.435 58.2325C350.155 57.79 349.699 57.4776 349.206 57.3006C348.713 57.1236 348.184 57.0721 347.66 57.0681C347.351 57.0657 347.087 57.1829 346.796 57.2104C346.481 57.2401 346.539 57.0947 346.373 56.8304C346.105 56.4045 345.582 56.1206 345.076 56.2257C345.106 55.8015 345.133 55.3559 344.954 54.9704C344.766 54.564 344.376 54.2883 343.978 54.0829C343.255 53.7097 342.353 53.5151 341.641 53.9104C341.627 53.499 341.602 53.0824 341.476 52.6905C341.35 52.2986 341.109 51.9287 340.751 51.7254C340.267 51.4504 339.665 51.5221 339.124 51.6528C338.663 51.7643 338.162 51.9548 337.964 52.3852C337.712 51.9664 337.236 51.7197 336.753 51.6414C336.12 51.5389 335.259 51.6277 334.667 51.891C334.275 52.0656 334.114 52.3807 333.916 52.7382C333.747 53.0454 333.603 53.2632 333.219 53.2276C332.528 53.1628 331.957 52.8143 331.229 52.9152C330.524 53.0127 329.824 53.5455 329.788 54.2568C328.514 53.4556 326.604 53.9737 325.91 55.3092C325.204 54.5979 323.771 54.969 323.499 55.9334C322.782 55.504 321.927 55.3092 321.095 55.3861C321.188 54.1476 320.024 52.9688 318.784 53.0461C318.482 51.379 316.777 50.0932 315.091 50.2609C315.336 49.7527 315.076 48.9902 314.513 48.8135C314.181 48.7096 313.87 48.9131 313.572 49.0711C313.469 49.1255 312.65 49.5596 312.676 49.6678C312.496 48.9191 312.297 48.1594 311.884 47.5094C311.471 46.8593 310.806 46.325 310.039 46.2574C309.807 46.237 309.551 46.2686 309.388 46.4337C309.407 45.3841 308.543 44.4368 307.52 44.2012C306.497 43.9657 305.394 44.3621 304.622 45.0736C304.555 45.1355 304.479 45.2036 304.389 45.2015C304.326 45.1998 304.271 45.1652 304.218 45.1315C303.911 44.9329 303.598 44.7301 303.246 44.6295C302.614 44.4489 301.915 44.6269 301.373 44.9998C301.044 45.2269 300.767 45.521 300.534 45.8451C300.431 45.9879 300.351 46.2062 300.229 46.3277C300.057 46.4982 300.121 46.4482 299.871 46.4275C299.238 46.3753 298.682 46.3734 298.075 46.6055C296.955 47.0337 296.001 48.0363 295.89 49.2661C295.851 49.7003 295.87 50.2073 295.532 50.4834C295.297 50.6758 294.966 50.682 294.663 50.6775C293.383 50.6597 292.059 50.6222 290.875 51.109C289.691 51.5961 288.683 52.7712 288.833 54.0423C287.349 53.0044 284.943 53.9028 284.503 55.6589C284.377 56.1606 284.335 56.7798 283.876 57.0199C283.467 57.2344 282.98 57.0038 282.54 56.8626C281.624 56.5687 280.583 56.694 279.763 57.1972C279.214 57.534 279.325 57.4244 278.683 57.4705C278.597 56.1602 276.946 55.2366 275.785 55.8506C275.986 54.661 275.183 53.3854 274.024 53.0516C274.476 50.934 271.638 49.6026 269.491 49.878C266.322 50.2842 263.432 52.4305 262.128 55.3462C262.153 55.2895 261.262 55.5054 261.168 55.5675C260.873 55.7635 260.637 56.0657 260.537 56.4069C260.409 56.8427 260.61 57.0216 260.08 56.9146C259.612 56.8202 259.148 56.8259 258.699 57.0064C258.16 57.223 257.712 57.6591 257.482 58.1926C256.911 57.9915 256.3 57.8747 255.7 57.9483C255.099 58.0218 254.51 58.3001 254.139 58.7784C253.695 58.4572 253.034 58.4818 252.615 58.8344C252.281 59.1157 251.947 58.8329 251.771 58.5129C251.523 58.0621 251.414 57.6005 251.013 57.241C250.37 56.665 249.416 56.6344 248.556 56.7058C248.531 56.7077 248.031 56.065 247.95 55.9979C247.692 55.7834 247.402 55.6271 247.09 55.508C246.563 55.3073 246.119 54.9792 245.57 54.8103C244.72 54.5486 243.284 54.4084 243.061 55.5673C242.504 55.1168 241.908 54.648 241.198 54.5607C240.487 54.4736 239.659 54.9476 239.646 55.6634C237.396 55.4511 235.894 57.9328 233.822 58.8363C231.892 59.6775 229.68 59.0659 227.576 58.9943C226.417 58.9549 225.12 59.2313 224.152 59.8365C224.288 60.0014 224.495 60.1283 224.705 60.1765Z" fill="#5FA2F1"/>
</g>
<g opacity="0.5">
<path d="M724.611 55.0687C722.957 55.0692 721.302 55.0697 719.648 55.0701C698.858 55.0766 678.067 55.0831 657.277 55.1934C656.277 55.1987 655.277 55.2042 654.276 55.2099C653.776 55.2127 653.276 55.2156 652.776 55.2185C652.341 55.221 651.869 55.3036 651.44 55.2054C651.19 55.1481 650.941 54.9144 651.012 54.6679C651.043 54.5615 651.127 54.4795 651.212 54.4096C652.038 53.7347 653.237 53.7895 654.272 54.0467C655.002 53.6849 655.837 53.5407 656.645 53.6369C656.78 53.6528 656.927 53.6724 657.04 53.5975C657.119 53.5451 657.164 53.4562 657.206 53.3716C657.651 52.4856 658.204 51.6154 659.028 51.0631C659.851 50.5107 660.998 50.3456 661.83 50.8844C661.983 50.4634 662.459 50.2511 662.904 50.196C663.983 50.0626 665.027 50.5783 665.978 51.1054C667.016 51.6809 668.063 52.3125 668.78 53.2586C668.83 53.3235 668.884 53.3948 668.964 53.4132C669.036 53.4299 669.11 53.3982 669.178 53.3685C669.84 53.0803 670.554 52.9139 671.275 52.8803C671.33 52.8775 671.442 52.4095 671.472 52.3507C671.566 52.1611 671.7 51.9915 671.86 51.8524C672.168 51.5833 672.582 51.4251 672.993 51.4775C672.835 50.5628 673.688 49.6173 674.615 49.6816C674.298 49.2357 674.692 48.5974 675.115 48.3867C675.337 48.2765 675.566 48.1484 675.794 48.0529C675.858 48.0259 676.624 47.8365 676.624 47.9284C676.626 47.2844 677.046 46.7095 677.546 46.3029C677.85 46.0553 678.204 45.8461 678.595 45.8104C678.985 45.7749 679.414 45.9498 679.585 46.3026C680.514 45.4038 681.925 45.0346 683.175 45.3628C683.53 45.4558 683.907 45.6378 684.029 45.984C684.308 45.6869 684.808 45.7906 685.158 45.9997C685.467 46.1838 685.758 46.4774 685.757 46.8366C685.756 47.1108 685.585 47.3532 685.405 47.5602C684.851 48.1979 684.139 48.698 683.351 49.0039C684.075 49.0896 684.595 49.9442 684.339 50.6267C684.685 50.5262 685.056 50.4567 685.403 50.5515C685.751 50.6467 686.064 50.9479 686.068 51.3083C686.357 50.6174 686.912 50.0417 687.592 49.7277C687.827 49.6191 688.122 49.5467 688.331 49.7001C688.575 49.2266 688.883 48.7708 689.317 48.4617C689.663 48.2155 690.104 48.0697 690.53 48.1229C690.591 48.1305 690.779 48.2095 690.827 48.1873C690.886 48.1602 690.958 47.966 690.977 47.9053C691.028 47.7485 691.021 47.5988 691.092 47.4443C691.256 47.0915 691.554 46.7866 691.881 46.5815C691.956 46.5343 692.928 46.155 692.929 46.2716C692.922 45.4524 693.818 44.7589 694.609 44.9701C694.726 44.2097 695.65 43.8558 696.293 44.1795C696.142 43.6296 696.52 43.1703 696.939 42.8457C697.543 42.3772 698.273 42.0546 699.036 42.0061C699.799 41.9574 700.592 42.1999 701.146 42.7269C701.62 42.3107 702.259 42.0864 702.889 42.1144C703.304 42.1329 703.792 42.3479 703.823 42.7619C704.255 42.7523 704.697 42.7477 705.105 42.8892C705.513 43.0306 705.886 43.3484 705.973 43.7714C706.05 44.1434 705.897 44.5242 705.907 44.904C706.206 44.893 706.506 44.8821 706.805 44.8712C707.281 44.8537 707.777 44.8401 708.21 45.0374C708.644 45.2348 708.99 45.7124 708.873 46.1742C709.174 46.1097 709.488 46.0531 709.786 46.1276C710.084 46.2022 710.362 46.4444 710.38 46.7512C710.373 46.6136 711.184 46.617 711.297 46.6234C711.615 46.6413 711.916 46.7158 712.198 46.8669C712.749 47.1617 713.186 47.7108 713.222 48.3499C713.771 48.2464 714.34 48.1433 714.884 48.2722C715.428 48.4012 715.943 48.8282 715.988 49.3852C715.956 48.9908 716.624 48.517 716.915 48.3701C717.346 48.1527 717.853 48.0728 718.328 48.1636C718.566 48.2092 718.782 48.3005 718.988 48.4271C719.146 48.5249 719.152 48.5571 719.309 48.4682C719.422 48.4042 719.508 48.2868 719.629 48.222C720.085 47.9762 720.706 47.9942 721.112 48.3327C721.145 48.3598 721.176 48.3885 721.205 48.4191C721.826 47.813 722.693 47.4664 723.561 47.4769C724.193 47.4845 724.872 47.7165 725.198 48.2581C725.483 48.7323 725.438 49.3266 725.383 49.8771C725.794 49.6636 726.333 49.7259 726.684 50.0278C727.036 50.3298 727.179 50.8525 727.03 51.2912C727.54 51.1565 728.089 51.0227 728.585 51.202C729.082 51.3812 729.444 52.016 729.149 52.4542C729.616 52.2526 730.111 52.0463 730.615 52.112C731.119 52.1777 731.609 52.6288 731.522 53.1296C731.933 52.8859 732.412 52.7572 732.89 52.7621C733.083 52.764 733.283 52.7899 733.446 52.8932C733.61 52.9964 733.725 53.1939 733.683 53.3824C733.983 53.2392 734.297 53.0929 734.629 53.0938C734.961 53.0947 735.319 53.2892 735.393 53.6135C735.365 53.4922 736.16 53.7091 736.222 53.7466C736.45 53.886 736.664 54.1384 736.719 54.4072C736.834 54.9704 735.964 55.0651 735.58 55.0651C731.924 55.0663 728.268 55.0675 724.611 55.0687Z" fill="white"/>
<path d="M651.44 55.2055C651.869 55.3037 652.341 55.221 652.776 55.2187C653.276 55.2157 653.776 55.2129 654.276 55.2101C655.277 55.2043 656.277 55.1988 657.277 55.1935C678.067 55.0833 698.858 55.0768 719.648 55.0703C721.302 55.0698 722.957 55.0694 724.611 55.0688C728.268 55.0676 731.924 55.0664 735.58 55.0654C735.874 55.0654 736.45 55.0092 736.654 54.7313C735.931 54.4519 735.119 54.3994 734.37 54.601C734.426 54.5859 733.843 54.0307 733.774 53.9925C733.503 53.8426 733.187 53.7696 732.877 53.7857C732.622 53.799 732.222 54.0507 732.044 53.9761C731.907 53.9188 731.803 53.7681 731.642 53.7122C731.469 53.6518 731.283 53.6289 731.101 53.6147C730.871 53.5971 730.637 53.584 730.412 53.6326C730.187 53.6812 729.967 53.799 729.843 53.9932C729.669 53.7173 729.384 53.5225 729.077 53.4121C728.77 53.3018 728.44 53.2697 728.113 53.2671C727.921 53.2657 727.755 53.3388 727.574 53.3559C727.378 53.3744 727.414 53.2837 727.311 53.1189C727.144 52.8534 726.817 52.6763 726.502 52.7418C726.521 52.4773 726.537 52.1995 726.426 51.9591C726.308 51.7056 726.065 51.5337 725.817 51.4056C725.366 51.1729 724.804 51.0516 724.36 51.298C724.351 51.0415 724.335 50.7817 724.257 50.5373C724.178 50.2929 724.028 50.0623 723.805 49.9355C723.503 49.764 723.127 49.8087 722.79 49.8902C722.503 49.9598 722.19 50.0786 722.067 50.3469C721.909 50.0858 721.613 49.932 721.312 49.8831C720.917 49.8192 720.38 49.8746 720.011 50.0388C719.766 50.1477 719.666 50.3441 719.543 50.5671C719.437 50.7587 719.347 50.8945 719.108 50.8723C718.677 50.8319 718.321 50.6146 717.867 50.6774C717.427 50.7382 716.991 51.0705 716.968 51.514C716.174 51.0144 714.983 51.3375 714.55 52.1703C714.11 51.7268 713.216 51.9582 713.047 52.5595C712.6 52.2918 712.066 52.1703 711.547 52.2182C711.605 51.446 710.879 50.7109 710.107 50.7591C709.918 49.7195 708.855 48.9177 707.803 49.0223C707.956 48.7054 707.794 48.2299 707.443 48.1197C707.236 48.0549 707.042 48.1818 706.856 48.2803C706.792 48.3142 706.281 48.5849 706.297 48.6524C706.185 48.1855 706.061 47.7118 705.803 47.3064C705.546 46.9011 705.131 46.5679 704.653 46.5257C704.509 46.513 704.349 46.5327 704.247 46.6357C704.259 45.9812 703.72 45.3904 703.082 45.2435C702.444 45.0966 701.756 45.3438 701.275 45.7875C701.233 45.8261 701.186 45.8686 701.129 45.8673C701.091 45.8662 701.056 45.8446 701.023 45.8236C700.831 45.6998 700.636 45.5733 700.417 45.5106C700.023 45.398 699.587 45.5089 699.249 45.7415C699.044 45.8831 698.871 46.0665 698.726 46.2686C698.661 46.3577 698.612 46.4938 698.536 46.5695C698.428 46.6759 698.468 46.6447 698.313 46.6318C697.918 46.5993 697.571 46.5981 697.192 46.7428C696.494 47.0098 695.899 47.635 695.83 48.4019C695.805 48.6727 695.817 48.9888 695.607 49.161C695.46 49.281 695.254 49.2849 695.064 49.282C694.266 49.271 693.441 49.2476 692.703 49.5511C691.964 49.8549 691.336 50.5876 691.429 51.3803C690.504 50.7331 689.003 51.2933 688.729 52.3884C688.651 52.7013 688.624 53.0874 688.338 53.2371C688.083 53.3709 687.78 53.2271 687.505 53.139C686.934 52.9557 686.284 53.0338 685.773 53.3476C685.431 53.5577 685.5 53.4894 685.099 53.5181C685.046 52.701 684.016 52.125 683.292 52.5079C683.418 51.7661 682.917 50.9706 682.194 50.7625C682.477 49.442 680.707 48.6117 679.367 48.7835C677.392 49.0368 675.59 50.3752 674.776 52.1934C674.792 52.158 674.236 52.2927 674.177 52.3314C673.994 52.4536 673.846 52.6421 673.784 52.8548C673.705 53.1266 673.83 53.2382 673.499 53.1714C673.207 53.1126 672.918 53.1161 672.638 53.2287C672.302 53.3638 672.023 53.6357 671.879 53.9684C671.523 53.8429 671.142 53.7702 670.768 53.816C670.393 53.8619 670.026 54.0354 669.795 54.3337C669.518 54.1334 669.105 54.1487 668.844 54.3686C668.635 54.544 668.428 54.3677 668.318 54.1681C668.163 53.887 668.095 53.5991 667.845 53.375C667.444 53.0158 666.849 52.9967 666.313 53.0412C666.297 53.0424 665.985 52.6417 665.935 52.5998C665.774 52.466 665.593 52.3686 665.398 52.2943C665.07 52.1691 664.793 51.9645 664.451 51.8592C663.921 51.696 663.025 51.6086 662.886 52.3313C662.539 52.0503 662.167 51.758 661.724 51.7036C661.281 51.6493 660.765 51.9449 660.757 52.3912C659.354 52.2588 658.417 53.8064 657.125 54.3698C655.921 54.8944 654.542 54.513 653.23 54.4683C652.507 54.4437 651.698 54.6161 651.095 54.9935C651.18 55.0963 651.309 55.1755 651.44 55.2055Z" fill="#5FA2F1"/>
</g>
<g opacity="0.5">
<path d="M30.6112 13.0687C28.9567 13.0692 27.3025 13.0697 25.6479 13.0701C4.85761 13.0766 -15.933 13.0831 -36.723 13.1934C-37.7233 13.1987 -38.7234 13.2042 -39.7238 13.2099C-40.224 13.2127 -40.7242 13.2156 -41.2244 13.2185C-41.6595 13.221 -42.1308 13.3036 -42.5601 13.2054C-42.8103 13.1481 -43.059 12.9144 -42.9876 12.6679C-42.9568 12.5615 -42.8735 12.4795 -42.7878 12.4096C-41.9625 11.7347 -40.7625 11.7895 -39.7278 12.0467C-38.9984 11.6849 -38.163 11.5407 -37.3547 11.6369C-37.2205 11.6528 -37.0728 11.6724 -36.9603 11.5975C-36.8814 11.5451 -36.8363 11.4562 -36.7938 11.3716C-36.3491 10.4856 -35.7955 9.61539 -34.9721 9.06312C-34.1489 8.51071 -33.0021 8.3456 -32.1699 8.88441C-32.0174 8.46336 -31.5407 8.25107 -31.0963 8.19603C-30.017 8.06259 -28.973 8.57832 -28.022 9.10544C-26.9839 9.68093 -25.9365 10.3125 -25.2199 11.2586C-25.1705 11.3235 -25.116 11.3948 -25.0364 11.4132C-24.9639 11.4299 -24.89 11.3982 -24.8218 11.3685C-24.1602 11.0803 -23.4458 10.9139 -22.7248 10.8803C-22.6698 10.8775 -22.5575 10.4095 -22.5281 10.3507C-22.4338 10.1611 -22.2998 9.99146 -22.1405 9.8524C-21.832 9.58329 -21.4184 9.42514 -21.0069 9.47751C-21.1652 8.56279 -20.3116 7.61728 -19.3855 7.68164C-19.7021 7.23574 -19.3081 6.59737 -18.8847 6.3867C-18.6632 6.27649 -18.4341 6.14837 -18.2062 6.05295C-18.1416 6.02587 -17.3756 5.8365 -17.3759 5.92837C-17.3739 5.28438 -16.9538 4.70948 -16.4545 4.30294C-16.1503 4.05528 -15.7958 3.84609 -15.4051 3.81044C-15.0145 3.77493 -14.5863 3.94981 -14.4148 4.30265C-13.4856 3.40375 -12.0754 3.03463 -10.8248 3.36277C-10.4702 3.45582 -10.0925 3.63779 -9.97121 3.98397C-9.69175 3.6869 -9.1917 3.79061 -8.84152 3.99966C-8.53307 4.18384 -8.24177 4.47736 -8.24295 4.83656C-8.24369 5.11085 -8.41486 5.35318 -8.59491 5.56015C-9.14939 6.19793 -9.86099 6.69797 -10.6488 7.00392C-9.92476 7.08957 -9.40488 7.94423 -9.66142 8.62669C-9.31523 8.52624 -8.94434 8.45671 -8.59668 8.55154C-8.24887 8.64666 -7.93553 8.94787 -7.93242 9.30826C-7.6432 8.61737 -7.08812 8.04173 -6.40833 7.72765C-6.17295 7.61906 -5.87766 7.54671 -5.66876 7.70013C-5.4248 7.22657 -5.11679 6.77076 -4.68273 6.46171C-4.33714 6.21554 -3.89626 6.06966 -3.47004 6.12292C-3.40909 6.13046 -3.22106 6.20946 -3.17253 6.18727C-3.1138 6.1602 -3.0422 5.96595 -3.02253 5.90529C-2.97208 5.74848 -2.97948 5.59876 -2.90802 5.44431C-2.7444 5.09147 -2.44614 4.78656 -2.11949 4.58151C-2.04433 4.53432 -1.07191 4.155 -1.07087 4.27158C-1.07753 3.45242 -0.182037 2.75887 0.609303 2.97013C0.726177 2.20971 1.64993 1.85583 2.29274 2.17953C2.14213 1.62963 2.52012 1.17027 2.93865 0.845685C3.54269 0.377152 4.27338 0.0546315 5.03646 0.00610653C5.79925 -0.0425664 6.59193 0.199912 7.14567 0.726882C7.62027 0.310721 8.25864 0.0864473 8.88946 0.114408C9.30429 0.132901 9.7925 0.347854 9.82342 0.761944C10.2551 0.752327 10.697 0.747748 11.105 0.889181C11.5129 1.03061 11.8863 1.34839 11.973 1.77135C12.0495 2.14343 11.8974 2.52423 11.907 2.904C12.2062 2.89305 12.5056 2.8821 12.8047 2.87116C13.2808 2.8537 13.7767 2.84009 14.2103 3.03745C14.644 3.2348 14.99 3.71235 14.8731 4.17423C15.1736 4.10972 15.4875 4.05306 15.7858 4.12762C16.084 4.20219 16.3622 4.44437 16.3799 4.7512C16.373 4.61362 17.1844 4.61702 17.2973 4.62338C17.6154 4.64128 17.9161 4.71584 18.1984 4.86689C18.7491 5.16174 19.1861 5.71075 19.222 6.34986C19.7713 6.24645 20.3402 6.14334 20.884 6.2722C21.4278 6.4012 21.9427 6.82817 21.9882 7.38517C21.956 6.99075 22.6241 6.51704 22.9152 6.37013C23.3456 6.15266 23.8532 6.07277 24.3281 6.16361C24.5661 6.20917 24.7821 6.30045 24.9878 6.42709C25.1462 6.52488 25.1517 6.55714 25.3086 6.46822C25.4215 6.40416 25.5082 6.28685 25.6287 6.22205C26.0852 5.97617 26.7057 5.99421 27.1122 6.33271C27.1448 6.35978 27.1757 6.38848 27.2047 6.4191C27.8259 5.81298 28.6927 5.46635 29.5605 5.47686C30.1925 5.48455 30.8723 5.71652 31.1981 6.25814C31.4832 6.73229 31.4376 7.32657 31.3831 7.87707C31.7943 7.66359 32.3326 7.72588 32.6843 8.02783C33.0358 8.32978 33.1789 8.85245 33.0299 9.29125C33.5401 9.15647 34.0887 9.02274 34.5852 9.20204C35.0815 9.3812 35.4436 10.016 35.1495 10.4542C35.6158 10.2526 36.1111 10.0463 36.6148 10.112C37.1187 10.1777 37.6094 10.6288 37.5223 11.1296C37.9334 10.8859 38.4122 10.7572 38.89 10.7621C39.0832 10.764 39.2834 10.7899 39.4464 10.8932C39.6096 10.9964 39.7252 11.1939 39.6831 11.3824C39.9833 11.2392 40.2965 11.0929 40.6291 11.0938C40.9615 11.0947 41.3188 11.2892 41.3927 11.6135C41.3649 11.4922 42.1603 11.7091 42.222 11.7466C42.4498 11.886 42.6639 12.1384 42.7188 12.4072C42.8336 12.9704 41.9638 13.0651 41.5798 13.0651C37.9238 13.0663 34.2676 13.0675 30.6112 13.0687Z" fill="white"/>
<path d="M-42.5601 13.2055C-42.1308 13.3037 -41.6595 13.221 -41.2244 13.2186C-40.7242 13.2157 -40.224 13.2128 -39.7238 13.21C-38.7234 13.2043 -37.7233 13.1988 -36.7229 13.1935C-15.9329 13.0833 4.85763 13.0767 25.6479 13.0702C27.3025 13.0698 28.9568 13.0694 30.6112 13.0688C34.2676 13.0676 37.9238 13.0664 41.5801 13.0654C41.8737 13.0654 42.4501 13.0091 42.6544 12.7313C41.9313 12.4518 41.1194 12.3993 40.3702 12.601C40.4264 12.5859 39.8426 12.0306 39.7738 11.9925C39.5025 11.8426 39.1867 11.7695 38.8772 11.7857C38.6215 11.799 38.2221 12.0506 38.0435 11.9761C37.9068 11.9188 37.8028 11.768 37.6422 11.7121C37.4691 11.6518 37.2826 11.6288 37.1008 11.6146C36.8709 11.597 36.6375 11.584 36.4122 11.6325C36.187 11.6812 35.9674 11.799 35.8433 11.9932C35.6688 11.7173 35.3843 11.5225 35.077 11.4121C34.7697 11.3017 34.4395 11.2696 34.113 11.2671C33.9205 11.2656 33.7554 11.3387 33.5743 11.3559C33.3779 11.3744 33.4143 11.2837 33.3106 11.1189C33.1435 10.8533 32.8175 10.6762 32.5016 10.7418C32.5207 10.4773 32.5374 10.1994 32.4257 9.95902C32.3081 9.7056 32.0653 9.53369 31.8172 9.40557C31.3662 9.17286 30.8037 9.05154 30.3599 9.29801C30.3507 9.04148 30.3354 8.7817 30.2567 8.5373C30.178 8.2929 30.0282 8.06226 29.8049 7.93548C29.5031 7.76401 29.1273 7.80868 28.79 7.8902C28.5029 7.95973 28.1904 8.07854 28.0666 8.3469C27.9093 8.08578 27.6129 7.93192 27.3118 7.8831C26.9166 7.81919 26.3798 7.87452 26.011 8.03874C25.7661 8.14762 25.6657 8.34409 25.5427 8.56704C25.4371 8.75862 25.3474 8.89443 25.1079 8.87224C24.6771 8.83185 24.3209 8.61452 23.867 8.6774C23.4271 8.7382 22.9906 9.07048 22.9682 9.51401C22.1738 9.01441 20.9827 9.33751 20.5497 10.1703C20.1097 9.72675 19.2161 9.95814 19.0467 10.5595C18.5997 10.2917 18.0665 10.1703 17.5475 10.2182C17.6053 9.44596 16.8792 8.71083 16.1065 8.75906C15.9179 7.71947 14.8547 6.91763 13.8031 7.02223C13.9562 6.70533 13.7938 6.22986 13.4427 6.11964C13.2362 6.05484 13.0419 6.18178 12.8561 6.2803C12.792 6.31418 12.2811 6.58491 12.2975 6.65237C12.1852 6.18547 12.0608 5.71176 11.8033 5.3064C11.5461 4.90104 11.1312 4.56787 10.653 4.52571C10.5086 4.51298 10.3489 4.53267 10.247 4.63563C10.2591 3.98114 9.72018 3.3904 9.08226 3.2435C8.44434 3.09659 7.75626 3.3438 7.275 3.78748C7.23314 3.82609 7.18609 3.86855 7.12943 3.86722C7.09066 3.86619 7.05589 3.84459 7.02335 3.82358C6.83146 3.69975 6.63648 3.57326 6.41679 3.51053C6.02267 3.39795 5.58698 3.50891 5.24923 3.74147C5.04373 3.88305 4.87094 4.0665 4.72551 4.26859C4.66131 4.35765 4.61175 4.49376 4.53556 4.5695C4.42845 4.67587 4.46809 4.64466 4.31261 4.63179C3.91775 4.59924 3.57068 4.59806 3.19239 4.74274C2.49396 5.00978 1.89894 5.63498 1.8297 6.40191C1.80529 6.67264 1.81727 6.98879 1.6069 7.16099C1.46029 7.28097 1.25376 7.28483 1.06439 7.28202C0.266247 7.27092 -0.559265 7.24754 -1.29749 7.55112C-2.03558 7.85484 -2.66448 8.5876 -2.57113 9.38027C-3.49606 8.73303 -4.99664 9.29328 -5.27107 10.3883C-5.34948 10.7012 -5.37596 11.0874 -5.66178 11.2371C-5.91728 11.3708 -6.22041 11.227 -6.49499 11.139C-7.06605 10.9557 -7.71551 11.0338 -8.22665 11.3476C-8.56899 11.5577 -8.49976 11.4893 -8.90053 11.518C-8.95364 10.701 -9.98361 10.125 -10.7076 10.5079C-10.5823 9.76611 -11.0828 8.97062 -11.8057 8.76246C-11.5234 7.44194 -13.2934 6.61169 -14.6325 6.78345C-16.6083 7.03673 -18.4104 8.37515 -19.2241 10.1934C-19.2082 10.158 -19.7639 10.2926 -19.8226 10.3314C-20.0064 10.4536 -20.1537 10.6421 -20.216 10.8548C-20.2955 11.1266 -20.1702 11.2381 -20.5007 11.1714C-20.7925 11.1125 -21.0822 11.1161 -21.362 11.2287C-21.6982 11.3637 -21.9774 11.6356 -22.1212 11.9684C-22.4769 11.8429 -22.8578 11.7701 -23.2324 11.816C-23.6067 11.8618 -23.9745 12.0354 -24.2054 12.3336C-24.4822 12.1333 -24.8948 12.1487 -25.1562 12.3685C-25.3645 12.544 -25.5724 12.3677 -25.6822 12.1681C-25.8366 11.887 -25.9048 11.5991 -26.155 11.375C-26.5558 11.0158 -27.1511 10.9967 -27.6872 11.0412C-27.7026 11.0424 -28.0146 10.6416 -28.0651 10.5998C-28.2259 10.466 -28.4067 10.3685 -28.6015 10.2943C-28.9296 10.1691 -29.2067 9.9645 -29.5494 9.85916C-30.0792 9.69598 -30.9746 9.60854 -31.1139 10.3312C-31.4608 10.0503 -31.8327 9.75797 -32.2758 9.70353C-32.7187 9.64923 -33.2355 9.94482 -33.243 10.3912C-34.6463 10.2588 -35.583 11.8064 -36.8753 12.3697C-38.0788 12.8943 -39.4581 12.5129 -40.7703 12.4683C-41.4926 12.4437 -42.3018 12.6161 -42.9053 12.9935C-42.8204 13.0963 -42.6911 13.1754 -42.5601 13.2055Z" fill="#5FA2F1"/>
</g>
<g opacity="0.5">
<path d="M1207.61 21.0687C1205.96 21.0692 1204.3 21.0697 1202.65 21.0701C1181.86 21.0766 1161.07 21.0831 1140.28 21.1934C1139.28 21.1987 1138.28 21.2042 1137.28 21.2099C1136.78 21.2127 1136.28 21.2156 1135.78 21.2185C1135.34 21.221 1134.87 21.3036 1134.44 21.2054C1134.19 21.1481 1133.94 20.9144 1134.01 20.6679C1134.04 20.5615 1134.13 20.4795 1134.21 20.4096C1135.04 19.7347 1136.24 19.7895 1137.27 20.0467C1138 19.6849 1138.84 19.5407 1139.65 19.6369C1139.78 19.6528 1139.93 19.6724 1140.04 19.5975C1140.12 19.5451 1140.16 19.4562 1140.21 19.3716C1140.65 18.4856 1141.2 17.6154 1142.03 17.0631C1142.85 16.5107 1144 16.3456 1144.83 16.8844C1144.98 16.4634 1145.46 16.2511 1145.9 16.196C1146.98 16.0626 1148.03 16.5783 1148.98 17.1054C1150.02 17.6809 1151.06 18.3125 1151.78 19.2586C1151.83 19.3235 1151.88 19.3948 1151.96 19.4132C1152.04 19.4299 1152.11 19.3982 1152.18 19.3685C1152.84 19.0803 1153.55 18.9139 1154.28 18.8803C1154.33 18.8775 1154.44 18.4095 1154.47 18.3507C1154.57 18.1611 1154.7 17.9915 1154.86 17.8524C1155.17 17.5833 1155.58 17.4251 1155.99 17.4775C1155.83 16.5628 1156.69 15.6173 1157.61 15.6816C1157.3 15.2357 1157.69 14.5974 1158.12 14.3867C1158.34 14.2765 1158.57 14.1484 1158.79 14.0529C1158.86 14.0259 1159.62 13.8365 1159.62 13.9284C1159.63 13.2844 1160.05 12.7095 1160.55 12.3029C1160.85 12.0553 1161.2 11.8461 1161.59 11.8104C1161.99 11.7749 1162.41 11.9498 1162.59 12.3026C1163.51 11.4038 1164.92 11.0346 1166.18 11.3628C1166.53 11.4558 1166.91 11.6378 1167.03 11.984C1167.31 11.6869 1167.81 11.7906 1168.16 11.9997C1168.47 12.1838 1168.76 12.4774 1168.76 12.8366C1168.76 13.1108 1168.59 13.3532 1168.41 13.5602C1167.85 14.1979 1167.14 14.698 1166.35 15.0039C1167.08 15.0896 1167.6 15.9442 1167.34 16.6267C1167.68 16.5262 1168.06 16.4567 1168.4 16.5515C1168.75 16.6467 1169.06 16.9479 1169.07 17.3083C1169.36 16.6174 1169.91 16.0417 1170.59 15.7277C1170.83 15.6191 1171.12 15.5467 1171.33 15.7001C1171.58 15.2266 1171.88 14.7708 1172.32 14.4617C1172.66 14.2155 1173.1 14.0697 1173.53 14.1229C1173.59 14.1305 1173.78 14.2095 1173.83 14.1873C1173.89 14.1602 1173.96 13.966 1173.98 13.9053C1174.03 13.7485 1174.02 13.5988 1174.09 13.4443C1174.26 13.0915 1174.55 12.7866 1174.88 12.5815C1174.96 12.5343 1175.93 12.155 1175.93 12.2716C1175.92 11.4524 1176.82 10.7589 1177.61 10.9701C1177.73 10.2097 1178.65 9.85583 1179.29 10.1795C1179.14 9.62963 1179.52 9.17027 1179.94 8.84568C1180.54 8.37715 1181.27 8.05463 1182.04 8.00611C1182.8 7.95743 1183.59 8.19991 1184.15 8.72688C1184.62 8.31072 1185.26 8.08645 1185.89 8.11441C1186.3 8.1329 1186.79 8.34785 1186.82 8.76194C1187.26 8.75233 1187.7 8.74775 1188.11 8.88918C1188.51 9.03061 1188.89 9.34839 1188.97 9.77135C1189.05 10.1434 1188.9 10.5242 1188.91 10.904C1189.21 10.893 1189.51 10.8821 1189.8 10.8712C1190.28 10.8537 1190.78 10.8401 1191.21 11.0374C1191.64 11.2348 1191.99 11.7124 1191.87 12.1742C1192.17 12.1097 1192.49 12.0531 1192.79 12.1276C1193.08 12.2022 1193.36 12.4444 1193.38 12.7512C1193.37 12.6136 1194.18 12.617 1194.3 12.6234C1194.62 12.6413 1194.92 12.7158 1195.2 12.8669C1195.75 13.1617 1196.19 13.7108 1196.22 14.3499C1196.77 14.2464 1197.34 14.1433 1197.88 14.2722C1198.43 14.4012 1198.94 14.8282 1198.99 15.3852C1198.96 14.9908 1199.62 14.517 1199.92 14.3701C1200.35 14.1527 1200.85 14.0728 1201.33 14.1636C1201.57 14.2092 1201.78 14.3005 1201.99 14.4271C1202.15 14.5249 1202.15 14.5571 1202.31 14.4682C1202.42 14.4042 1202.51 14.2868 1202.63 14.222C1203.09 13.9762 1203.71 13.9942 1204.11 14.3327C1204.14 14.3598 1204.18 14.3885 1204.2 14.4191C1204.83 13.813 1205.69 13.4664 1206.56 13.4769C1207.19 13.4845 1207.87 13.7165 1208.2 14.2581C1208.48 14.7323 1208.44 15.3266 1208.38 15.8771C1208.79 15.6636 1209.33 15.7259 1209.68 16.0278C1210.04 16.3298 1210.18 16.8525 1210.03 17.2912C1210.54 17.1565 1211.09 17.0227 1211.59 17.202C1212.08 17.3812 1212.44 18.016 1212.15 18.4542C1212.62 18.2526 1213.11 18.0463 1213.61 18.112C1214.12 18.1777 1214.61 18.6288 1214.52 19.1296C1214.93 18.8859 1215.41 18.7572 1215.89 18.7621C1216.08 18.764 1216.28 18.7899 1216.45 18.8932C1216.61 18.9964 1216.73 19.1939 1216.68 19.3824C1216.98 19.2392 1217.3 19.0929 1217.63 19.0938C1217.96 19.0947 1218.32 19.2892 1218.39 19.6135C1218.36 19.4922 1219.16 19.7091 1219.22 19.7466C1219.45 19.886 1219.66 20.1384 1219.72 20.4072C1219.83 20.9704 1218.96 21.0651 1218.58 21.0651C1214.92 21.0663 1211.27 21.0675 1207.61 21.0687Z" fill="white"/>
<path d="M1134.44 21.2055C1134.87 21.3037 1135.34 21.221 1135.78 21.2186C1136.28 21.2157 1136.78 21.2128 1137.28 21.21C1138.28 21.2043 1139.28 21.1988 1140.28 21.1935C1161.07 21.0833 1181.86 21.0767 1202.65 21.0702C1204.3 21.0698 1205.96 21.0694 1207.61 21.0688C1211.27 21.0676 1214.92 21.0664 1218.58 21.0654C1218.87 21.0654 1219.45 21.0091 1219.65 20.7313C1218.93 20.4518 1218.12 20.3993 1217.37 20.601C1217.43 20.5859 1216.84 20.0306 1216.77 19.9925C1216.5 19.8426 1216.19 19.7695 1215.88 19.7857C1215.62 19.799 1215.22 20.0506 1215.04 19.9761C1214.91 19.9188 1214.8 19.768 1214.64 19.7121C1214.47 19.6518 1214.28 19.6288 1214.1 19.6146C1213.87 19.597 1213.64 19.584 1213.41 19.6325C1213.19 19.6812 1212.97 19.799 1212.84 19.9932C1212.67 19.7173 1212.38 19.5225 1212.08 19.4121C1211.77 19.3017 1211.44 19.2696 1211.11 19.2671C1210.92 19.2656 1210.76 19.3387 1210.57 19.3559C1210.38 19.3744 1210.41 19.2837 1210.31 19.1189C1210.14 18.8533 1209.82 18.6762 1209.5 18.7418C1209.52 18.4773 1209.54 18.1994 1209.43 17.959C1209.31 17.7056 1209.07 17.5337 1208.82 17.4056C1208.37 17.1729 1207.8 17.0515 1207.36 17.298C1207.35 17.0415 1207.34 16.7817 1207.26 16.5373C1207.18 16.2929 1207.03 16.0623 1206.8 15.9355C1206.5 15.764 1206.13 15.8087 1205.79 15.8902C1205.5 15.9597 1205.19 16.0785 1205.07 16.3469C1204.91 16.0858 1204.61 15.9319 1204.31 15.8831C1203.92 15.8192 1203.38 15.8745 1203.01 16.0387C1202.77 16.1476 1202.67 16.3441 1202.54 16.567C1202.44 16.7586 1202.35 16.8944 1202.11 16.8722C1201.68 16.8319 1201.32 16.6145 1200.87 16.6774C1200.43 16.7382 1199.99 17.0705 1199.97 17.514C1199.17 17.0144 1197.98 17.3375 1197.55 18.1703C1197.11 17.7267 1196.22 17.9581 1196.05 18.5595C1195.6 18.2917 1195.07 18.1703 1194.55 18.2182C1194.61 17.446 1193.88 16.7108 1193.11 16.7591C1192.92 15.7195 1191.85 14.9176 1190.8 15.0222C1190.96 14.7053 1190.79 14.2299 1190.44 14.1196C1190.24 14.0548 1190.04 14.1818 1189.86 14.2803C1189.79 14.3142 1189.28 14.5849 1189.3 14.6524C1189.19 14.1855 1189.06 13.7118 1188.8 13.3064C1188.55 12.901 1188.13 12.5679 1187.65 12.5257C1187.51 12.513 1187.35 12.5327 1187.25 12.6356C1187.26 11.9811 1186.72 11.3904 1186.08 11.2435C1185.44 11.0966 1184.76 11.3438 1184.28 11.7875C1184.23 11.8261 1184.19 11.8686 1184.13 11.8672C1184.09 11.8662 1184.06 11.8446 1184.02 11.8236C1183.83 11.6998 1183.64 11.5733 1183.42 11.5105C1183.02 11.3979 1182.59 11.5089 1182.25 11.7415C1182.04 11.8831 1181.87 12.0665 1181.73 12.2686C1181.66 12.3576 1181.61 12.4938 1181.54 12.5695C1181.43 12.6759 1181.47 12.6447 1181.31 12.6318C1180.92 12.5992 1180.57 12.5981 1180.19 12.7427C1179.49 13.0098 1178.9 13.635 1178.83 14.4019C1178.81 14.6726 1178.82 14.9888 1178.61 15.161C1178.46 15.281 1178.25 15.2848 1178.06 15.282C1177.27 15.2709 1176.44 15.2475 1175.7 15.5511C1174.96 15.8548 1174.34 16.5876 1174.43 17.3803C1173.5 16.733 1172 17.2933 1171.73 18.3883C1171.65 18.7012 1171.62 19.0874 1171.34 19.2371C1171.08 19.3708 1170.78 19.227 1170.51 19.139C1169.93 18.9557 1169.28 19.0338 1168.77 19.3476C1168.43 19.5577 1168.5 19.4893 1168.1 19.518C1168.05 18.701 1167.02 18.125 1166.29 18.5079C1166.42 17.7661 1165.92 16.9706 1165.19 16.7625C1165.48 15.4419 1163.71 14.6117 1162.37 14.7835C1160.39 15.0367 1158.59 16.3752 1157.78 18.1934C1157.79 18.158 1157.24 18.2926 1157.18 18.3314C1156.99 18.4536 1156.85 18.6421 1156.78 18.8548C1156.7 19.1266 1156.83 19.2381 1156.5 19.1714C1156.21 19.1125 1155.92 19.1161 1155.64 19.2287C1155.3 19.3637 1155.02 19.6356 1154.88 19.9684C1154.52 19.8429 1154.14 19.7701 1153.77 19.816C1153.39 19.8618 1153.03 20.0354 1152.79 20.3336C1152.52 20.1333 1152.11 20.1487 1151.84 20.3685C1151.64 20.544 1151.43 20.3677 1151.32 20.1681C1151.16 19.887 1151.1 19.5991 1150.85 19.375C1150.44 19.0158 1149.85 18.9967 1149.31 19.0412C1149.3 19.0424 1148.99 18.6416 1148.93 18.5998C1148.77 18.466 1148.59 18.3685 1148.4 18.2943C1148.07 18.1691 1147.79 17.9645 1147.45 17.8592C1146.92 17.696 1146.03 17.6085 1145.89 18.3312C1145.54 18.0503 1145.17 17.758 1144.72 17.7035C1144.28 17.6492 1143.76 17.9448 1143.76 18.3912C1142.35 18.2588 1141.42 19.8064 1140.12 20.3697C1138.92 20.8943 1137.54 20.5129 1136.23 20.4683C1135.51 20.4437 1134.7 20.6161 1134.09 20.9935C1134.18 21.0963 1134.31 21.1754 1134.44 21.2055Z" fill="#5FA2F1"/>
</g>
<g opacity="0.5">
<path d="M601.077 12.1571C602.712 12.0777 604.392 12.2531 606.013 12.4728C606.127 12.4882 606.247 12.5085 606.336 12.5817C606.533 12.7435 606.461 13.086 606.262 13.2453C606.063 13.4047 605.793 13.4324 605.538 13.4536C604.796 13.5142 604.054 13.5718 603.312 13.6262C591.919 14.4622 580.393 14.6726 568.986 13.9644C563.413 13.6186 557.671 14.0908 552.082 14.1899C546.33 14.292 540.579 14.3942 534.827 14.4963C529.075 14.5985 523.324 14.7003 517.572 14.8025C514.697 14.8535 511.821 14.9046 508.945 14.9557C507.507 14.9812 506.069 15.0067 504.632 15.0323C504.2 15.0397 501.63 15.4489 502.045 14.3028C502.111 14.12 502.294 14.009 502.469 13.9241C503.222 13.5579 504.055 13.4213 504.887 13.3992C505.549 13.381 506.595 13.7315 507.206 13.5558C507.748 13.4001 508.04 12.874 508.711 12.8186C508.88 12.8042 510.432 12.9989 510.312 13.3352C511.028 11.3369 513.551 10.2111 515.517 11.0135C515.911 7.60457 519.447 4.89615 522.841 5.40411C525.585 5.81485 527.728 7.90853 529.667 9.89391C530.276 8.66324 532.52 8.98723 532.755 10.3397C534.289 9.44904 536.299 9.44719 537.834 10.3342C538.63 9.84039 539.541 9.53271 540.472 9.43333C540.908 9.38718 541.152 9.46195 541.424 9.1832C541.692 8.90845 541.865 8.16237 542.094 7.80393C542.467 7.2169 542.874 6.63357 543.431 6.21668C544.339 5.53704 545.616 5.38628 546.657 5.83609C546.475 5.75733 548.732 3.61934 548.934 3.4455C549.86 2.64618 551.087 2.27976 552.309 2.23299C552.633 0.0977738 555.89 -0.802171 557.265 0.863544C558.784 0.642946 560.303 0.422348 561.822 0.20175C562.721 0.0712988 563.658 -0.0563842 564.523 0.220209C565.387 0.496803 566.155 1.30721 566.065 2.21083C565.975 3.11476 564.713 3.74856 564.078 3.09908C563.026 5.12722 560.998 6.62033 558.749 7.02214C559.783 6.86708 560.848 7.75962 560.876 8.80508C561.688 8.3688 562.773 8.51649 563.438 9.15398C564.968 8.64694 566.76 9.04261 567.934 10.1459C569.055 8.93923 571.273 9.05214 572.267 10.3662C573.083 9.0303 575.093 9.61364 576.574 10.1204C577.948 10.5905 579.385 10.8486 580.82 11.0735C587.512 12.123 594.311 12.4866 601.077 12.1571Z" fill="white"/>
<path d="M504.632 15.0327C506.069 15.0071 507.507 14.9816 508.945 14.956C511.821 14.905 514.697 14.8539 517.573 14.8028C523.324 14.7007 529.076 14.5988 534.827 14.4967C540.579 14.3946 546.33 14.2924 552.082 14.1903C557.672 14.0912 563.414 13.6189 568.986 13.9647C580.393 14.6733 591.919 14.4625 603.313 13.6266C604.055 13.5722 604.797 13.5149 605.538 13.454C605.793 13.4331 606.063 13.4054 606.263 13.2457C606.368 13.162 606.435 13.0276 606.449 12.8956C604.341 12.7276 602.215 12.8584 600.111 13.0362C599.272 13.1067 598.435 13.1845 597.597 13.2531C597.182 13.2866 596.75 13.2848 596.339 13.3469C595.992 13.3996 595.66 13.4749 595.301 13.4946C593.65 13.5854 592.013 13.2722 590.372 13.1593C588.461 13.0276 586.539 13.1657 584.629 13.0267C582.199 12.8497 579.804 12.2255 577.368 12.2338C576.978 12.235 576.675 12.3378 576.307 12.4159C576.006 12.4799 575.732 12.2166 575.454 12.1024C575.125 11.968 574.779 11.8744 574.427 11.8227C573.738 11.7212 573.024 11.7815 572.366 12.0141C572.223 12.0649 572.078 12.124 571.925 12.1224C571.777 12.1203 571.636 12.0606 571.497 12.008C570.168 11.5056 568.612 11.6468 567.394 12.3799C566.238 11.3219 564.377 11.1271 563.026 11.9231C562.863 11.1683 562.337 10.5004 561.642 10.165C560.946 9.82969 560.096 9.83429 559.404 10.1767C558.943 8.4704 557.669 6.95821 555.992 6.40163C554.314 5.84537 552.282 6.36564 551.223 7.77968C550.406 7.5317 549.559 7.30435 548.711 7.39203C548.235 7.44095 547.762 7.60494 547.373 7.88492C547.178 8.0249 546.999 8.19565 546.865 8.39502C546.763 8.54639 546.756 8.77069 546.576 8.78146C546.363 8.79469 546.036 8.60885 545.805 8.58331C545.551 8.55531 545.295 8.55963 545.043 8.59071C544.546 8.65193 544.062 8.81715 543.625 9.06051C542.684 9.5857 541.959 10.4241 541.331 11.2991C540.51 11.1317 539.614 11.3932 539.012 11.9754C538.915 12.0698 538.821 12.1744 538.696 12.2289C538.447 12.3378 538.163 12.2144 537.912 12.1086C536.41 11.4763 534.661 11.456 533.144 12.0526C532.834 11.3812 532.142 10.9031 531.405 10.8496C530.667 10.7961 529.914 11.1699 529.511 11.7895C528.116 10.3401 526.389 9.17188 524.45 8.63869C523.37 8.34148 522.228 8.25381 521.117 8.40488C520.572 8.47902 520.034 8.6107 519.52 8.80484C519.033 8.9876 518.64 9.26757 518.186 9.49463C517.436 9.86907 516.92 10.6742 516.895 11.512C515.834 11.436 514.791 12.295 514.662 13.3509C514.191 13.1242 513.582 13.2279 513.213 13.598C513.112 13.7001 513.021 13.8235 512.887 13.8755C512.703 13.9466 512.492 13.8632 512.301 13.9149C512 13.997 511.852 14.3856 511.545 14.4432C511.354 14.4789 511.17 14.3733 510.986 14.3149C510.565 14.1807 510.125 14.2909 509.682 14.3709C509.469 14.4096 509.256 14.4413 509.044 14.4358C508.283 14.4164 507.541 13.9214 506.807 14.122C506.6 14.1786 506.404 14.2896 506.189 14.2955C505.989 14.3016 505.799 14.2143 505.604 14.1644C504.978 14.0044 504.265 14.2736 503.9 14.8074C503.457 14.6582 502.956 14.6878 502.534 14.8896C502.479 14.9157 502.425 14.9462 502.375 14.981C503.028 15.2326 504.335 15.0379 504.632 15.0327Z" fill="#AFD1F8"/>
</g>
</svg>