<svg xmlns:dc="http://purl.org/dc/elements/1.1/" xmlns:cc="http://creativecommons.org/ns#" xmlns:rdf="http://www.w3.org/1999/02/22-rdf-syntax-ns#" xmlns:svg="http://www.w3.org/2000/svg" xmlns="http://www.w3.org/2000/svg" xmlns:sodipodi="http://sodipodi.sourceforge.net/DTD/sodipodi-0.dtd" xmlns:inkscape="http://www.inkscape.org/namespaces/inkscape" version="1.1" x="0px" y="0px" viewBox="0 0 100 125"><g transform="translate(0,-952.36218)"><path style="text-indent:0;text-transform:none;direction:ltr;block-progression:tb;baseline-shift:baseline;color:#000000;enable-background:accumulate;" d="m 40.994099,963.36214 c -16.5178,0 -29.9941,13.47618 -29.9941,29.99416 0,16.5179 13.4763,29.9942 29.9941,29.9942 6.822,0 13.1348,-2.2928 18.184,-6.1551 l 22.9642,22.9955 c 1.5617,1.5617 4.124801,1.5618 5.686501,0 1.5616,-1.5617 1.5616,-4.1247 0,-5.6864 l -22.995501,-22.9642 c 3.8622,-5.0493 6.155,-11.362 6.155,-18.184 0,-16.51798 -13.476299,-29.99416 -29.994199,-29.99416 z m 0,7.99843 c 12.1952,0 21.9958,9.80047 21.9958,21.99573 0,12.1951 -9.8006,21.9957 -21.9958,21.9957 -12.1951,0 -21.9957,-9.8006 -21.9957,-21.9957 0,-12.19526 9.8006,-21.99573 21.9957,-21.99573 z" fill="#000000" fill-opacity="1" stroke="none" marker="none" visibility="visible" display="inline" overflow="visible"/></g></svg>