<svg width="23" height="23" viewBox="0 0 23 23" fill="none"
    xmlns="http://www.w3.org/2000/svg">
    <path d="M3.83366 9.58333V17.25H19.167V9.58333L11.5003 12.4583L3.83366 9.58333ZM3.83366 5.74999V7.66666L11.5003 10.5417L19.167 7.66666V5.74999H3.83366ZM3.83366 3.83333H19.167C19.6753 3.83333 20.1628 4.03526 20.5223 4.39471C20.8817 4.75415 21.0837 5.24166 21.0837 5.74999V17.25C21.0837 17.7583 20.8817 18.2458 20.5223 18.6053C20.1628 18.9647 19.6753 19.1667 19.167 19.1667H3.83366C3.32533 19.1667 2.83782 18.9647 2.47837 18.6053C2.11893 18.2458 1.91699 17.7583 1.91699 17.25V5.74999C1.91699 5.24166 2.11893 4.75415 2.47837 4.39471C2.83782 4.03526 3.32533 3.83333 3.83366 3.83333Z" fill="#413D45"/>
</svg>
