<svg width="24" height="24" viewBox="0 0 24 24" fill="none"
    xmlns="http://www.w3.org/2000/svg">
    <path d="M10 13C10.4295 13.5741 10.9774 14.0492 11.6066 14.3929C12.2357 14.7367 12.9315 14.9411 13.6467 14.9923C14.3618 15.0436 15.0796 14.9404 15.7513 14.6898C16.4231 14.4392 17.0331 14.0471 17.54 13.54L20.54 10.54C21.4508 9.597 21.9548 8.33399 21.9434 7.023C21.932 5.71202 21.4061 4.45796 20.4791 3.53092C19.5521 2.60388 18.298 2.07803 16.987 2.06664C15.676 2.05525 14.413 2.55922 13.47 3.47001L11.75 5.18001" stroke="#413D45" stroke-width="2" stroke-linecap="round" stroke-linejoin="round"/>
    <path d="M14.0002 11C13.5707 10.4259 13.0228 9.95083 12.3937 9.60708C11.7645 9.26332 11.0687 9.0589 10.3535 9.00768C9.63841 8.95646 8.92061 9.05965 8.24885 9.31023C7.5771 9.56082 6.96709 9.95295 6.4602 10.46L3.4602 13.46C2.54941 14.403 2.04544 15.666 2.05683 16.977C2.06822 18.288 2.59407 19.5421 3.52111 20.4691C4.44815 21.3961 5.70221 21.922 7.01319 21.9334C8.32418 21.9448 9.58719 21.4408 10.5302 20.53L12.2402 18.82" stroke="#413D45" stroke-width="2" stroke-linecap="round" stroke-linejoin="round"/>
</svg>
